<svg version="1.1" viewBox="0.0 0.0 947.9160104986877 767.0157480314961" fill="none" stroke="none" stroke-linecap="square" stroke-miterlimit="10" xmlns:xlink="http://www.w3.org/1999/xlink" xmlns="http://www.w3.org/2000/svg"><clipPath id="p.0"><path d="m0 0l947.916 0l0 767.01575l-947.916 0l0 -767.01575z" clip-rule="nonzero"/></clipPath><g clip-path="url(#p.0)"><path fill="#000000" fill-opacity="0.0" d="m0 0l947.916 0l0 767.01575l-947.916 0z" fill-rule="evenodd"/><path fill="#ffffff" d="m462.4439 49.644135l0 0c0 -18.560247 15.046051 -33.6063 33.606293 -33.6063l0 0c8.912933 0 17.460846 3.5406532 23.763214 9.843058c6.302429 6.3024044 9.843079 14.850298 9.843079 23.763243l0 0c0 18.560242 -15.0460205 33.6063 -33.606293 33.6063l0 0c-18.560242 0 -33.606293 -15.046059 -33.606293 -33.6063z" fill-rule="evenodd"/><path stroke="#6aa84f" stroke-width="4.0" stroke-linejoin="round" stroke-linecap="butt" d="m462.4439 49.644135l0 0c0 -18.560247 15.046051 -33.6063 33.606293 -33.6063l0 0c8.912933 0 17.460846 3.5406532 23.763214 9.843058c6.302429 6.3024044 9.843079 14.850298 9.843079 23.763243l0 0c0 18.560242 -15.0460205 33.6063 -33.606293 33.6063l0 0c-18.560242 0 -33.606293 -15.046059 -33.606293 -33.6063z" fill-rule="evenodd"/><path fill="#000000" d="m483.5209 56.554756l0 -10.984375l2.328125 0l0 0.875l-1.265625 0l0 9.234375l1.265625 0l0 0.875l-2.328125 0zm3.0214844 -6.625q0 -1.53125 0.3125 -2.453125q0.3125 -0.9375 0.921875 -1.4375q0.625 -0.5 1.5625 -0.5q0.6875 0 1.203125 0.28125q0.53125 0.28125 0.875 0.8125q0.34375 0.515625 0.53125 1.265625q0.1875 0.75 0.1875 2.03125q0 1.515625 -0.3125 2.4375q-0.296875 0.921875 -0.921875 1.4375q-0.609375 0.5 -1.5625 0.5q-1.234375 0 -1.953125 -0.890625q-0.84375 -1.0625 -0.84375 -3.484375zm1.078125 0q0 2.109375 0.5 2.8125q0.5 0.703125 1.21875 0.703125q0.734375 0 1.21875 -0.703125q0.5 -0.703125 0.5 -2.8125q0 -2.125 -0.5 -2.8125q-0.484375 -0.703125 -1.234375 -0.703125q-0.71875 0 -1.15625 0.609375q-0.546875 0.78125 -0.546875 2.90625zm6.158203 4.234375l0 -1.203125l1.203125 0l0 1.203125q0 0.65625 -0.234375 1.0625q-0.234375 0.421875 -0.734375 0.640625l-0.296875 -0.453125q0.328125 -0.140625 0.484375 -0.4375q0.15625 -0.28125 0.1875 -0.8125l-0.609375 0zm9.480469 0l0 -2.0625l-3.71875 0l0 -0.96875l3.921875 -5.5625l0.859375 0l0 5.5625l1.15625 0l0 0.96875l-1.15625 0l0 2.0625l-1.0625 0zm0 -3.03125l0 -3.859375l-2.6875 3.859375l2.6875 0zm5.361328 5.421875l-2.328125 0l0 -0.875l1.265625 0l0 -9.234375l-1.265625 0l0 -0.875l2.328125 0l0 10.984375z" fill-rule="nonzero"/><path fill="#ffffff" d="m395.2313 127.068016l0 0c0 -18.560242 15.046051 -33.6063 33.606323 -33.6063l0 0c8.912933 0 17.460815 3.540657 23.763245 9.843063c6.3023987 6.3023987 9.843048 14.850296 9.843048 23.763237l0 0c0 18.56025 -15.046051 33.6063 -33.606293 33.6063l0 0c-18.560272 0 -33.606323 -15.046051 -33.606323 -33.6063z" fill-rule="evenodd"/><path stroke="#000000" stroke-width="1.0" stroke-linejoin="round" stroke-linecap="butt" d="m395.2313 127.068016l0 0c0 -18.560242 15.046051 -33.6063 33.606323 -33.6063l0 0c8.912933 0 17.460815 3.540657 23.763245 9.843063c6.3023987 6.3023987 9.843048 14.850296 9.843048 23.763237l0 0c0 18.56025 -15.046051 33.6063 -33.606293 33.6063l0 0c-18.560272 0 -33.606323 -15.046051 -33.606323 -33.6063z" fill-rule="evenodd"/><path fill="#000000" d="m416.30832 133.97864l0 -10.984367l2.328125 0l0 0.875l-1.265625 0l0 9.234367l1.265625 0l0 0.875l-2.328125 0zm3.0214844 -6.6249924q0 -1.53125 0.3125 -2.453125q0.3125 -0.9375 0.921875 -1.4375q0.625 -0.5 1.5625 -0.5q0.6875 0 1.203125 0.28125q0.53125 0.28125 0.875 0.8125q0.34375 0.515625 0.53125 1.265625q0.1875 0.75 0.1875 2.03125q0 1.5156174 -0.3125 2.4374924q-0.296875 0.921875 -0.921875 1.4375q-0.609375 0.5 -1.5625 0.5q-1.234375 0 -1.953125 -0.890625q-0.84375 -1.0625 -0.84375 -3.4843674zm1.078125 0q0 2.1093674 0.5 2.8124924q0.5 0.703125 1.21875 0.703125q0.734375 0 1.21875 -0.703125q0.5 -0.703125 0.5 -2.8124924q0 -2.125 -0.5 -2.8125q-0.484375 -0.703125 -1.234375 -0.703125q-0.71875 0 -1.15625 0.609375q-0.546875 0.78125 -0.546875 2.90625zm6.158203 4.2343674l0 -1.203125l1.203125 0l0 1.203125q0 0.65625 -0.234375 1.0625q-0.234375 0.421875 -0.734375 0.640625l-0.296875 -0.453125q0.328125 -0.140625 0.484375 -0.4375q0.15625 -0.28125 0.1875 -0.8125l-0.609375 0zm6.1054688 -2.265625l1.0625 -0.140625q0.171875 0.890625 0.609375 1.296875q0.4375 0.390625 1.0625 0.390625q0.75 0 1.265625 -0.515625q0.515625 -0.515625 0.515625 -1.28125q0 -0.71875 -0.484375 -1.1874924q-0.46875 -0.484375 -1.203125 -0.484375q-0.296875 0 -0.75 0.125l0.125 -0.9375q0.109375 0.015625 0.171875 0.015625q0.671875 0 1.203125 -0.34375q0.546875 -0.359375 0.546875 -1.09375q0 -0.578125 -0.390625 -0.953125q-0.390625 -0.390625 -1.015625 -0.390625q-0.609375 0 -1.03125 0.390625q-0.40625 0.390625 -0.515625 1.15625l-1.0625 -0.1875q0.1875 -1.046875 0.875 -1.625q0.6875 -0.59375 1.703125 -0.59375q0.703125 0 1.296875 0.3125q0.59375 0.296875 0.90625 0.8125q0.3125 0.515625 0.3125 1.109375q0 0.546875 -0.296875 1.015625q-0.296875 0.453125 -0.875 0.71875q0.75 0.171875 1.171875 0.734375q0.421875 0.5468674 0.421875 1.3906174q0 1.125 -0.828125 1.90625q-0.8125 0.78125 -2.0625 0.78125q-1.125 0 -1.875 -0.671875q-0.75 -0.6875 -0.859375 -1.75zm8.736328 4.65625l-2.328125 0l0 -0.875l1.265625 0l0 -9.234367l-1.265625 0l0 -0.875l2.328125 0l0 10.984367z" fill-rule="nonzero"/><path fill="#ffffff" d="m529.6565 127.068016l0 0c0 -18.560242 15.046082 -33.6063 33.606323 -33.6063l0 0c8.912903 0 17.460815 3.540657 23.763245 9.843063c6.302368 6.3023987 9.843018 14.850296 9.843018 23.763237l0 0c0 18.56025 -15.0460205 33.6063 -33.606262 33.6063l0 0c-18.560242 0 -33.606323 -15.046051 -33.606323 -33.6063z" fill-rule="evenodd"/><path stroke="#000000" stroke-width="1.0" stroke-linejoin="round" stroke-linecap="butt" d="m529.6565 127.068016l0 0c0 -18.560242 15.046082 -33.6063 33.606323 -33.6063l0 0c8.912903 0 17.460815 3.540657 23.763245 9.843063c6.302368 6.3023987 9.843018 14.850296 9.843018 23.763237l0 0c0 18.56025 -15.0460205 33.6063 -33.606262 33.6063l0 0c-18.560242 0 -33.606323 -15.046051 -33.606323 -33.6063z" fill-rule="evenodd"/><path fill="#000000" d="m550.7335 133.97864l0 -10.984367l2.328125 0l0 0.875l-1.265625 0l0 9.234367l1.265625 0l0 0.875l-2.328125 0zm8.568359 -3.40625l0 1.015625l-5.6875 0q0 -0.375 0.125 -0.734375q0.21875 -0.578125 0.6875 -1.140625q0.484375 -0.5625 1.390625 -1.296875q1.40625 -1.1562424 1.890625 -1.8281174q0.5 -0.671875 0.5 -1.265625q0 -0.625 -0.453125 -1.046875q-0.453125 -0.4375 -1.171875 -0.4375q-0.765625 0 -1.21875 0.453125q-0.453125 0.453125 -0.46875 1.265625l-1.078125 -0.109375q0.109375 -1.21875 0.828125 -1.84375q0.734375 -0.640625 1.96875 -0.640625q1.234375 0 1.953125 0.6875q0.71875 0.6875 0.71875 1.703125q0 0.515625 -0.21875 1.015625q-0.203125 0.484375 -0.703125 1.046875q-0.484375 0.546875 -1.609375 1.4999924q-0.953125 0.796875 -1.234375 1.09375q-0.265625 0.28125 -0.4375 0.5625l4.21875 0zm1.6894531 1.015625l0 -1.203125l1.203125 0l0 1.203125q0 0.65625 -0.234375 1.0625q-0.234375 0.421875 -0.734375 0.640625l-0.296875 -0.453125q0.328125 -0.140625 0.484375 -0.4375q0.15625 -0.28125 0.1875 -0.8125l-0.609375 0zm9.480469 0l0 -2.0625l-3.71875 0l0 -0.96875l3.921875 -5.5624924l0.859375 0l0 5.5624924l1.15625 0l0 0.96875l-1.15625 0l0 2.0625l-1.0625 0zm0 -3.03125l0 -3.8593674l-2.6875 3.8593674l2.6875 0zm5.361328 5.421875l-2.328125 0l0 -0.875l1.265625 0l0 -9.234367l-1.265625 0l0 -0.875l2.328125 0l0 10.984367z" fill-rule="nonzero"/><path fill="#ffffff" d="m395.2313 228.58246l0 0c0 -18.560257 15.046051 -33.606308 33.606323 -33.606308l0 0c8.912933 0 17.460815 3.5406647 23.763245 9.843063c6.3023987 6.3023987 9.843048 14.850296 9.843048 23.763245l0 0c0 18.560242 -15.046051 33.606293 -33.606293 33.606293l0 0c-18.560272 0 -33.606323 -15.046051 -33.606323 -33.606293z" fill-rule="evenodd"/><path stroke="#000000" stroke-width="1.0" stroke-linejoin="round" stroke-linecap="butt" d="m395.2313 228.58246l0 0c0 -18.560257 15.046051 -33.606308 33.606323 -33.606308l0 0c8.912933 0 17.460815 3.5406647 23.763245 9.843063c6.3023987 6.3023987 9.843048 14.850296 9.843048 23.763245l0 0c0 18.560242 -15.046051 33.606293 -33.606293 33.606293l0 0c-18.560272 0 -33.606323 -15.046051 -33.606323 -33.606293z" fill-rule="evenodd"/><path fill="#000000" d="m416.30832 235.49307l0 -10.984375l2.328125 0l0 0.875l-1.265625 0l0 9.234375l1.265625 0l0 0.875l-2.328125 0zm6.9902344 -2.390625l-1.046875 0l0 -6.71875q-0.390625 0.359375 -1.015625 0.734375q-0.609375 0.359375 -1.09375 0.53125l0 -1.015625q0.875 -0.421875 1.53125 -1.0q0.671875 -0.59375 0.953125 -1.15625l0.671875 0l0 8.625zm3.2675781 0l0 -1.203125l1.203125 0l0 1.203125q0 0.65625 -0.234375 1.0625q-0.234375 0.421875 -0.734375 0.640625l-0.296875 -0.453125q0.328125 -0.140625 0.484375 -0.4375q0.15625 -0.28125 0.1875 -0.8125l-0.609375 0zm6.1054688 -2.265625l1.0625 -0.140625q0.171875 0.890625 0.609375 1.296875q0.4375 0.390625 1.0625 0.390625q0.75 0 1.265625 -0.515625q0.515625 -0.515625 0.515625 -1.28125q0 -0.71875 -0.484375 -1.1875q-0.46875 -0.484375 -1.203125 -0.484375q-0.296875 0 -0.75 0.125l0.125 -0.9375q0.109375 0.015625 0.171875 0.015625q0.671875 0 1.203125 -0.34375q0.546875 -0.359375 0.546875 -1.09375q0 -0.578125 -0.390625 -0.953125q-0.390625 -0.390625 -1.015625 -0.390625q-0.609375 0 -1.03125 0.390625q-0.40625 0.390625 -0.515625 1.15625l-1.0625 -0.1875q0.1875 -1.046875 0.875 -1.625q0.6875 -0.59375 1.703125 -0.59375q0.703125 0 1.296875 0.3125q0.59375 0.296875 0.90625 0.8125q0.3125 0.515625 0.3125 1.109375q0 0.546875 -0.296875 1.015625q-0.296875 0.453125 -0.875 0.71875q0.75 0.171875 1.171875 0.734375q0.421875 0.546875 0.421875 1.390625q0 1.125 -0.828125 1.90625q-0.8125 0.78125 -2.0625 0.78125q-1.125 0 -1.875 -0.671875q-0.75 -0.6875 -0.859375 -1.75zm8.736328 4.65625l-2.328125 0l0 -0.875l1.265625 0l0 -9.234375l-1.265625 0l0 -0.875l2.328125 0l0 10.984375z" fill-rule="nonzero"/><path fill="#ffffff" d="m328.0187 310.78455l0 0c0 -18.560242 15.046051 -33.606293 33.606293 -33.606293l0 0c8.912964 0 17.460846 3.5406494 23.763245 9.843048c6.3023987 6.3023987 9.843048 14.850311 9.843048 23.763245l0 0c0 18.560242 -15.046051 33.606293 -33.606293 33.606293l0 0c-18.560242 0 -33.606293 -15.046051 -33.606293 -33.606293z" fill-rule="evenodd"/><path stroke="#000000" stroke-width="1.0" stroke-linejoin="round" stroke-linecap="butt" d="m328.0187 310.78455l0 0c0 -18.560242 15.046051 -33.606293 33.606293 -33.606293l0 0c8.912964 0 17.460846 3.5406494 23.763245 9.843048c6.3023987 6.3023987 9.843048 14.850311 9.843048 23.763245l0 0c0 18.560242 -15.046051 33.606293 -33.606293 33.606293l0 0c-18.560242 0 -33.606293 -15.046051 -33.606293 -33.606293z" fill-rule="evenodd"/><path fill="#000000" d="m349.0957 317.6952l0 -10.984375l2.328125 0l0 0.875l-1.265625 0l0 9.234375l1.265625 0l0 0.875l-2.328125 0zm6.9902344 -2.390625l-1.046875 0l0 -6.71875q-0.390625 0.359375 -1.015625 0.734375q-0.609375 0.359375 -1.09375 0.53125l0 -1.015625q0.875 -0.421875 1.53125 -1.0q0.671875 -0.59375 0.953125 -1.15625l0.671875 0l0 8.625zm3.2675781 0l0 -1.203125l1.203125 0l0 1.203125q0 0.65625 -0.234375 1.0625q-0.234375 0.421875 -0.734375 0.640625l-0.296875 -0.453125q0.328125 -0.140625 0.484375 -0.4375q0.15625 -0.28125 0.1875 -0.8125l-0.609375 0zm6.1054688 -4.234375q0 -1.53125 0.3125 -2.453125q0.3125 -0.9375 0.921875 -1.4375q0.625 -0.5 1.5625 -0.5q0.6875 0 1.203125 0.28125q0.53125 0.28125 0.875 0.8125q0.34375 0.515625 0.53125 1.265625q0.1875 0.75 0.1875 2.03125q0 1.515625 -0.3125 2.4375q-0.296875 0.921875 -0.921875 1.4375q-0.609375 0.5 -1.5625 0.5q-1.234375 0 -1.953125 -0.890625q-0.84375 -1.0625 -0.84375 -3.484375zm1.078125 0q0 2.109375 0.5 2.8125q0.5 0.703125 1.21875 0.703125q0.734375 0 1.21875 -0.703125q0.5 -0.703125 0.5 -2.8125q0 -2.125 -0.5 -2.8125q-0.484375 -0.703125 -1.234375 -0.703125q-0.71875 0 -1.15625 0.609375q-0.546875 0.78125 -0.546875 2.90625zm7.658203 6.625l-2.328125 0l0 -0.875l1.265625 0l0 -9.234375l-1.265625 0l0 -0.875l2.328125 0l0 10.984375z" fill-rule="nonzero"/><path fill="#ffffff" d="m462.4439 310.78455l0 0c0 -18.560242 15.046051 -33.606293 33.606293 -33.606293l0 0c8.912933 0 17.460846 3.5406494 23.763214 9.843048c6.302429 6.3023987 9.843079 14.850311 9.843079 23.763245l0 0c0 18.560242 -15.0460205 33.606293 -33.606293 33.606293l0 0c-18.560242 0 -33.606293 -15.046051 -33.606293 -33.606293z" fill-rule="evenodd"/><path stroke="#000000" stroke-width="1.0" stroke-linejoin="round" stroke-linecap="butt" d="m462.4439 310.78455l0 0c0 -18.560242 15.046051 -33.606293 33.606293 -33.606293l0 0c8.912933 0 17.460846 3.5406494 23.763214 9.843048c6.302429 6.3023987 9.843079 14.850311 9.843079 23.763245l0 0c0 18.560242 -15.0460205 33.606293 -33.606293 33.606293l0 0c-18.560242 0 -33.606293 -15.046051 -33.606293 -33.606293z" fill-rule="evenodd"/><path fill="#000000" d="m483.5209 317.6952l0 -10.984375l2.328125 0l0 0.875l-1.265625 0l0 9.234375l1.265625 0l0 0.875l-2.328125 0zm6.9902344 -2.390625l-1.046875 0l0 -6.71875q-0.390625 0.359375 -1.015625 0.734375q-0.609375 0.359375 -1.09375 0.53125l0 -1.015625q0.875 -0.421875 1.53125 -1.0q0.671875 -0.59375 0.953125 -1.15625l0.671875 0l0 8.625zm3.2675781 0l0 -1.203125l1.203125 0l0 1.203125q0 0.65625 -0.234375 1.0625q-0.234375 0.421875 -0.734375 0.640625l-0.296875 -0.453125q0.328125 -0.140625 0.484375 -0.4375q0.15625 -0.28125 0.1875 -0.8125l-0.609375 0zm9.480469 0l0 -2.0625l-3.71875 0l0 -0.96875l3.921875 -5.5625l0.859375 0l0 5.5625l1.15625 0l0 0.96875l-1.15625 0l0 2.0625l-1.0625 0zm0 -3.03125l0 -3.859375l-2.6875 3.859375l2.6875 0zm5.361328 5.421875l-2.328125 0l0 -0.875l1.265625 0l0 -9.234375l-1.265625 0l0 -0.875l2.328125 0l0 10.984375z" fill-rule="nonzero"/><path fill="#ffffff" d="m260.80612 403.14413l0 0c0 -18.560242 15.046051 -33.606293 33.606293 -33.606293l0 0c8.912933 0 17.460846 3.5406494 23.763245 9.843048c6.3023987 6.3023987 9.843048 14.850311 9.843048 23.763245l0 0c0 18.560242 -15.046051 33.606293 -33.606293 33.606293l0 0c-18.560242 0 -33.606293 -15.046051 -33.606293 -33.606293z" fill-rule="evenodd"/><path stroke="#000000" stroke-width="1.0" stroke-linejoin="round" stroke-linecap="butt" d="m260.80612 403.14413l0 0c0 -18.560242 15.046051 -33.606293 33.606293 -33.606293l0 0c8.912933 0 17.460846 3.5406494 23.763245 9.843048c6.3023987 6.3023987 9.843048 14.850311 9.843048 23.763245l0 0c0 18.560242 -15.046051 33.606293 -33.606293 33.606293l0 0c-18.560242 0 -33.606293 -15.046051 -33.606293 -33.606293z" fill-rule="evenodd"/><path fill="#000000" d="m281.88312 410.05475l0 -10.984375l2.328125 0l0 0.875l-1.265625 0l0 9.234375l1.265625 0l0 0.875l-2.328125 0zm3.0214844 -6.625q0 -1.53125 0.3125 -2.453125q0.3125 -0.9375 0.921875 -1.4375q0.625 -0.5 1.5625 -0.5q0.6875 0 1.203125 0.28125q0.53125 0.28125 0.875 0.8125q0.34375 0.515625 0.53125 1.265625q0.1875 0.75 0.1875 2.03125q0 1.515625 -0.3125 2.4375q-0.296875 0.921875 -0.921875 1.4375q-0.609375 0.5 -1.5625 0.5q-1.234375 0 -1.953125 -0.890625q-0.84375 -1.0625 -0.84375 -3.484375zm1.078125 0q0 2.109375 0.5 2.8125q0.5 0.703125 1.21875 0.703125q0.734375 0 1.21875 -0.703125q0.5 -0.703125 0.5 -2.8125q0 -2.125 -0.5 -2.8125q-0.484375 -0.703125 -1.234375 -0.703125q-0.71875 0 -1.15625 0.609375q-0.546875 0.78125 -0.546875 2.90625zm6.158203 4.234375l0 -1.203125l1.203125 0l0 1.203125q0 0.65625 -0.234375 1.0625q-0.234375 0.421875 -0.734375 0.640625l-0.296875 -0.453125q0.328125 -0.140625 0.484375 -0.4375q0.15625 -0.28125 0.1875 -0.8125l-0.609375 0zm6.1054688 -4.234375q0 -1.53125 0.3125 -2.453125q0.3125 -0.9375 0.921875 -1.4375q0.625 -0.5 1.5625 -0.5q0.6875 0 1.203125 0.28125q0.53125 0.28125 0.875 0.8125q0.34375 0.515625 0.53125 1.265625q0.1875 0.75 0.1875 2.03125q0 1.515625 -0.3125 2.4375q-0.296875 0.921875 -0.921875 1.4375q-0.609375 0.5 -1.5625 0.5q-1.234375 0 -1.953125 -0.890625q-0.84375 -1.0625 -0.84375 -3.484375zm1.078125 0q0 2.109375 0.5 2.8125q0.5 0.703125 1.21875 0.703125q0.734375 0 1.21875 -0.703125q0.5 -0.703125 0.5 -2.8125q0 -2.125 -0.5 -2.8125q-0.484375 -0.703125 -1.234375 -0.703125q-0.71875 0 -1.15625 0.609375q-0.546875 0.78125 -0.546875 2.90625zm7.658203 6.625l-2.328125 0l0 -0.875l1.265625 0l0 -9.234375l-1.265625 0l0 -0.875l2.328125 0l0 10.984375z" fill-rule="nonzero"/><path fill="#ffffff" d="m395.2313 403.14413l0 0c0 -18.560242 15.046051 -33.606293 33.606323 -33.606293l0 0c8.912933 0 17.460815 3.5406494 23.763245 9.843048c6.3023987 6.3023987 9.843048 14.850311 9.843048 23.763245l0 0c0 18.560242 -15.046051 33.606293 -33.606293 33.606293l0 0c-18.560272 0 -33.606323 -15.046051 -33.606323 -33.606293z" fill-rule="evenodd"/><path stroke="#000000" stroke-width="1.0" stroke-linejoin="round" stroke-linecap="butt" d="m395.2313 403.14413l0 0c0 -18.560242 15.046051 -33.606293 33.606323 -33.606293l0 0c8.912933 0 17.460815 3.5406494 23.763245 9.843048c6.3023987 6.3023987 9.843048 14.850311 9.843048 23.763245l0 0c0 18.560242 -15.046051 33.606293 -33.606293 33.606293l0 0c-18.560272 0 -33.606323 -15.046051 -33.606323 -33.606293z" fill-rule="evenodd"/><path fill="#000000" d="m416.30832 410.05475l0 -10.984375l2.328125 0l0 0.875l-1.265625 0l0 9.234375l1.265625 0l0 0.875l-2.328125 0zm8.568359 -3.40625l0 1.015625l-5.6875 0q0 -0.375 0.125 -0.734375q0.21875 -0.578125 0.6875 -1.140625q0.484375 -0.5625 1.390625 -1.296875q1.40625 -1.15625 1.890625 -1.828125q0.5 -0.671875 0.5 -1.265625q0 -0.625 -0.453125 -1.046875q-0.453125 -0.4375 -1.171875 -0.4375q-0.765625 0 -1.21875 0.453125q-0.453125 0.453125 -0.46875 1.265625l-1.078125 -0.109375q0.109375 -1.21875 0.828125 -1.84375q0.734375 -0.640625 1.96875 -0.640625q1.234375 0 1.953125 0.6875q0.71875 0.6875 0.71875 1.703125q0 0.515625 -0.21875 1.015625q-0.203125 0.484375 -0.703125 1.046875q-0.484375 0.546875 -1.609375 1.5q-0.953125 0.796875 -1.234375 1.09375q-0.265625 0.28125 -0.4375 0.5625l4.21875 0zm1.6894531 1.015625l0 -1.203125l1.203125 0l0 1.203125q0 0.65625 -0.234375 1.0625q-0.234375 0.421875 -0.734375 0.640625l-0.296875 -0.453125q0.328125 -0.140625 0.484375 -0.4375q0.15625 -0.28125 0.1875 -0.8125l-0.609375 0zm6.1054688 -4.234375q0 -1.53125 0.3125 -2.453125q0.3125 -0.9375 0.921875 -1.4375q0.625 -0.5 1.5625 -0.5q0.6875 0 1.203125 0.28125q0.53125 0.28125 0.875 0.8125q0.34375 0.515625 0.53125 1.265625q0.1875 0.75 0.1875 2.03125q0 1.515625 -0.3125 2.4375q-0.296875 0.921875 -0.921875 1.4375q-0.609375 0.5 -1.5625 0.5q-1.234375 0 -1.953125 -0.890625q-0.84375 -1.0625 -0.84375 -3.484375zm1.078125 0q0 2.109375 0.5 2.8125q0.5 0.703125 1.21875 0.703125q0.734375 0 1.21875 -0.703125q0.5 -0.703125 0.5 -2.8125q0 -2.125 -0.5 -2.8125q-0.484375 -0.703125 -1.234375 -0.703125q-0.71875 0 -1.15625 0.609375q-0.546875 0.78125 -0.546875 2.90625zm7.658203 6.625l-2.328125 0l0 -0.875l1.265625 0l0 -9.234375l-1.265625 0l0 -0.875l2.328125 0l0 10.984375z" fill-rule="nonzero"/><path fill="#ffffff" d="m395.2313 504.20187l0 0c0 -18.560242 15.046051 -33.606293 33.606323 -33.606293l0 0c8.912933 0 17.460815 3.5406494 23.763245 9.843048c6.3023987 6.3023987 9.843048 14.850311 9.843048 23.763245l0 0c0 18.560272 -15.046051 33.606293 -33.606293 33.606293l0 0c-18.560272 0 -33.606323 -15.0460205 -33.606323 -33.606293z" fill-rule="evenodd"/><path stroke="#000000" stroke-width="1.0" stroke-linejoin="round" stroke-linecap="butt" d="m395.2313 504.20187l0 0c0 -18.560242 15.046051 -33.606293 33.606323 -33.606293l0 0c8.912933 0 17.460815 3.5406494 23.763245 9.843048c6.3023987 6.3023987 9.843048 14.850311 9.843048 23.763245l0 0c0 18.560272 -15.046051 33.606293 -33.606293 33.606293l0 0c-18.560272 0 -33.606323 -15.0460205 -33.606323 -33.606293z" fill-rule="evenodd"/><path fill="#000000" d="m416.30832 511.1125l0 -10.984375l2.328125 0l0 0.875l-1.265625 0l0 9.234375l1.265625 0l0 0.875l-2.328125 0zm8.568359 -3.40625l0 1.015625l-5.6875 0q0 -0.375 0.125 -0.734375q0.21875 -0.578125 0.6875 -1.140625q0.484375 -0.5625 1.390625 -1.296875q1.40625 -1.15625 1.890625 -1.828125q0.5 -0.671875 0.5 -1.265625q0 -0.625 -0.453125 -1.046875q-0.453125 -0.4375 -1.171875 -0.4375q-0.765625 0 -1.21875 0.453125q-0.453125 0.453125 -0.46875 1.265625l-1.078125 -0.109375q0.109375 -1.21875 0.828125 -1.84375q0.734375 -0.640625 1.96875 -0.640625q1.234375 0 1.953125 0.6875q0.71875 0.6875 0.71875 1.703125q0 0.515625 -0.21875 1.015625q-0.203125 0.484375 -0.703125 1.046875q-0.484375 0.546875 -1.609375 1.5q-0.953125 0.796875 -1.234375 1.09375q-0.265625 0.28125 -0.4375 0.5625l4.21875 0zm1.6894531 1.015625l0 -1.203125l1.203125 0l0 1.203125q0 0.65625 -0.234375 1.0625q-0.234375 0.421875 -0.734375 0.640625l-0.296875 -0.453125q0.328125 -0.140625 0.484375 -0.4375q0.15625 -0.28125 0.1875 -0.8125l-0.609375 0zm11.652344 -1.015625l0 1.015625l-5.6875 0q0 -0.375 0.125 -0.734375q0.21875 -0.578125 0.6875 -1.140625q0.484375 -0.5625 1.390625 -1.296875q1.40625 -1.15625 1.890625 -1.828125q0.5 -0.671875 0.5 -1.265625q0 -0.625 -0.453125 -1.046875q-0.453125 -0.4375 -1.171875 -0.4375q-0.765625 0 -1.21875 0.453125q-0.453125 0.453125 -0.46875 1.265625l-1.078125 -0.109375q0.109375 -1.21875 0.828125 -1.84375q0.734375 -0.640625 1.96875 -0.640625q1.234375 0 1.953125 0.6875q0.71875 0.6875 0.71875 1.703125q0 0.515625 -0.21875 1.015625q-0.203125 0.484375 -0.703125 1.046875q-0.484375 0.546875 -1.609375 1.5q-0.953125 0.796875 -1.234375 1.09375q-0.265625 0.28125 -0.4375 0.5625l4.21875 0zm3.1894531 3.40625l-2.328125 0l0 -0.875l1.265625 0l0 -9.234375l-1.265625 0l0 -0.875l2.328125 0l0 10.984375z" fill-rule="nonzero"/><path fill="#ffffff" d="m328.0187 588.08374l0 0c0 -18.560242 15.046051 -33.606262 33.606293 -33.606262l0 0c8.912964 0 17.460846 3.5406494 23.763245 9.843018c6.3023987 6.302429 9.843048 14.850342 9.843048 23.763245l0 0c0 18.560242 -15.046051 33.606323 -33.606293 33.606323l0 0c-18.560242 0 -33.606293 -15.046082 -33.606293 -33.606323z" fill-rule="evenodd"/><path stroke="#000000" stroke-width="1.0" stroke-linejoin="round" stroke-linecap="butt" d="m328.0187 588.08374l0 0c0 -18.560242 15.046051 -33.606262 33.606293 -33.606262l0 0c8.912964 0 17.460846 3.5406494 23.763245 9.843018c6.3023987 6.302429 9.843048 14.850342 9.843048 23.763245l0 0c0 18.560242 -15.046051 33.606323 -33.606293 33.606323l0 0c-18.560242 0 -33.606293 -15.046082 -33.606293 -33.606323z" fill-rule="evenodd"/><path fill="#000000" d="m349.0957 594.9944l0 -10.984375l2.328125 0l0 0.875l-1.265625 0l0 9.234375l1.265625 0l0 0.875l-2.328125 0zm6.9902344 -2.390625l-1.046875 0l0 -6.71875q-0.390625 0.359375 -1.015625 0.734375q-0.609375 0.359375 -1.09375 0.53125l0 -1.015625q0.875 -0.421875 1.53125 -1.0q0.671875 -0.59375 0.953125 -1.15625l0.671875 0l0 8.625zm3.2675781 0l0 -1.203125l1.203125 0l0 1.203125q0 0.65625 -0.234375 1.0625q-0.234375 0.421875 -0.734375 0.640625l-0.296875 -0.453125q0.328125 -0.140625 0.484375 -0.4375q0.15625 -0.28125 0.1875 -0.8125l-0.609375 0zm11.652344 -1.015625l0 1.015625l-5.6875 0q0 -0.375 0.125 -0.734375q0.21875 -0.578125 0.6875 -1.140625q0.484375 -0.5625 1.390625 -1.296875q1.40625 -1.15625 1.890625 -1.828125q0.5 -0.671875 0.5 -1.265625q0 -0.625 -0.453125 -1.046875q-0.453125 -0.4375 -1.171875 -0.4375q-0.765625 0 -1.21875 0.453125q-0.453125 0.453125 -0.46875 1.265625l-1.078125 -0.109375q0.109375 -1.21875 0.828125 -1.84375q0.734375 -0.640625 1.96875 -0.640625q1.234375 0 1.953125 0.6875q0.71875 0.6875 0.71875 1.703125q0 0.515625 -0.21875 1.015625q-0.203125 0.484375 -0.703125 1.046875q-0.484375 0.546875 -1.609375 1.5q-0.953125 0.796875 -1.234375 1.09375q-0.265625 0.28125 -0.4375 0.5625l4.21875 0zm3.1894531 3.40625l-2.328125 0l0 -0.875l1.265625 0l0 -9.234375l-1.265625 0l0 -0.875l2.328125 0l0 10.984375z" fill-rule="nonzero"/><path fill="#ffffff" d="m462.4439 588.08374l0 0c0 -18.560242 15.046051 -33.606262 33.606293 -33.606262l0 0c8.912933 0 17.460846 3.5406494 23.763214 9.843018c6.302429 6.302429 9.843079 14.850342 9.843079 23.763245l0 0c0 18.560242 -15.0460205 33.606323 -33.606293 33.606323l0 0c-18.560242 0 -33.606293 -15.046082 -33.606293 -33.606323z" fill-rule="evenodd"/><path stroke="#000000" stroke-width="1.0" stroke-linejoin="round" stroke-linecap="butt" d="m462.4439 588.08374l0 0c0 -18.560242 15.046051 -33.606262 33.606293 -33.606262l0 0c8.912933 0 17.460846 3.5406494 23.763214 9.843018c6.302429 6.302429 9.843079 14.850342 9.843079 23.763245l0 0c0 18.560242 -15.0460205 33.606323 -33.606293 33.606323l0 0c-18.560242 0 -33.606293 -15.046082 -33.606293 -33.606323z" fill-rule="evenodd"/><path fill="#000000" d="m483.5209 594.9944l0 -10.984375l2.328125 0l0 0.875l-1.265625 0l0 9.234375l1.265625 0l0 0.875l-2.328125 0zm6.3964844 -2.390625l0 -2.0625l-3.71875 0l0 -0.96875l3.921875 -5.5625l0.859375 0l0 5.5625l1.15625 0l0 0.96875l-1.15625 0l0 2.0625l-1.0625 0zm0 -3.03125l0 -3.859375l-2.6875 3.859375l2.6875 0zm3.8613281 3.03125l0 -1.203125l1.203125 0l0 1.203125q0 0.65625 -0.234375 1.0625q-0.234375 0.421875 -0.734375 0.640625l-0.296875 -0.453125q0.328125 -0.140625 0.484375 -0.4375q0.15625 -0.28125 0.1875 -0.8125l-0.609375 0zm11.652344 -1.015625l0 1.015625l-5.6875 0q0 -0.375 0.125 -0.734375q0.21875 -0.578125 0.6875 -1.140625q0.484375 -0.5625 1.390625 -1.296875q1.40625 -1.15625 1.890625 -1.828125q0.5 -0.671875 0.5 -1.265625q0 -0.625 -0.453125 -1.046875q-0.453125 -0.4375 -1.171875 -0.4375q-0.765625 0 -1.21875 0.453125q-0.453125 0.453125 -0.46875 1.265625l-1.078125 -0.109375q0.109375 -1.21875 0.828125 -1.84375q0.734375 -0.640625 1.96875 -0.640625q1.234375 0 1.953125 0.6875q0.71875 0.6875 0.71875 1.703125q0 0.515625 -0.21875 1.015625q-0.203125 0.484375 -0.703125 1.046875q-0.484375 0.546875 -1.609375 1.5q-0.953125 0.796875 -1.234375 1.09375q-0.265625 0.28125 -0.4375 0.5625l4.21875 0zm3.1894531 3.40625l-2.328125 0l0 -0.875l1.265625 0l0 -9.234375l-1.265625 0l0 -0.875l2.328125 0l0 10.984375z" fill-rule="nonzero"/><path fill="#ffffff" d="m395.2313 671.96564l0 0c0 -18.560242 15.046051 -33.606262 33.606323 -33.606262l0 0c8.912933 0 17.460815 3.5406494 23.763245 9.843018c6.3023987 6.302429 9.843048 14.850342 9.843048 23.763245l0 0c0 18.560242 -15.046051 33.606323 -33.606293 33.606323l0 0c-18.560272 0 -33.606323 -15.046082 -33.606323 -33.606323z" fill-rule="evenodd"/><path stroke="#000000" stroke-width="1.0" stroke-linejoin="round" stroke-linecap="butt" d="m395.2313 671.96564l0 0c0 -18.560242 15.046051 -33.606262 33.606323 -33.606262l0 0c8.912933 0 17.460815 3.5406494 23.763245 9.843018c6.3023987 6.302429 9.843048 14.850342 9.843048 23.763245l0 0c0 18.560242 -15.046051 33.606323 -33.606293 33.606323l0 0c-18.560272 0 -33.606323 -15.046082 -33.606323 -33.606323z" fill-rule="evenodd"/><path fill="#000000" d="m416.30832 678.8763l0 -10.984375l2.328125 0l0 0.875l-1.265625 0l0 9.234375l1.265625 0l0 0.875l-2.328125 0zm6.3964844 -2.390625l0 -2.0625l-3.71875 0l0 -0.96875l3.921875 -5.5625l0.859375 0l0 5.5625l1.15625 0l0 0.96875l-1.15625 0l0 2.0625l-1.0625 0zm0 -3.03125l0 -3.859375l-2.6875 3.859375l2.6875 0zm3.8613281 3.03125l0 -1.203125l1.203125 0l0 1.203125q0 0.65625 -0.234375 1.0625q-0.234375 0.421875 -0.734375 0.640625l-0.296875 -0.453125q0.328125 -0.140625 0.484375 -0.4375q0.15625 -0.28125 0.1875 -0.8125l-0.609375 0zm6.1054688 -4.234375q0 -1.53125 0.3125 -2.453125q0.3125 -0.9375 0.921875 -1.4375q0.625 -0.5 1.5625 -0.5q0.6875 0 1.203125 0.28125q0.53125 0.28125 0.875 0.8125q0.34375 0.515625 0.53125 1.265625q0.1875 0.75 0.1875 2.03125q0 1.515625 -0.3125 2.4375q-0.296875 0.921875 -0.921875 1.4375q-0.609375 0.5 -1.5625 0.5q-1.234375 0 -1.953125 -0.890625q-0.84375 -1.0625 -0.84375 -3.484375zm1.078125 0q0 2.109375 0.5 2.8125q0.5 0.703125 1.21875 0.703125q0.734375 0 1.21875 -0.703125q0.5 -0.703125 0.5 -2.8125q0 -2.125 -0.5 -2.8125q-0.484375 -0.703125 -1.234375 -0.703125q-0.71875 0 -1.15625 0.609375q-0.546875 0.78125 -0.546875 2.90625zm7.658203 6.625l-2.328125 0l0 -0.875l1.265625 0l0 -9.234375l-1.265625 0l0 -0.875l2.328125 0l0 10.984375z" fill-rule="nonzero"/><path fill="#ffffff" d="m529.6565 671.96564l0 0c0 -18.560242 15.046082 -33.606262 33.606323 -33.606262l0 0c8.912903 0 17.460815 3.5406494 23.763245 9.843018c6.302368 6.302429 9.843018 14.850342 9.843018 23.763245l0 0c0 18.560242 -15.0460205 33.606323 -33.606262 33.606323l0 0c-18.560242 0 -33.606323 -15.046082 -33.606323 -33.606323z" fill-rule="evenodd"/><path stroke="#cc0000" stroke-width="4.0" stroke-linejoin="round" stroke-linecap="butt" d="m529.6565 671.96564l0 0c0 -18.560242 15.046082 -33.606262 33.606323 -33.606262l0 0c8.912903 0 17.460815 3.5406494 23.763245 9.843018c6.302368 6.302429 9.843018 14.850342 9.843018 23.763245l0 0c0 18.560242 -15.0460205 33.606323 -33.606262 33.606323l0 0c-18.560242 0 -33.606323 -15.046082 -33.606323 -33.606323z" fill-rule="evenodd"/><path fill="#000000" d="m550.7335 678.8763l0 -10.984375l2.328125 0l0 0.875l-1.265625 0l0 9.234375l1.265625 0l0 0.875l-2.328125 0zm6.3964844 -2.390625l0 -2.0625l-3.71875 0l0 -0.96875l3.921875 -5.5625l0.859375 0l0 5.5625l1.15625 0l0 0.96875l-1.15625 0l0 2.0625l-1.0625 0zm0 -3.03125l0 -3.859375l-2.6875 3.859375l2.6875 0zm3.8613281 3.03125l0 -1.203125l1.203125 0l0 1.203125q0 0.65625 -0.234375 1.0625q-0.234375 0.421875 -0.734375 0.640625l-0.296875 -0.453125q0.328125 -0.140625 0.484375 -0.4375q0.15625 -0.28125 0.1875 -0.8125l-0.609375 0zm9.480469 0l0 -2.0625l-3.71875 0l0 -0.96875l3.921875 -5.5625l0.859375 0l0 5.5625l1.15625 0l0 0.96875l-1.15625 0l0 2.0625l-1.0625 0zm0 -3.03125l0 -3.859375l-2.6875 3.859375l2.6875 0zm5.361328 5.421875l-2.328125 0l0 -0.875l1.265625 0l0 -9.234375l-1.265625 0l0 -0.875l2.328125 0l0 10.984375z" fill-rule="nonzero"/><path fill="#000000" fill-opacity="0.0" d="m462.4439 49.644135c-16.803162 0 -33.606293 21.90551 -33.606293 43.81102" fill-rule="evenodd"/><path stroke="#000000" stroke-width="1.0" stroke-linejoin="round" stroke-linecap="butt" d="m462.4439 49.64413c-8.401581 0 -16.803162 5.4763794 -23.10434 13.690945c-3.1506042 4.1072845 -5.7760925 8.8991165 -7.613922 14.033218c-0.9189148 2.5670547 -1.6409302 5.219673 -2.1332092 7.915077c-0.12307739 0.67385864 -0.231781 1.3503723 -0.32562256 2.0289001l-0.020843506 0.15679932" fill-rule="evenodd"/><path fill="#000000" stroke="#000000" stroke-width="1.0" stroke-linecap="butt" d="m427.59808 87.35664l1.3390198 4.6399994l1.9567871 -4.415146z" fill-rule="evenodd"/><path fill="#000000" fill-opacity="0.0" d="m529.6565 49.644135c16.803162 0 33.606323 21.90551 33.606323 43.81102" fill-rule="evenodd"/><path stroke="#000000" stroke-width="1.0" stroke-linejoin="round" stroke-linecap="butt" d="m529.6565 49.64413c8.40155 0 16.803162 5.4763794 23.10431 13.690945c3.1506348 4.1072845 5.776123 8.8991165 7.6139526 14.033218c0.9189453 2.5670547 1.6409302 5.219673 2.1331787 7.915077c0.12310791 0.67385864 0.23181152 1.3503723 0.32562256 2.0289001l0.020874023 0.15679932" fill-rule="evenodd"/><path fill="#000000" stroke="#000000" stroke-width="1.0" stroke-linecap="butt" d="m561.2065 87.5815l1.9567871 4.415146l1.3390503 -4.6399994z" fill-rule="evenodd"/><path fill="#000000" fill-opacity="0.0" d="m428.83762 160.67432c0 8.575485 0.01574707 12.863571 0.03149414 17.150986c0.01574707 4.2873993 0.03149414 8.574112 0.03149414 17.148224" fill-rule="evenodd"/><path stroke="#000000" stroke-width="1.0" stroke-linejoin="round" stroke-linecap="butt" d="m428.8376 160.67432c0 8.575485 0.01574707 12.863571 0.03149414 17.150986c0.007904053 2.143692 0.015777588 4.2872314 0.02166748 6.9665833l0.006652832 4.1816406" fill-rule="evenodd"/><path fill="#000000" stroke="#000000" stroke-width="1.0" stroke-linecap="butt" d="m427.24567 188.97441l1.6541443 4.537216l1.6493225 -4.538971z" fill-rule="evenodd"/><path fill="#000000" fill-opacity="0.0" d="m462.4439 228.58246c16.803131 0 33.606293 24.29921 33.606293 48.59842" fill-rule="evenodd"/><path stroke="#000000" stroke-width="1.0" stroke-linejoin="round" stroke-linecap="butt" d="m462.4439 228.58246c8.40155 0 16.803131 6.0747986 23.10431 15.186996c3.1506042 4.5561066 5.7760925 9.871567 7.6139526 15.566696c0.9189148 2.8475647 1.6408997 5.790039 2.1331787 8.779999c0.12307739 0.74746704 0.23181152 1.4979248 0.32562256 2.2505798c0.023468018 0.18817139 0.046020508 0.37649536 0.067596436 0.5649414l0.02835083 0.2584839" fill-rule="evenodd"/><path fill="#000000" stroke="#000000" stroke-width="1.0" stroke-linecap="butt" d="m494.06772 271.2819l1.9012756 4.439331l1.3970642 -4.6228333z" fill-rule="evenodd"/><path fill="#000000" fill-opacity="0.0" d="m395.2313 228.58246c-28.677155 0 -57.35431 29.212585 -57.35431 58.4252" fill-rule="evenodd"/><path stroke="#000000" stroke-width="1.0" stroke-linejoin="round" stroke-linecap="butt" d="m395.2313 228.58246c-14.338562 0 -28.677155 7.3031464 -39.43109 18.257874c-5.3769836 5.477356 -9.857788 11.867615 -12.994354 18.714325c-1.5682678 3.4233398 -2.8005066 6.9608154 -3.6406555 10.555328c-0.21002197 0.8986206 -0.39556885 1.8008118 -0.5557251 2.7056885c-0.08004761 0.4524231 -0.1538086 0.9055481 -0.22106934 1.3591919c-0.03366089 0.22683716 -0.06567383 0.4537964 -0.096069336 0.6809082l-0.020874023 0.16485596" fill-rule="evenodd"/><path fill="#000000" stroke="#000000" stroke-width="1.0" stroke-linecap="butt" d="m336.6233 280.91205l1.3497925 4.6368713l1.9465332 -4.4196777z" fill-rule="evenodd"/><path fill="#000000" fill-opacity="0.0" d="m462.4439 127.068016c4.929138 0 9.858276 -26.83464 9.858276 -53.66929" fill-rule="evenodd"/><path stroke="#000000" stroke-width="1.0" stroke-linejoin="round" stroke-linecap="butt" d="m462.4439 127.068016c2.464569 0 4.9291077 -6.708664 6.7775574 -16.771652c0.92419434 -5.031494 1.6943665 -10.901573 2.23349 -17.190948c0.26956177 -3.1446838 0.48138428 -6.394188 0.62579346 -9.696114c0.036102295 -0.8254776 0.067993164 -1.6542282 0.09552002 -2.485443c0.013763428 -0.41560364 0.02645874 -0.83182526 0.038024902 -1.248558l0.0069274902 -0.2771225" fill-rule="evenodd"/><path fill="#000000" stroke="#000000" stroke-width="1.0" stroke-linecap="butt" d="m473.87277 79.42046l-1.590332 -4.559967l-1.7128296 4.515396z" fill-rule="evenodd"/><path fill="#000000" fill-opacity="0.0" d="m395.2313 228.58246c-12.5 0 -25.007874 -25.37796 -25.0 -50.755905c0.007873535 -25.37796 12.531494 -50.755913 25.063019 -50.755913" fill-rule="evenodd"/><path stroke="#000000" stroke-width="1.0" stroke-linejoin="round" stroke-linecap="butt" d="m395.2313 228.58246c-12.5 0 -25.007874 -25.37796 -25.0 -50.755905c0.0039367676 -12.68898 3.1368103 -25.37796 7.835144 -34.8947c2.3491516 -4.758362 5.089691 -8.723663 8.026154 -11.499374c0.73410034 -0.6939392 1.4804382 -1.3135071 2.236023 -1.8525391c0.37774658 -0.269516 0.757843 -0.51890564 1.1398621 -0.7473755l0.07675171 -0.044830322" fill-rule="evenodd"/><path fill="#000000" stroke="#000000" stroke-width="1.0" stroke-linecap="butt" d="m390.01794 130.37039l3.8755798 -2.8813782l-4.820984 -0.2839203z" fill-rule="evenodd"/><path fill="#000000" fill-opacity="0.0" d="m529.6565 127.068016c-4.929138 0 -9.858276 -26.83464 -9.858276 -53.66929" fill-rule="evenodd"/><path stroke="#000000" stroke-width="1.0" stroke-linejoin="round" stroke-linecap="butt" d="m529.6565 127.068016c-2.4645386 0 -4.929138 -6.708664 -6.777527 -16.771652c-0.9242554 -5.031494 -1.694397 -10.901573 -2.2335205 -17.190948c-0.2695923 -3.1446838 -0.48138428 -6.394188 -0.62579346 -9.696114c-0.036071777 -0.8254776 -0.067993164 -1.6542282 -0.09552002 -2.485443c-0.013793945 -0.41560364 -0.026428223 -0.83182526 -0.038024902 -1.248558l-0.0068969727 -0.2771225" fill-rule="evenodd"/><path fill="#000000" stroke="#000000" stroke-width="1.0" stroke-linecap="butt" d="m521.53076 79.37589l-1.7128296 -4.515396l-1.590332 4.559967z" fill-rule="evenodd"/><path fill="#000000" fill-opacity="0.0" d="m529.6565 310.78455c66.08124 0 124.00879 -72.96336 132.16241 -135.99913c8.1536255 -63.03575 -33.466797 -116.14389 -71.010315 -135.99911c-37.54358 -19.855236 -71.010376 -6.4575653 -71.010376 -12.915125" fill-rule="evenodd"/><path stroke="#000000" stroke-width="1.0" stroke-linejoin="round" stroke-linecap="butt" d="m529.6565 310.78455c66.08118 0 124.00879 -72.96338 132.16241 -135.99913c8.1536255 -63.03575 -33.466736 -116.14389 -71.010376 -135.99911c-18.771729 -9.927618 -36.524353 -11.542009 -49.583984 -11.481689c-6.529785 0.03015709 -11.886353 0.47899437 -15.610474 0.5166931l-0.14178467 4.272461E-4" fill-rule="evenodd"/><path fill="#000000" stroke="#000000" stroke-width="1.0" stroke-linecap="butt" d="m526.0093 26.259712l-4.8285522 0.086709976l3.7546387 3.0373173z" fill-rule="evenodd"/><path fill="#000000" fill-opacity="0.0" d="m337.86176 334.5478c0 11.208313 -4.9212646 16.81427 -9.842499 22.416626c-4.9212646 5.602356 -9.842529 11.201141 -9.842529 22.402283" fill-rule="evenodd"/><path stroke="#000000" stroke-width="1.0" stroke-linejoin="round" stroke-linecap="butt" d="m337.86176 334.5478c0 11.208313 -4.9212646 16.81424 -9.842529 22.416626c-2.4606323 2.801178 -4.9212646 5.6014404 -6.7667236 9.101624c-0.9227295 1.7500305 -1.6916809 3.6750488 -2.22995 5.8626404c-0.06726074 0.27346802 -0.13095093 0.55096436 -0.19088745 0.8327942c-0.029937744 0.14093018 -0.05899048 0.28292847 -0.08703613 0.42599487l-0.038085938 0.20266724" fill-rule="evenodd"/><path fill="#000000" stroke="#000000" stroke-width="1.0" stroke-linecap="butt" d="m317.06125 373.24426l1.2445679 4.6662292l2.04599 -4.374542z" fill-rule="evenodd"/><path fill="#ffffff" d="m193.5935 504.20187l0 0c0 -18.560242 15.046051 -33.606293 33.606308 -33.606293l0 0c8.912933 0 17.46083 3.5406494 23.76323 9.843048c6.3023987 6.3023987 9.843079 14.850311 9.843079 23.763245l0 0c0 18.560272 -15.046066 33.606293 -33.606308 33.606293l0 0c-18.560257 0 -33.606308 -15.0460205 -33.606308 -33.606293z" fill-rule="evenodd"/><path stroke="#000000" stroke-width="1.0" stroke-linejoin="round" stroke-linecap="butt" d="m193.5935 504.20187l0 0c0 -18.560242 15.046051 -33.606293 33.606308 -33.606293l0 0c8.912933 0 17.46083 3.5406494 23.76323 9.843048c6.3023987 6.3023987 9.843079 14.850311 9.843079 23.763245l0 0c0 18.560272 -15.046066 33.606293 -33.606308 33.606293l0 0c-18.560257 0 -33.606308 -15.0460205 -33.606308 -33.606293z" fill-rule="evenodd"/><path fill="#000000" d="m214.67052 511.1125l0 -10.984375l2.328125 0l0 0.875l-1.265625 0l0 9.234375l1.265625 0l0 0.875l-2.328125 0zm3.0214844 -6.625q0 -1.53125 0.3125 -2.453125q0.3125 -0.9375 0.921875 -1.4375q0.625 -0.5 1.5625 -0.5q0.6875 0 1.203125 0.28125q0.53125 0.28125 0.875 0.8125q0.34375 0.515625 0.53125 1.265625q0.1875 0.75 0.1875 2.03125q0 1.515625 -0.3125 2.4375q-0.296875 0.921875 -0.921875 1.4375q-0.609375 0.5 -1.5625 0.5q-1.234375 0 -1.953125 -0.890625q-0.84375 -1.0625 -0.84375 -3.484375zm1.078125 0q0 2.109375 0.5 2.8125q0.5 0.703125 1.21875 0.703125q0.734375 0 1.21875 -0.703125q0.5 -0.703125 0.5 -2.8125q0 -2.125 -0.5 -2.8125q-0.484375 -0.703125 -1.234375 -0.703125q-0.71875 0 -1.15625 0.609375q-0.546875 0.78125 -0.546875 2.90625zm6.158203 4.234375l0 -1.203125l1.203125 0l0 1.203125q0 0.65625 -0.234375 1.0625q-0.234375 0.421875 -0.734375 0.640625l-0.296875 -0.453125q0.328125 -0.140625 0.484375 -0.4375q0.15625 -0.28125 0.1875 -0.8125l-0.609375 0zm10.074219 0l-1.046875 0l0 -6.71875q-0.390625 0.359375 -1.015625 0.734375q-0.609375 0.359375 -1.09375 0.53125l0 -1.015625q0.875 -0.421875 1.53125 -1.0q0.671875 -0.59375 0.953125 -1.15625l0.671875 0l0 8.625zm4.767578 2.390625l-2.328125 0l0 -0.875l1.265625 0l0 -9.234375l-1.265625 0l0 -0.875l2.328125 0l0 10.984375z" fill-rule="nonzero"/><path fill="#000000" fill-opacity="0.0" d="m260.80612 403.14413c-28.677185 0 -57.35434 38.64566 -57.35434 77.29135" fill-rule="evenodd"/><path stroke="#000000" stroke-width="1.0" stroke-linejoin="round" stroke-linecap="butt" d="m260.8061 403.14417c-14.338577 0 -28.677155 9.661407 -39.43109 24.153534c-5.3769684 7.246063 -9.857773 15.699799 -12.994339 24.757385c-1.5682831 4.528778 -2.8005066 9.208527 -3.6406708 13.963776c-0.42007446 2.377594 -0.74212646 4.7740784 -0.9591522 7.1799927c-0.027145386 0.30075073 -0.052627563 0.60162354 -0.07646179 0.9026489l-0.024917603 0.33828735" fill-rule="evenodd"/><path fill="#000000" stroke="#000000" stroke-width="1.0" stroke-linecap="butt" d="m202.02892 474.37714l1.4783325 4.5975037l1.8227539 -4.4721375z" fill-rule="evenodd"/><path fill="#000000" fill-opacity="0.0" d="m385.38824 334.5478c0 11.208313 4.9212646 16.81427 9.842529 22.416626c4.9212646 5.602356 9.842499 11.201141 9.842499 22.402283" fill-rule="evenodd"/><path stroke="#000000" stroke-width="1.0" stroke-linejoin="round" stroke-linecap="butt" d="m385.38824 334.5478c0 11.208313 4.9212646 16.81424 9.842529 22.416626c2.4606323 2.801178 4.9212646 5.6014404 6.7667236 9.101624c0.9227295 1.7500305 1.6916809 3.6750488 2.22995 5.8626404c0.06729126 0.27346802 0.13095093 0.55096436 0.19088745 0.8327942c0.029937744 0.14093018 0.05899048 0.28292847 0.08703613 0.42599487l0.038085938 0.20266724" fill-rule="evenodd"/><path fill="#000000" stroke="#000000" stroke-width="1.0" stroke-linecap="butt" d="m402.8982 373.53595l2.04599 4.374542l1.2445679 -4.6662292z" fill-rule="evenodd"/><path fill="#000000" fill-opacity="0.0" d="m395.2313 403.14413c-16.888489 0 -25.375427 0.01574707 -33.777008 0.03149414c-8.401581 0.01574707 -16.717804 0.03149414 -33.435577 0.03149414" fill-rule="evenodd"/><path stroke="#000000" stroke-width="1.0" stroke-linejoin="round" stroke-linecap="butt" d="m395.2313 403.14417c-16.888489 0 -25.375458 0.01574707 -33.777008 0.03149414c-4.2008057 0.007873535 -8.3802185 0.01574707 -13.599213 0.021636963c-2.609497 0.002960205 -5.4788513 0.005432129 -8.740723 0.0071411133l-5.095642 0.0012207031" fill-rule="evenodd"/><path fill="#000000" stroke="#000000" stroke-width="1.0" stroke-linecap="butt" d="m334.0183 401.55396l-4.5377197 1.652832l4.538513 1.6506348z" fill-rule="evenodd"/><path fill="#000000" fill-opacity="0.0" d="m428.83762 436.75043l0 16.922699l0.06298828 0l0 16.935577" fill-rule="evenodd"/><path stroke="#000000" stroke-width="1.0" stroke-linejoin="round" stroke-linecap="butt" d="m428.8376 436.75046l0 16.922699l0.0630188 0l0 10.935547" fill-rule="evenodd"/><path fill="#000000" stroke="#000000" stroke-width="1.0" stroke-linecap="butt" d="m427.24887 464.60873l1.6517334 4.538086l1.6517334 -4.538086z" fill-rule="evenodd"/><path fill="#000000" fill-opacity="0.0" d="m395.2313 504.20187c-16.803131 0 -33.606293 25.13388 -33.606293 50.26773" fill-rule="evenodd"/><path stroke="#000000" stroke-width="1.0" stroke-linejoin="round" stroke-linecap="butt" d="m395.2313 504.2019c-8.401581 0 -16.803131 6.2834473 -23.10431 15.708679c-3.1506042 4.7125854 -5.7760925 10.210632 -7.6139526 16.10138c-0.9189148 2.9453735 -1.6408997 5.9888916 -2.1331787 9.081543c-0.12307739 0.77319336 -0.23181152 1.5493774 -0.32562256 2.327942c-0.023468018 0.19464111 -0.046020508 0.38934326 -0.067596436 0.58428955l-0.049987793 0.47192383" fill-rule="evenodd"/><path fill="#000000" stroke="#000000" stroke-width="1.0" stroke-linecap="butt" d="m360.28714 548.3919l1.4137878 4.617798l1.8852234 -4.446228z" fill-rule="evenodd"/><path fill="#000000" fill-opacity="0.0" d="m462.4439 504.20187c16.803131 0 33.606293 25.13388 33.606293 50.26773" fill-rule="evenodd"/><path stroke="#000000" stroke-width="1.0" stroke-linejoin="round" stroke-linecap="butt" d="m462.4439 504.2019c8.40155 0 16.803131 6.2834473 23.10431 15.708679c3.1506042 4.7125854 5.7760925 10.210632 7.6139526 16.10138c0.9189148 2.9453735 1.6408997 5.9888916 2.1331787 9.081543c0.12307739 0.77319336 0.23181152 1.5493774 0.32562256 2.327942c0.023468018 0.19464111 0.046020508 0.38934326 0.067596436 0.58428955l0.049987793 0.47192383" fill-rule="evenodd"/><path fill="#000000" stroke="#000000" stroke-width="1.0" stroke-linecap="butt" d="m494.08905 548.5635l1.8852234 4.446228l1.4137878 -4.617798z" fill-rule="evenodd"/><path fill="#000000" fill-opacity="0.0" d="m462.4439 504.20187c12.5 0 24.992126 -25.2677 25.0 -50.53543c0.007873535 -25.26773 -12.468506 -50.53543 -24.937012 -50.53543" fill-rule="evenodd"/><path stroke="#000000" stroke-width="1.0" stroke-linejoin="round" stroke-linecap="butt" d="m462.4439 504.2019c12.5 0 24.992126 -25.26773 25.0 -50.53543c0.0039367676 -12.633881 -3.1131897 -25.26773 -7.7898865 -34.743134c-2.3383179 -4.737671 -5.066559 -8.6857605 -7.989502 -11.449432c-0.7307129 -0.69088745 -1.4735718 -1.3077698 -2.2256165 -1.8444824c-0.37600708 -0.26834106 -0.75427246 -0.5166321 -1.134491 -0.7441406l-0.050720215 -0.02960205" fill-rule="evenodd"/><path fill="#000000" stroke="#000000" stroke-width="1.0" stroke-linecap="butt" d="m468.72845 403.27365l-4.82135 0.2775879l3.8717957 2.8864746z" fill-rule="evenodd"/><path fill="#000000" fill-opacity="0.0" d="m462.4439 588.08374c-16.803162 0 -33.606293 25.133911 -33.606293 50.26776" fill-rule="evenodd"/><path stroke="#000000" stroke-width="1.0" stroke-linejoin="round" stroke-linecap="butt" d="m462.4439 588.0838c-8.401581 0 -16.803162 6.2834473 -23.10434 15.708618c-3.1506042 4.7126465 -5.7760925 10.210632 -7.613922 16.10138c-0.9189148 2.9453735 -1.6409302 5.9889526 -2.1332092 9.081604c-0.12307739 0.7731323 -0.231781 1.5493774 -0.32562256 2.3278809c-0.023468018 0.19464111 -0.046020508 0.3894043 -0.067596436 0.5843506l-0.049987793 0.47192383" fill-rule="evenodd"/><path fill="#000000" stroke="#000000" stroke-width="1.0" stroke-linecap="butt" d="m427.49973 632.2738l1.4138184 4.617798l1.8851929 -4.446228z" fill-rule="evenodd"/><path fill="#000000" fill-opacity="0.0" d="m529.6565 588.08374c16.803162 0 33.606323 25.133911 33.606323 50.26776" fill-rule="evenodd"/><path stroke="#000000" stroke-width="1.0" stroke-linejoin="round" stroke-linecap="butt" d="m529.6565 588.0838c8.40155 0 16.803162 6.2834473 23.10431 15.708618c3.1506348 4.7126465 5.776123 10.210632 7.6139526 16.10138c0.9189453 2.9453735 1.6409302 5.9889526 2.1331787 9.081604c0.12310791 0.7731323 0.23181152 1.5493774 0.32562256 2.3278809c0.023498535 0.19464111 0.046020508 0.3894043 0.06762695 0.5843506l0.049987793 0.47192383" fill-rule="evenodd"/><path fill="#000000" stroke="#000000" stroke-width="1.0" stroke-linecap="butt" d="m561.30164 632.4454l1.8852539 4.446228l1.4137573 -4.617798z" fill-rule="evenodd"/><path fill="#000000" fill-opacity="0.0" d="m529.6565 671.96564c-16.803162 0 -25.204712 0.01574707 -33.606293 0.03149414c-8.401581 0.01574707 -16.803162 0.03149414 -33.606293 0.03149414" fill-rule="evenodd"/><path stroke="#000000" stroke-width="1.0" stroke-linejoin="round" stroke-linecap="butt" d="m529.6565 671.9657c-16.803162 0 -25.204712 0.01574707 -33.606293 0.03149414c-4.2008057 0.007873535 -8.401581 0.01574707 -13.652557 0.021606445c-2.6254883 0.0029907227 -5.51355 0.005432129 -8.79541 0.0071411133l-5.158325 0.0012817383" fill-rule="evenodd"/><path fill="#000000" stroke="#000000" stroke-width="1.0" stroke-linecap="butt" d="m468.44348 670.3755l-4.537689 1.652832l4.538513 1.6506348z" fill-rule="evenodd"/><path fill="#000000" fill-opacity="0.0" d="m452.60086 695.7289c0 8.499084 21.724396 16.990295 43.44879 16.998169c21.724396 0.007873535 43.448822 -8.46759 43.448822 -16.93518" fill-rule="evenodd"/><path stroke="#000000" stroke-width="1.0" stroke-linejoin="round" stroke-linecap="butt" d="m452.60083 695.72894c0 8.499023 21.724426 16.990234 43.448822 16.998108c10.862213 0.00390625 21.724396 -2.112976 29.871063 -5.2893066c4.0733643 -1.5881958 7.4677734 -3.441162 9.843872 -5.4263306c0.29699707 -0.24822998 0.578125 -0.49835205 0.84265137 -0.75042725l0.14086914 -0.13653564" fill-rule="evenodd"/><path fill="#000000" stroke="#000000" stroke-width="1.0" stroke-linecap="butt" d="m538.21606 701.88153l0.6123047 -4.790344l-3.5482178 3.276062z" fill-rule="evenodd"/><path fill="#000000" fill-opacity="0.0" d="m472.28696 564.3205c0 -0.34265137 -21.724396 -0.69317627 -43.448822 -0.68530273c-21.724396 0.007873535 -43.448822 0.3741455 -43.448822 0.74835205" fill-rule="evenodd"/><path stroke="#000000" stroke-width="1.0" stroke-linejoin="round" stroke-linecap="butt" d="m472.28696 564.32056c0 -0.3427124 -21.724426 -0.6932373 -43.448822 -0.68536377c-10.862213 0.00390625 -21.724426 0.097473145 -29.871063 0.23675537c-2.0366516 0.034851074 -3.903595 0.0725708 -5.5584106 0.11242676l-2.0293274 0.053710938" fill-rule="evenodd"/><path fill="#000000" stroke="#000000" stroke-width="1.0" stroke-linecap="butt" d="m391.28427 562.3891l-4.435486 1.9102783l4.6256714 1.3876953z" fill-rule="evenodd"/><path fill="#000000" fill-opacity="0.0" d="m361.625 621.69006c0 66.12482 82.15146 144.15948 164.03656 132.24963c81.88513 -11.909851 163.5039 -113.76428 164.03656 -221.57361c0.5326538 -107.80939 -80.02081 -221.57367 -160.04163 -221.57367" fill-rule="evenodd"/><path stroke="#000000" stroke-width="1.0" stroke-linejoin="round" stroke-linecap="butt" d="m361.625 621.69006c0 66.12482 82.15146 144.15948 164.03656 132.24963c81.88513 -11.909851 163.5039 -113.76428 164.0365 -221.57361c0.26635742 -53.904724 -19.738892 -109.298096 -49.813232 -151.21533c-15.03717 -20.958618 -32.591675 -38.548218 -51.388123 -50.898132c-9.398254 -6.1749573 -19.106995 -11.040039 -28.966858 -14.361328c-4.9299316 -1.6606445 -9.897583 -2.9353638 -14.883179 -3.7949219c-2.4927368 -0.42977905 -4.98999 -0.7557678 -7.4891357 -0.9743042c-0.31243896 -0.027313232 -0.6248169 -0.052978516 -0.9373169 -0.0769043l-0.5675049 -0.04043579" fill-rule="evenodd"/><path fill="#000000" stroke="#000000" stroke-width="1.0" stroke-linecap="butt" d="m535.7112 309.35403l-4.593689 1.4901123l4.4768066 1.8112793z" fill-rule="evenodd"/><path fill="#000000" fill-opacity="0.0" d="m519.8134 287.0213c0 -34.04724 16.803162 -51.07086 33.606323 -68.09448c16.803162 -17.02362 33.606323 -34.04724 33.606323 -68.09448" fill-rule="evenodd"/><path stroke="#000000" stroke-width="1.0" stroke-linejoin="round" stroke-linecap="butt" d="m519.8134 287.0213c0 -34.04724 16.803162 -51.07086 33.606323 -68.09448c8.40155 -8.51181 16.803162 -17.02362 23.10431 -27.663391c3.1506348 -5.3198853 5.776123 -11.171753 7.6139526 -17.821594c0.9189453 -3.324936 1.6409302 -6.84935 2.1331787 -10.606506c0.24615479 -1.8785858 0.4348755 -3.8153534 0.56207275 -5.8144684l0.011352539 -0.19126892" fill-rule="evenodd"/><path fill="#000000" stroke="#000000" stroke-width="1.0" stroke-linecap="butt" d="m588.4956 156.87953l-1.513794 -4.5859528l-1.788147 4.4860687z" fill-rule="evenodd"/><path fill="#000000" fill-opacity="0.0" d="m472.28696 287.0213c0 -3.4778442 -21.724396 -6.963562 -43.448822 -6.9556885c-21.724396 0.007873535 -43.448822 3.5093384 -43.448822 7.0186768" fill-rule="evenodd"/><path stroke="#000000" stroke-width="1.0" stroke-linejoin="round" stroke-linecap="butt" d="m472.28696 287.0213c0 -3.4778442 -21.724426 -6.963562 -43.448822 -6.9556885c-10.862213 0.0039367676 -21.724426 0.8812866 -29.871063 2.196289c-2.0366516 0.32876587 -3.903595 0.6848755 -5.5584106 1.0615234c-0.8273926 0.18835449 -1.6017456 0.38180542 -2.317749 0.5795288l-0.5244446 0.14868164" fill-rule="evenodd"/><path fill="#000000" stroke="#000000" stroke-width="1.0" stroke-linecap="butt" d="m389.73163 282.62643l-3.080902 3.7189636l4.7506104 -0.8685303z" fill-rule="evenodd"/><path fill="#000000" fill-opacity="0.0" d="m395.2313 310.78455c16.623383 0 24.845154 0.01574707 33.246735 0.03149414c8.40155 0.01574707 16.98294 0.03149414 33.96588 0.03149414" fill-rule="evenodd"/><path stroke="#000000" stroke-width="1.0" stroke-linejoin="round" stroke-linecap="butt" d="m395.2313 310.78455c16.623352 0 24.845154 0.01574707 33.246735 0.03149414c4.200775 0.007873535 8.446503 0.01574707 13.764923 0.02166748c2.6592102 0.002960205 5.5865784 0.0054016113 8.9105835 0.0071411133l5.2903748 0.0012512207" fill-rule="evenodd"/><path fill="#000000" stroke="#000000" stroke-width="1.0" stroke-linecap="butt" d="m456.4435 312.49783l4.5384827 -1.6506348l-4.537689 -1.652832z" fill-rule="evenodd"/><path fill="#000000" fill-opacity="0.0" d="m395.2313 588.08374c16.803162 0 25.204742 0.01574707 33.606323 0.03149414c8.40155 0.01574707 16.803131 0.03149414 33.606293 0.03149414" fill-rule="evenodd"/><path stroke="#000000" stroke-width="1.0" stroke-linejoin="round" stroke-linecap="butt" d="m395.2313 588.0838c16.803162 0 25.204742 0.01574707 33.606293 0.03149414c4.2008057 0.007873535 8.401581 0.01574707 13.652557 0.02166748c2.6255188 0.0029296875 5.51355 0.0053710938 8.79541 0.007080078l5.1583557 0.0012817383" fill-rule="evenodd"/><path fill="#000000" stroke="#000000" stroke-width="1.0" stroke-linecap="butt" d="m456.4435 589.79706l4.5384827 -1.6506348l-4.537689 -1.652832z" fill-rule="evenodd"/><path fill="#000000" fill-opacity="0.0" d="m337.86176 611.847c0 17.421509 -67.9924 52.59149 -144.99387 34.842957c-77.00146 -17.748535 -163.01195 -88.41559 -144.99387 -167.95691c18.018082 -79.54132 140.06473 -167.95688 280.1295 -167.95688" fill-rule="evenodd"/><path stroke="#000000" stroke-width="1.0" stroke-linejoin="round" stroke-linecap="butt" d="m337.86176 611.847c0 17.421448 -67.9924 52.59149 -144.99387 34.842957c-77.00146 -17.748535 -163.01195 -88.41559 -144.99387 -167.95691c9.009045 -39.77069 44.025223 -81.75989 94.29725 -113.80643c25.136002 -16.023315 54.085968 -29.560883 85.50598 -39.092712c15.709991 -4.765869 32.037506 -8.530304 48.814545 -11.103302c8.388519 -1.2864685 16.889435 -2.2750854 25.48169 -2.9420776c4.296173 -0.3334961 8.615143 -0.5866089 12.954346 -0.7562866c2.1696167 -0.084869385 4.344269 -0.14889526 6.523651 -0.19168091l0.5522461 -0.009521484" fill-rule="evenodd"/><path fill="#000000" stroke="#000000" stroke-width="1.0" stroke-linecap="butt" d="m322.01886 312.4827l4.5227966 -1.6931763l-4.5530396 -1.6101379z" fill-rule="evenodd"/><path fill="#000000" fill-opacity="0.0" d="m260.80612 504.20187c28.677155 0 57.35431 -38.64566 57.35431 -77.29135" fill-rule="evenodd"/><path stroke="#000000" stroke-width="1.0" stroke-linejoin="round" stroke-linecap="butt" d="m260.8061 504.2019c14.338593 0 28.677185 -9.661438 39.43112 -24.153564c5.376953 -7.246063 9.857758 -15.699799 12.994324 -24.757385c1.5682983 -4.528778 2.8005066 -9.208527 3.640686 -13.963776c0.42004395 -2.377594 0.74212646 -4.7740784 0.95913696 -7.1799927c0.027160645 -0.3007202 0.052642822 -0.60162354 0.07647705 -0.9026489l0.024902344 -0.33828735" fill-rule="evenodd"/><path fill="#000000" stroke="#000000" stroke-width="1.0" stroke-linecap="butt" d="m319.58328 432.9689l-1.4783325 -4.5975037l-1.8227539 4.472168z" fill-rule="evenodd"/><path fill="#ffffff" d="m126.38091 588.11523l0 0c0 -18.560242 15.046043 -33.606262 33.6063 -33.606262l0 0c8.912949 0 17.46083 3.5406494 23.763245 9.843018c6.3023987 6.302429 9.843048 14.850342 9.843048 23.763245l0 0c0 18.560303 -15.046051 33.606323 -33.606293 33.606323l0 0c-18.560257 0 -33.6063 -15.0460205 -33.6063 -33.606323z" fill-rule="evenodd"/><path stroke="#000000" stroke-width="1.0" stroke-linejoin="round" stroke-linecap="butt" d="m126.38091 588.11523l0 0c0 -18.560242 15.046043 -33.606262 33.6063 -33.606262l0 0c8.912949 0 17.46083 3.5406494 23.763245 9.843018c6.3023987 6.302429 9.843048 14.850342 9.843048 23.763245l0 0c0 18.560303 -15.046051 33.606323 -33.606293 33.606323l0 0c-18.560257 0 -33.6063 -15.0460205 -33.6063 -33.606323z" fill-rule="evenodd"/><path fill="#000000" d="m147.45792 595.0259l0 -10.984375l2.328125 0l0 0.875l-1.265625 0l0 9.234375l1.265625 0l0 0.875l-2.328125 0zm8.568359 -3.40625l0 1.015625l-5.6875 0q0 -0.375 0.125 -0.734375q0.21875 -0.578125 0.6875 -1.140625q0.484375 -0.5625 1.390625 -1.296875q1.40625 -1.15625 1.890625 -1.828125q0.5 -0.671875 0.5 -1.265625q0 -0.625 -0.453125 -1.046875q-0.453125 -0.4375 -1.171875 -0.4375q-0.765625 0 -1.21875 0.453125q-0.453125 0.453125 -0.46875 1.265625l-1.078125 -0.109375q0.109375 -1.21875 0.828125 -1.84375q0.734375 -0.640625 1.96875 -0.640625q1.234375 0 1.953125 0.6875q0.71875 0.6875 0.71875 1.703125q0 0.515625 -0.21875 1.015625q-0.203125 0.484375 -0.703125 1.046875q-0.484375 0.546875 -1.609375 1.5q-0.953125 0.796875 -1.234375 1.09375q-0.265625 0.28125 -0.4375 0.5625l4.21875 0zm1.6894531 1.015625l0 -1.203125l1.203125 0l0 1.203125q0 0.65625 -0.234375 1.0625q-0.234375 0.421875 -0.734375 0.640625l-0.296875 -0.453125q0.328125 -0.140625 0.484375 -0.4375q0.15625 -0.28125 0.1875 -0.8125l-0.609375 0zm10.074219 0l-1.046875 0l0 -6.71875q-0.390625 0.359375 -1.015625 0.734375q-0.609375 0.359375 -1.09375 0.53125l0 -1.015625q0.875 -0.421875 1.53125 -1.0q0.671875 -0.59375 0.953125 -1.15625l0.671875 0l0 8.625zm4.767578 2.390625l-2.328125 0l0 -0.875l1.265625 0l0 -9.234375l-1.265625 0l0 -0.875l2.328125 0l0 10.984375z" fill-rule="nonzero"/><path fill="#000000" fill-opacity="0.0" d="m193.5935 504.20187c-28.677155 0 -57.354324 30.078766 -57.354324 60.1575" fill-rule="evenodd"/><path stroke="#000000" stroke-width="1.0" stroke-linejoin="round" stroke-linecap="butt" d="m193.5935 504.2019c-14.338577 0 -28.677155 7.519684 -39.43109 18.799194c-5.3769684 5.6397705 -9.857773 12.219482 -12.994339 19.269226c-1.5682831 3.5248413 -2.8005066 7.1671753 -3.6406555 10.868286c-0.21003723 0.92523193 -0.39556885 1.854187 -0.5557251 2.7858887c-0.080078125 0.46588135 -0.1538086 0.9324341 -0.2210846 1.3995361c-0.03364563 0.23352051 -0.06567383 0.46722412 -0.096069336 0.7010498l-0.042526245 0.34588623" fill-rule="evenodd"/><path fill="#000000" stroke="#000000" stroke-width="1.0" stroke-linecap="butt" d="m134.96347 558.2683l1.3665466 4.631958l1.930542 -4.4266357z" fill-rule="evenodd"/><path fill="#000000" fill-opacity="0.0" d="m193.5935 588.11523c59.992294 0 94.77985 -46.24408 119.98459 -92.48816c25.204712 -46.24411 40.8266 -92.48819 81.6532 -92.48819" fill-rule="evenodd"/><path stroke="#000000" stroke-width="1.0" stroke-linejoin="round" stroke-linecap="butt" d="m193.5935 588.1153c59.992294 0 94.77985 -46.24408 119.98459 -92.48819c12.602356 -23.12207 22.80899 -46.24411 34.968414 -63.585632c6.0796814 -8.670776 12.6475525 -15.896423 20.247162 -20.954376c3.7998047 -2.5289307 7.857544 -4.5160217 12.24118 -5.870819c2.191803 -0.6773987 4.4651184 -1.1967468 6.8283386 -1.5467529c0.29541016 -0.04373169 0.5922241 -0.08483887 0.8904724 -0.1232605c0.14910889 -0.019226074 0.29855347 -0.03778076 0.44839478 -0.055664062l0.039276123 -0.0045166016" fill-rule="evenodd"/><path fill="#000000" stroke="#000000" stroke-width="1.0" stroke-linecap="butt" d="m389.33694 405.13507l4.434906 -1.91156l-4.626068 -1.386383z" fill-rule="evenodd"/><path fill="#000000" fill-opacity="0.0" d="m193.5935 588.11523c28.67717 0 57.35434 -30.078735 57.35434 -60.15747" fill-rule="evenodd"/><path stroke="#000000" stroke-width="1.0" stroke-linejoin="round" stroke-linecap="butt" d="m193.5935 588.1153c14.338577 0 28.67717 -7.5197144 39.431107 -18.799255c5.3769684 -5.6397095 9.857773 -12.219482 12.994339 -19.269165c1.5682831 -3.5248413 2.8005066 -7.1671753 3.6406555 -10.868286c0.21003723 -0.92529297 0.39556885 -1.854248 0.5557251 -2.7858887c0.080062866 -0.46588135 0.1538086 -0.9324341 0.2210846 -1.3995361c0.03364563 -0.23358154 0.06565857 -0.46722412 0.096069336 -0.70111084l0.042526245 -0.34588623" fill-rule="evenodd"/><path fill="#000000" stroke="#000000" stroke-width="1.0" stroke-linecap="butt" d="m252.22354 534.0488l-1.3665466 -4.631958l-1.9305267 4.426697z" fill-rule="evenodd"/><path fill="#000000" fill-opacity="0.0" d="m183.75046 611.8785c0 -5.525818 32.87079 -3.1359253 55.330536 -11.051697c22.459747 -7.9157715 34.508484 -26.137268 55.330536 -48.31665c20.822083 -22.179382 50.41751 -48.31668 100.83499 -48.31668" fill-rule="evenodd"/><path stroke="#000000" stroke-width="1.0" stroke-linejoin="round" stroke-linecap="butt" d="m183.75046 611.8785c0 -5.525818 32.87079 -3.1359253 55.330536 -11.051697c22.459747 -7.9157715 34.508484 -26.137268 55.330536 -48.31665c10.411072 -11.089722 23.015442 -23.168823 39.319214 -32.475586c8.1519165 -4.6533813 17.228668 -8.613647 27.418549 -11.410614c5.09494 -1.398468 10.468109 -2.506073 16.143158 -3.2640686c2.8375244 -0.37902832 5.7504883 -0.67059326 8.741821 -0.86746216c0.7478943 -0.049194336 1.5006409 -0.09249878 2.2583008 -0.12973022l0.95526123 -0.043029785" fill-rule="evenodd"/><path fill="#000000" stroke="#000000" stroke-width="1.0" stroke-linecap="butt" d="m389.2826 505.971l4.50235 -1.7468262l-4.5718384 -1.5559082z" fill-rule="evenodd"/></g></svg>