<svg version="1.1" viewBox="0.0 0.0 960.0 720.0" fill="none" stroke="none" stroke-linecap="square" stroke-miterlimit="10" xmlns:xlink="http://www.w3.org/1999/xlink" xmlns="http://www.w3.org/2000/svg"><clipPath id="p.0"><path d="m0 0l960.0 0l0 720.0l-960.0 0l0 -720.0z" clip-rule="nonzero"/></clipPath><g clip-path="url(#p.0)"><path fill="#000000" fill-opacity="0.0" d="m0 0l960.0 0l0 720.0l-960.0 0z" fill-rule="evenodd"/><path fill="#ffffff" d="m308.56882 188.57011l68.566925 0l0 68.56694l-68.566925 0z" fill-rule="evenodd"/><path stroke="#000000" stroke-width="2.0" stroke-linejoin="round" stroke-linecap="butt" d="m308.56882 188.57011l68.566925 0l0 68.56694l-68.566925 0z" fill-rule="evenodd"/><path fill="#ffffff" d="m514.2831 188.57011l68.566956 0l0 68.56694l-68.566956 0z" fill-rule="evenodd"/><path stroke="#000000" stroke-width="2.0" stroke-linejoin="round" stroke-linecap="butt" d="m514.2831 188.57011l68.566956 0l0 68.56694l-68.566956 0z" fill-rule="evenodd"/><path fill="#ffffff" d="m445.71167 257.14154l68.566895 0l0 68.566925l-68.566895 0z" fill-rule="evenodd"/><path stroke="#000000" stroke-width="2.0" stroke-linejoin="round" stroke-linecap="butt" d="m445.71167 257.14154l68.566895 0l0 68.566925l-68.566895 0z" fill-rule="evenodd"/><path fill="#ffffff" d="m514.2831 257.14154l68.566956 0l0 68.566925l-68.566956 0z" fill-rule="evenodd"/><path stroke="#000000" stroke-width="2.0" stroke-linejoin="round" stroke-linecap="butt" d="m514.2831 257.14154l68.566956 0l0 68.566925l-68.566956 0z" fill-rule="evenodd"/><path fill="#ffffff" d="m308.56882 325.71298l68.566925 0l0 68.566925l-68.566925 0z" fill-rule="evenodd"/><path stroke="#000000" stroke-width="2.0" stroke-linejoin="round" stroke-linecap="butt" d="m308.56882 325.71298l68.566925 0l0 68.566925l-68.566925 0z" fill-rule="evenodd"/><path fill="#ffffff" d="m377.14023 325.71298l68.566925 0l0 68.566925l-68.566925 0z" fill-rule="evenodd"/><path stroke="#000000" stroke-width="2.0" stroke-linejoin="round" stroke-linecap="butt" d="m377.14023 325.71298l68.566925 0l0 68.566925l-68.566925 0z" fill-rule="evenodd"/><path fill="#ffffff" d="m445.71167 325.71298l68.566895 0l0 68.566925l-68.566895 0z" fill-rule="evenodd"/><path stroke="#000000" stroke-width="2.0" stroke-linejoin="round" stroke-linecap="butt" d="m445.71167 325.71298l68.566895 0l0 68.566925l-68.566895 0z" fill-rule="evenodd"/><path fill="#ffffff" d="m582.8545 325.71298l68.566956 0l0 68.566925l-68.566956 0z" fill-rule="evenodd"/><path stroke="#000000" stroke-width="2.0" stroke-linejoin="round" stroke-linecap="butt" d="m582.8545 325.71298l68.566956 0l0 68.566925l-68.566956 0z" fill-rule="evenodd"/><path fill="#ffffff" d="m445.71167 394.2844l68.566895 0l0 68.566925l-68.566895 0z" fill-rule="evenodd"/><path stroke="#000000" stroke-width="2.0" stroke-linejoin="round" stroke-linecap="butt" d="m445.71167 394.2844l68.566895 0l0 68.566925l-68.566895 0z" fill-rule="evenodd"/><path fill="#f6b26b" d="m239.99892 119.99906l68.5728 0l0 68.57281l-68.5728 0z" fill-rule="evenodd"/><path stroke="#666666" stroke-width="3.0" stroke-linejoin="round" stroke-linecap="butt" d="m239.99892 119.99906l68.5728 0l0 68.57281l-68.5728 0z" fill-rule="evenodd"/><path fill="#f6b26b" d="m240.43575 120.27279l34.286392 0l0 17.143196l-34.286392 0z" fill-rule="evenodd"/><path stroke="#666666" stroke-width="3.0" stroke-linejoin="round" stroke-linecap="butt" d="m240.43575 120.27279l34.286392 0l0 17.143196l-34.286392 0z" fill-rule="evenodd"/><path fill="#f6b26b" d="m274.2853 120.27279l34.286407 0l0 17.143196l-34.286407 0z" fill-rule="evenodd"/><path stroke="#666666" stroke-width="3.0" stroke-linejoin="round" stroke-linecap="butt" d="m274.2853 120.27279l34.286407 0l0 17.143196l-34.286407 0z" fill-rule="evenodd"/><path fill="#f6b26b" d="m257.14212 137.41599l34.286407 0l0 17.143204l-34.286407 0z" fill-rule="evenodd"/><path stroke="#666666" stroke-width="3.0" stroke-linejoin="round" stroke-linecap="butt" d="m257.14212 137.41599l34.286407 0l0 17.143204l-34.286407 0z" fill-rule="evenodd"/><path fill="#f6b26b" d="m240.43575 154.42232l34.286392 0l0 17.143204l-34.286392 0z" fill-rule="evenodd"/><path stroke="#666666" stroke-width="3.0" stroke-linejoin="round" stroke-linecap="butt" d="m240.43575 154.42232l34.286392 0l0 17.143204l-34.286392 0z" fill-rule="evenodd"/><path fill="#f6b26b" d="m274.2853 154.42232l34.286407 0l0 17.143204l-34.286407 0z" fill-rule="evenodd"/><path stroke="#666666" stroke-width="3.0" stroke-linejoin="round" stroke-linecap="butt" d="m274.2853 154.42232l34.286407 0l0 17.143204l-34.286407 0z" fill-rule="evenodd"/><path fill="#f6b26b" d="m257.14212 171.42867l34.286407 0l0 17.143204l-34.286407 0z" fill-rule="evenodd"/><path stroke="#666666" stroke-width="3.0" stroke-linejoin="round" stroke-linecap="butt" d="m257.14212 171.42867l34.286407 0l0 17.143204l-34.286407 0z" fill-rule="evenodd"/><path fill="#f6b26b" d="m308.57034 119.99906l68.572815 0l0 68.57281l-68.572815 0z" fill-rule="evenodd"/><path stroke="#666666" stroke-width="3.0" stroke-linejoin="round" stroke-linecap="butt" d="m308.57034 119.99906l68.572815 0l0 68.57281l-68.572815 0z" fill-rule="evenodd"/><path fill="#f6b26b" d="m309.00717 120.27279l34.286407 0l0 17.143196l-34.286407 0z" fill-rule="evenodd"/><path stroke="#666666" stroke-width="3.0" stroke-linejoin="round" stroke-linecap="butt" d="m309.00717 120.27279l34.286407 0l0 17.143196l-34.286407 0z" fill-rule="evenodd"/><path fill="#f6b26b" d="m342.85675 120.27279l34.286407 0l0 17.143196l-34.286407 0z" fill-rule="evenodd"/><path stroke="#666666" stroke-width="3.0" stroke-linejoin="round" stroke-linecap="butt" d="m342.85675 120.27279l34.286407 0l0 17.143196l-34.286407 0z" fill-rule="evenodd"/><path fill="#f6b26b" d="m325.71356 137.41599l34.286377 0l0 17.143204l-34.286377 0z" fill-rule="evenodd"/><path stroke="#666666" stroke-width="3.0" stroke-linejoin="round" stroke-linecap="butt" d="m325.71356 137.41599l34.286377 0l0 17.143204l-34.286377 0z" fill-rule="evenodd"/><path fill="#f6b26b" d="m309.00717 154.42232l34.286407 0l0 17.143204l-34.286407 0z" fill-rule="evenodd"/><path stroke="#666666" stroke-width="3.0" stroke-linejoin="round" stroke-linecap="butt" d="m309.00717 154.42232l34.286407 0l0 17.143204l-34.286407 0z" fill-rule="evenodd"/><path fill="#f6b26b" d="m342.85675 154.42232l34.286407 0l0 17.143204l-34.286407 0z" fill-rule="evenodd"/><path stroke="#666666" stroke-width="3.0" stroke-linejoin="round" stroke-linecap="butt" d="m342.85675 154.42232l34.286407 0l0 17.143204l-34.286407 0z" fill-rule="evenodd"/><path fill="#f6b26b" d="m325.71356 171.42867l34.286377 0l0 17.143204l-34.286377 0z" fill-rule="evenodd"/><path stroke="#666666" stroke-width="3.0" stroke-linejoin="round" stroke-linecap="butt" d="m325.71356 171.42867l34.286377 0l0 17.143204l-34.286377 0z" fill-rule="evenodd"/><path fill="#f6b26b" d="m377.14178 119.99906l68.572784 0l0 68.57281l-68.572784 0z" fill-rule="evenodd"/><path stroke="#666666" stroke-width="3.0" stroke-linejoin="round" stroke-linecap="butt" d="m377.14178 119.99906l68.572784 0l0 68.57281l-68.572784 0z" fill-rule="evenodd"/><path fill="#f6b26b" d="m377.5786 120.27279l34.286377 0l0 17.143196l-34.286377 0z" fill-rule="evenodd"/><path stroke="#666666" stroke-width="3.0" stroke-linejoin="round" stroke-linecap="butt" d="m377.5786 120.27279l34.286377 0l0 17.143196l-34.286377 0z" fill-rule="evenodd"/><path fill="#f6b26b" d="m411.42816 120.27279l34.286407 0l0 17.143196l-34.286407 0z" fill-rule="evenodd"/><path stroke="#666666" stroke-width="3.0" stroke-linejoin="round" stroke-linecap="butt" d="m411.42816 120.27279l34.286407 0l0 17.143196l-34.286407 0z" fill-rule="evenodd"/><path fill="#f6b26b" d="m394.28497 137.41599l34.286407 0l0 17.143204l-34.286407 0z" fill-rule="evenodd"/><path stroke="#666666" stroke-width="3.0" stroke-linejoin="round" stroke-linecap="butt" d="m394.28497 137.41599l34.286407 0l0 17.143204l-34.286407 0z" fill-rule="evenodd"/><path fill="#f6b26b" d="m377.5786 154.42232l34.286377 0l0 17.143204l-34.286377 0z" fill-rule="evenodd"/><path stroke="#666666" stroke-width="3.0" stroke-linejoin="round" stroke-linecap="butt" d="m377.5786 154.42232l34.286377 0l0 17.143204l-34.286377 0z" fill-rule="evenodd"/><path fill="#f6b26b" d="m411.42816 154.42232l34.286407 0l0 17.143204l-34.286407 0z" fill-rule="evenodd"/><path stroke="#666666" stroke-width="3.0" stroke-linejoin="round" stroke-linecap="butt" d="m411.42816 154.42232l34.286407 0l0 17.143204l-34.286407 0z" fill-rule="evenodd"/><path fill="#f6b26b" d="m394.28497 171.42867l34.286407 0l0 17.143204l-34.286407 0z" fill-rule="evenodd"/><path stroke="#666666" stroke-width="3.0" stroke-linejoin="round" stroke-linecap="butt" d="m394.28497 171.42867l34.286407 0l0 17.143204l-34.286407 0z" fill-rule="evenodd"/><path fill="#f6b26b" d="m445.7132 119.99906l68.572815 0l0 68.57281l-68.572815 0z" fill-rule="evenodd"/><path stroke="#666666" stroke-width="3.0" stroke-linejoin="round" stroke-linecap="butt" d="m445.7132 119.99906l68.572815 0l0 68.57281l-68.572815 0z" fill-rule="evenodd"/><path fill="#f6b26b" d="m446.15002 120.27279l34.286407 0l0 17.143196l-34.286407 0z" fill-rule="evenodd"/><path stroke="#666666" stroke-width="3.0" stroke-linejoin="round" stroke-linecap="butt" d="m446.15002 120.27279l34.286407 0l0 17.143196l-34.286407 0z" fill-rule="evenodd"/><path fill="#f6b26b" d="m479.9996 120.27279l34.286407 0l0 17.143196l-34.286407 0z" fill-rule="evenodd"/><path stroke="#666666" stroke-width="3.0" stroke-linejoin="round" stroke-linecap="butt" d="m479.9996 120.27279l34.286407 0l0 17.143196l-34.286407 0z" fill-rule="evenodd"/><path fill="#f6b26b" d="m462.8564 137.41599l34.286377 0l0 17.143204l-34.286377 0z" fill-rule="evenodd"/><path stroke="#666666" stroke-width="3.0" stroke-linejoin="round" stroke-linecap="butt" d="m462.8564 137.41599l34.286377 0l0 17.143204l-34.286377 0z" fill-rule="evenodd"/><path fill="#f6b26b" d="m446.15002 154.42232l34.286407 0l0 17.143204l-34.286407 0z" fill-rule="evenodd"/><path stroke="#666666" stroke-width="3.0" stroke-linejoin="round" stroke-linecap="butt" d="m446.15002 154.42232l34.286407 0l0 17.143204l-34.286407 0z" fill-rule="evenodd"/><path fill="#f6b26b" d="m479.9996 154.42232l34.286407 0l0 17.143204l-34.286407 0z" fill-rule="evenodd"/><path stroke="#666666" stroke-width="3.0" stroke-linejoin="round" stroke-linecap="butt" d="m479.9996 154.42232l34.286407 0l0 17.143204l-34.286407 0z" fill-rule="evenodd"/><path fill="#f6b26b" d="m462.8564 171.42867l34.286377 0l0 17.143204l-34.286377 0z" fill-rule="evenodd"/><path stroke="#666666" stroke-width="3.0" stroke-linejoin="round" stroke-linecap="butt" d="m462.8564 171.42867l34.286377 0l0 17.143204l-34.286377 0z" fill-rule="evenodd"/><path fill="#f6b26b" d="m514.2846 119.99906l68.572815 0l0 68.57281l-68.572815 0z" fill-rule="evenodd"/><path stroke="#666666" stroke-width="3.0" stroke-linejoin="round" stroke-linecap="butt" d="m514.2846 119.99906l68.572815 0l0 68.57281l-68.572815 0z" fill-rule="evenodd"/><path fill="#f6b26b" d="m514.72144 120.27279l34.286438 0l0 17.143196l-34.286438 0z" fill-rule="evenodd"/><path stroke="#666666" stroke-width="3.0" stroke-linejoin="round" stroke-linecap="butt" d="m514.72144 120.27279l34.286438 0l0 17.143196l-34.286438 0z" fill-rule="evenodd"/><path fill="#f6b26b" d="m548.57104 120.27279l34.286377 0l0 17.143196l-34.286377 0z" fill-rule="evenodd"/><path stroke="#666666" stroke-width="3.0" stroke-linejoin="round" stroke-linecap="butt" d="m548.57104 120.27279l34.286377 0l0 17.143196l-34.286377 0z" fill-rule="evenodd"/><path fill="#f6b26b" d="m531.42786 137.41599l34.286377 0l0 17.143204l-34.286377 0z" fill-rule="evenodd"/><path stroke="#666666" stroke-width="3.0" stroke-linejoin="round" stroke-linecap="butt" d="m531.42786 137.41599l34.286377 0l0 17.143204l-34.286377 0z" fill-rule="evenodd"/><path fill="#f6b26b" d="m514.72144 154.42232l34.286438 0l0 17.143204l-34.286438 0z" fill-rule="evenodd"/><path stroke="#666666" stroke-width="3.0" stroke-linejoin="round" stroke-linecap="butt" d="m514.72144 154.42232l34.286438 0l0 17.143204l-34.286438 0z" fill-rule="evenodd"/><path fill="#f6b26b" d="m548.57104 154.42232l34.286377 0l0 17.143204l-34.286377 0z" fill-rule="evenodd"/><path stroke="#666666" stroke-width="3.0" stroke-linejoin="round" stroke-linecap="butt" d="m548.57104 154.42232l34.286377 0l0 17.143204l-34.286377 0z" fill-rule="evenodd"/><path fill="#f6b26b" d="m531.42786 171.42867l34.286377 0l0 17.143204l-34.286377 0z" fill-rule="evenodd"/><path stroke="#666666" stroke-width="3.0" stroke-linejoin="round" stroke-linecap="butt" d="m531.42786 171.42867l34.286377 0l0 17.143204l-34.286377 0z" fill-rule="evenodd"/><path fill="#f6b26b" d="m582.8561 119.99906l68.572754 0l0 68.57281l-68.572754 0z" fill-rule="evenodd"/><path stroke="#666666" stroke-width="3.0" stroke-linejoin="round" stroke-linecap="butt" d="m582.8561 119.99906l68.572754 0l0 68.57281l-68.572754 0z" fill-rule="evenodd"/><path fill="#f6b26b" d="m583.2929 120.27279l34.286377 0l0 17.143196l-34.286377 0z" fill-rule="evenodd"/><path stroke="#666666" stroke-width="3.0" stroke-linejoin="round" stroke-linecap="butt" d="m583.2929 120.27279l34.286377 0l0 17.143196l-34.286377 0z" fill-rule="evenodd"/><path fill="#f6b26b" d="m617.14246 120.27279l34.286377 0l0 17.143196l-34.286377 0z" fill-rule="evenodd"/><path stroke="#666666" stroke-width="3.0" stroke-linejoin="round" stroke-linecap="butt" d="m617.14246 120.27279l34.286377 0l0 17.143196l-34.286377 0z" fill-rule="evenodd"/><path fill="#f6b26b" d="m599.99927 137.41599l34.286377 0l0 17.143204l-34.286377 0z" fill-rule="evenodd"/><path stroke="#666666" stroke-width="3.0" stroke-linejoin="round" stroke-linecap="butt" d="m599.99927 137.41599l34.286377 0l0 17.143204l-34.286377 0z" fill-rule="evenodd"/><path fill="#f6b26b" d="m583.2929 154.42232l34.286377 0l0 17.143204l-34.286377 0z" fill-rule="evenodd"/><path stroke="#666666" stroke-width="3.0" stroke-linejoin="round" stroke-linecap="butt" d="m583.2929 154.42232l34.286377 0l0 17.143204l-34.286377 0z" fill-rule="evenodd"/><path fill="#f6b26b" d="m617.14246 154.42232l34.286377 0l0 17.143204l-34.286377 0z" fill-rule="evenodd"/><path stroke="#666666" stroke-width="3.0" stroke-linejoin="round" stroke-linecap="butt" d="m617.14246 154.42232l34.286377 0l0 17.143204l-34.286377 0z" fill-rule="evenodd"/><path fill="#f6b26b" d="m599.99927 171.42867l34.286377 0l0 17.143204l-34.286377 0z" fill-rule="evenodd"/><path stroke="#666666" stroke-width="3.0" stroke-linejoin="round" stroke-linecap="butt" d="m599.99927 171.42867l34.286377 0l0 17.143204l-34.286377 0z" fill-rule="evenodd"/><path fill="#f6b26b" d="m651.4275 119.99906l68.572815 0l0 68.57281l-68.572815 0z" fill-rule="evenodd"/><path stroke="#666666" stroke-width="3.0" stroke-linejoin="round" stroke-linecap="butt" d="m651.4275 119.99906l68.572815 0l0 68.57281l-68.572815 0z" fill-rule="evenodd"/><path fill="#f6b26b" d="m651.8643 120.27279l34.286377 0l0 17.143196l-34.286377 0z" fill-rule="evenodd"/><path stroke="#666666" stroke-width="3.0" stroke-linejoin="round" stroke-linecap="butt" d="m651.8643 120.27279l34.286377 0l0 17.143196l-34.286377 0z" fill-rule="evenodd"/><path fill="#f6b26b" d="m685.71387 120.27279l34.286438 0l0 17.143196l-34.286438 0z" fill-rule="evenodd"/><path stroke="#666666" stroke-width="3.0" stroke-linejoin="round" stroke-linecap="butt" d="m685.71387 120.27279l34.286438 0l0 17.143196l-34.286438 0z" fill-rule="evenodd"/><path fill="#f6b26b" d="m668.5707 137.41599l34.286438 0l0 17.143204l-34.286438 0z" fill-rule="evenodd"/><path stroke="#666666" stroke-width="3.0" stroke-linejoin="round" stroke-linecap="butt" d="m668.5707 137.41599l34.286438 0l0 17.143204l-34.286438 0z" fill-rule="evenodd"/><path fill="#f6b26b" d="m651.8643 154.42232l34.286377 0l0 17.143204l-34.286377 0z" fill-rule="evenodd"/><path stroke="#666666" stroke-width="3.0" stroke-linejoin="round" stroke-linecap="butt" d="m651.8643 154.42232l34.286377 0l0 17.143204l-34.286377 0z" fill-rule="evenodd"/><path fill="#f6b26b" d="m685.71387 154.42232l34.286438 0l0 17.143204l-34.286438 0z" fill-rule="evenodd"/><path stroke="#666666" stroke-width="3.0" stroke-linejoin="round" stroke-linecap="butt" d="m685.71387 154.42232l34.286438 0l0 17.143204l-34.286438 0z" fill-rule="evenodd"/><path fill="#f6b26b" d="m668.5707 171.42867l34.286438 0l0 17.143204l-34.286438 0z" fill-rule="evenodd"/><path stroke="#666666" stroke-width="3.0" stroke-linejoin="round" stroke-linecap="butt" d="m668.5707 171.42867l34.286438 0l0 17.143204l-34.286438 0z" fill-rule="evenodd"/><path fill="#f6b26b" d="m239.99892 188.5705l68.5728 0l0 68.572784l-68.5728 0z" fill-rule="evenodd"/><path stroke="#666666" stroke-width="3.0" stroke-linejoin="round" stroke-linecap="butt" d="m239.99892 188.5705l68.5728 0l0 68.572784l-68.5728 0z" fill-rule="evenodd"/><path fill="#f6b26b" d="m240.43575 188.84421l34.286392 0l0 17.143204l-34.286392 0z" fill-rule="evenodd"/><path stroke="#666666" stroke-width="3.0" stroke-linejoin="round" stroke-linecap="butt" d="m240.43575 188.84421l34.286392 0l0 17.143204l-34.286392 0z" fill-rule="evenodd"/><path fill="#f6b26b" d="m274.2853 188.84421l34.286407 0l0 17.143204l-34.286407 0z" fill-rule="evenodd"/><path stroke="#666666" stroke-width="3.0" stroke-linejoin="round" stroke-linecap="butt" d="m274.2853 188.84421l34.286407 0l0 17.143204l-34.286407 0z" fill-rule="evenodd"/><path fill="#f6b26b" d="m257.14212 205.98741l34.286407 0l0 17.143204l-34.286407 0z" fill-rule="evenodd"/><path stroke="#666666" stroke-width="3.0" stroke-linejoin="round" stroke-linecap="butt" d="m257.14212 205.98741l34.286407 0l0 17.143204l-34.286407 0z" fill-rule="evenodd"/><path fill="#f6b26b" d="m240.43575 222.99376l34.286392 0l0 17.143188l-34.286392 0z" fill-rule="evenodd"/><path stroke="#666666" stroke-width="3.0" stroke-linejoin="round" stroke-linecap="butt" d="m240.43575 222.99376l34.286392 0l0 17.143188l-34.286392 0z" fill-rule="evenodd"/><path fill="#f6b26b" d="m274.2853 222.99376l34.286407 0l0 17.143188l-34.286407 0z" fill-rule="evenodd"/><path stroke="#666666" stroke-width="3.0" stroke-linejoin="round" stroke-linecap="butt" d="m274.2853 222.99376l34.286407 0l0 17.143188l-34.286407 0z" fill-rule="evenodd"/><path fill="#f6b26b" d="m257.14212 240.00009l34.286407 0l0 17.143188l-34.286407 0z" fill-rule="evenodd"/><path stroke="#666666" stroke-width="3.0" stroke-linejoin="round" stroke-linecap="butt" d="m257.14212 240.00009l34.286407 0l0 17.143188l-34.286407 0z" fill-rule="evenodd"/><path fill="#f6b26b" d="m239.99892 257.1419l68.5728 0l0 68.572815l-68.5728 0z" fill-rule="evenodd"/><path stroke="#666666" stroke-width="3.0" stroke-linejoin="round" stroke-linecap="butt" d="m239.99892 257.1419l68.5728 0l0 68.572815l-68.5728 0z" fill-rule="evenodd"/><path fill="#f6b26b" d="m240.43575 257.41565l34.286392 0l0 17.143188l-34.286392 0z" fill-rule="evenodd"/><path stroke="#666666" stroke-width="3.0" stroke-linejoin="round" stroke-linecap="butt" d="m240.43575 257.41565l34.286392 0l0 17.143188l-34.286392 0z" fill-rule="evenodd"/><path fill="#f6b26b" d="m274.2853 257.41565l34.286407 0l0 17.143188l-34.286407 0z" fill-rule="evenodd"/><path stroke="#666666" stroke-width="3.0" stroke-linejoin="round" stroke-linecap="butt" d="m274.2853 257.41565l34.286407 0l0 17.143188l-34.286407 0z" fill-rule="evenodd"/><path fill="#f6b26b" d="m257.14212 274.55884l34.286407 0l0 17.143219l-34.286407 0z" fill-rule="evenodd"/><path stroke="#666666" stroke-width="3.0" stroke-linejoin="round" stroke-linecap="butt" d="m257.14212 274.55884l34.286407 0l0 17.143219l-34.286407 0z" fill-rule="evenodd"/><path fill="#f6b26b" d="m240.43575 291.5652l34.286392 0l0 17.143188l-34.286392 0z" fill-rule="evenodd"/><path stroke="#666666" stroke-width="3.0" stroke-linejoin="round" stroke-linecap="butt" d="m240.43575 291.5652l34.286392 0l0 17.143188l-34.286392 0z" fill-rule="evenodd"/><path fill="#f6b26b" d="m274.2853 291.5652l34.286407 0l0 17.143188l-34.286407 0z" fill-rule="evenodd"/><path stroke="#666666" stroke-width="3.0" stroke-linejoin="round" stroke-linecap="butt" d="m274.2853 291.5652l34.286407 0l0 17.143188l-34.286407 0z" fill-rule="evenodd"/><path fill="#f6b26b" d="m257.14212 308.57153l34.286407 0l0 17.143188l-34.286407 0z" fill-rule="evenodd"/><path stroke="#666666" stroke-width="3.0" stroke-linejoin="round" stroke-linecap="butt" d="m257.14212 308.57153l34.286407 0l0 17.143188l-34.286407 0z" fill-rule="evenodd"/><path fill="#f6b26b" d="m239.99892 325.71335l68.5728 0l0 68.572815l-68.5728 0z" fill-rule="evenodd"/><path stroke="#666666" stroke-width="3.0" stroke-linejoin="round" stroke-linecap="butt" d="m239.99892 325.71335l68.5728 0l0 68.572815l-68.5728 0z" fill-rule="evenodd"/><path fill="#f6b26b" d="m240.43575 325.98706l34.286392 0l0 17.143219l-34.286392 0z" fill-rule="evenodd"/><path stroke="#666666" stroke-width="3.0" stroke-linejoin="round" stroke-linecap="butt" d="m240.43575 325.98706l34.286392 0l0 17.143219l-34.286392 0z" fill-rule="evenodd"/><path fill="#f6b26b" d="m274.2853 325.98706l34.286407 0l0 17.143219l-34.286407 0z" fill-rule="evenodd"/><path stroke="#666666" stroke-width="3.0" stroke-linejoin="round" stroke-linecap="butt" d="m274.2853 325.98706l34.286407 0l0 17.143219l-34.286407 0z" fill-rule="evenodd"/><path fill="#f6b26b" d="m257.14212 343.13028l34.286407 0l0 17.143188l-34.286407 0z" fill-rule="evenodd"/><path stroke="#666666" stroke-width="3.0" stroke-linejoin="round" stroke-linecap="butt" d="m257.14212 343.13028l34.286407 0l0 17.143188l-34.286407 0z" fill-rule="evenodd"/><path fill="#f6b26b" d="m240.43575 360.1366l34.286392 0l0 17.143219l-34.286392 0z" fill-rule="evenodd"/><path stroke="#666666" stroke-width="3.0" stroke-linejoin="round" stroke-linecap="butt" d="m240.43575 360.1366l34.286392 0l0 17.143219l-34.286392 0z" fill-rule="evenodd"/><path fill="#f6b26b" d="m274.2853 360.1366l34.286407 0l0 17.143219l-34.286407 0z" fill-rule="evenodd"/><path stroke="#666666" stroke-width="3.0" stroke-linejoin="round" stroke-linecap="butt" d="m274.2853 360.1366l34.286407 0l0 17.143219l-34.286407 0z" fill-rule="evenodd"/><path fill="#f6b26b" d="m257.14212 377.14294l34.286407 0l0 17.143219l-34.286407 0z" fill-rule="evenodd"/><path stroke="#666666" stroke-width="3.0" stroke-linejoin="round" stroke-linecap="butt" d="m257.14212 377.14294l34.286407 0l0 17.143219l-34.286407 0z" fill-rule="evenodd"/><path fill="#f6b26b" d="m239.99892 394.2848l68.5728 0l0 68.572784l-68.5728 0z" fill-rule="evenodd"/><path stroke="#666666" stroke-width="3.0" stroke-linejoin="round" stroke-linecap="butt" d="m239.99892 394.2848l68.5728 0l0 68.572784l-68.5728 0z" fill-rule="evenodd"/><path fill="#f6b26b" d="m240.43575 394.5585l34.286392 0l0 17.143188l-34.286392 0z" fill-rule="evenodd"/><path stroke="#666666" stroke-width="3.0" stroke-linejoin="round" stroke-linecap="butt" d="m240.43575 394.5585l34.286392 0l0 17.143188l-34.286392 0z" fill-rule="evenodd"/><path fill="#f6b26b" d="m274.2853 394.5585l34.286407 0l0 17.143188l-34.286407 0z" fill-rule="evenodd"/><path stroke="#666666" stroke-width="3.0" stroke-linejoin="round" stroke-linecap="butt" d="m274.2853 394.5585l34.286407 0l0 17.143188l-34.286407 0z" fill-rule="evenodd"/><path fill="#f6b26b" d="m257.14212 411.7017l34.286407 0l0 17.143219l-34.286407 0z" fill-rule="evenodd"/><path stroke="#666666" stroke-width="3.0" stroke-linejoin="round" stroke-linecap="butt" d="m257.14212 411.7017l34.286407 0l0 17.143219l-34.286407 0z" fill-rule="evenodd"/><path fill="#f6b26b" d="m240.43575 428.70804l34.286392 0l0 17.143188l-34.286392 0z" fill-rule="evenodd"/><path stroke="#666666" stroke-width="3.0" stroke-linejoin="round" stroke-linecap="butt" d="m240.43575 428.70804l34.286392 0l0 17.143188l-34.286392 0z" fill-rule="evenodd"/><path fill="#f6b26b" d="m274.2853 428.70804l34.286407 0l0 17.143188l-34.286407 0z" fill-rule="evenodd"/><path stroke="#666666" stroke-width="3.0" stroke-linejoin="round" stroke-linecap="butt" d="m274.2853 428.70804l34.286407 0l0 17.143188l-34.286407 0z" fill-rule="evenodd"/><path fill="#f6b26b" d="m257.14212 445.7144l34.286407 0l0 17.143188l-34.286407 0z" fill-rule="evenodd"/><path stroke="#666666" stroke-width="3.0" stroke-linejoin="round" stroke-linecap="butt" d="m257.14212 445.7144l34.286407 0l0 17.143188l-34.286407 0z" fill-rule="evenodd"/><path fill="#f6b26b" d="m239.99892 462.8562l68.5728 0l0 68.572815l-68.5728 0z" fill-rule="evenodd"/><path stroke="#666666" stroke-width="3.0" stroke-linejoin="round" stroke-linecap="butt" d="m239.99892 462.8562l68.5728 0l0 68.572815l-68.5728 0z" fill-rule="evenodd"/><path fill="#f6b26b" d="m240.43575 463.12994l34.286392 0l0 17.143188l-34.286392 0z" fill-rule="evenodd"/><path stroke="#666666" stroke-width="3.0" stroke-linejoin="round" stroke-linecap="butt" d="m240.43575 463.12994l34.286392 0l0 17.143188l-34.286392 0z" fill-rule="evenodd"/><path fill="#f6b26b" d="m274.2853 463.12994l34.286407 0l0 17.143188l-34.286407 0z" fill-rule="evenodd"/><path stroke="#666666" stroke-width="3.0" stroke-linejoin="round" stroke-linecap="butt" d="m274.2853 463.12994l34.286407 0l0 17.143188l-34.286407 0z" fill-rule="evenodd"/><path fill="#f6b26b" d="m257.14212 480.27313l34.286407 0l0 17.143188l-34.286407 0z" fill-rule="evenodd"/><path stroke="#666666" stroke-width="3.0" stroke-linejoin="round" stroke-linecap="butt" d="m257.14212 480.27313l34.286407 0l0 17.143188l-34.286407 0z" fill-rule="evenodd"/><path fill="#f6b26b" d="m240.43575 497.27948l34.286392 0l0 17.143188l-34.286392 0z" fill-rule="evenodd"/><path stroke="#666666" stroke-width="3.0" stroke-linejoin="round" stroke-linecap="butt" d="m240.43575 497.27948l34.286392 0l0 17.143188l-34.286392 0z" fill-rule="evenodd"/><path fill="#f6b26b" d="m274.2853 497.27948l34.286407 0l0 17.143188l-34.286407 0z" fill-rule="evenodd"/><path stroke="#666666" stroke-width="3.0" stroke-linejoin="round" stroke-linecap="butt" d="m274.2853 497.27948l34.286407 0l0 17.143188l-34.286407 0z" fill-rule="evenodd"/><path fill="#f6b26b" d="m257.14212 514.2858l34.286407 0l0 17.143188l-34.286407 0z" fill-rule="evenodd"/><path stroke="#666666" stroke-width="3.0" stroke-linejoin="round" stroke-linecap="butt" d="m257.14212 514.2858l34.286407 0l0 17.143188l-34.286407 0z" fill-rule="evenodd"/><path fill="#f6b26b" d="m308.57034 531.4276l68.572815 0l0 68.572815l-68.572815 0z" fill-rule="evenodd"/><path stroke="#666666" stroke-width="3.0" stroke-linejoin="round" stroke-linecap="butt" d="m308.57034 531.4276l68.572815 0l0 68.572815l-68.572815 0z" fill-rule="evenodd"/><path fill="#f6b26b" d="m309.00717 531.70135l34.286407 0l0 17.143188l-34.286407 0z" fill-rule="evenodd"/><path stroke="#666666" stroke-width="3.0" stroke-linejoin="round" stroke-linecap="butt" d="m309.00717 531.70135l34.286407 0l0 17.143188l-34.286407 0z" fill-rule="evenodd"/><path fill="#f6b26b" d="m342.85675 531.70135l34.286407 0l0 17.143188l-34.286407 0z" fill-rule="evenodd"/><path stroke="#666666" stroke-width="3.0" stroke-linejoin="round" stroke-linecap="butt" d="m342.85675 531.70135l34.286407 0l0 17.143188l-34.286407 0z" fill-rule="evenodd"/><path fill="#f6b26b" d="m325.71356 548.84454l34.286377 0l0 17.143188l-34.286377 0z" fill-rule="evenodd"/><path stroke="#666666" stroke-width="3.0" stroke-linejoin="round" stroke-linecap="butt" d="m325.71356 548.84454l34.286377 0l0 17.143188l-34.286377 0z" fill-rule="evenodd"/><path fill="#f6b26b" d="m309.00717 565.8509l34.286407 0l0 17.143188l-34.286407 0z" fill-rule="evenodd"/><path stroke="#666666" stroke-width="3.0" stroke-linejoin="round" stroke-linecap="butt" d="m309.00717 565.8509l34.286407 0l0 17.143188l-34.286407 0z" fill-rule="evenodd"/><path fill="#f6b26b" d="m342.85675 565.8509l34.286407 0l0 17.143188l-34.286407 0z" fill-rule="evenodd"/><path stroke="#666666" stroke-width="3.0" stroke-linejoin="round" stroke-linecap="butt" d="m342.85675 565.8509l34.286407 0l0 17.143188l-34.286407 0z" fill-rule="evenodd"/><path fill="#f6b26b" d="m325.71356 582.85724l34.286377 0l0 17.143188l-34.286377 0z" fill-rule="evenodd"/><path stroke="#666666" stroke-width="3.0" stroke-linejoin="round" stroke-linecap="butt" d="m325.71356 582.85724l34.286377 0l0 17.143188l-34.286377 0z" fill-rule="evenodd"/><path fill="#f6b26b" d="m377.14178 531.4276l68.572784 0l0 68.572815l-68.572784 0z" fill-rule="evenodd"/><path stroke="#666666" stroke-width="3.0" stroke-linejoin="round" stroke-linecap="butt" d="m377.14178 531.4276l68.572784 0l0 68.572815l-68.572784 0z" fill-rule="evenodd"/><path fill="#f6b26b" d="m377.5786 531.70135l34.286377 0l0 17.143188l-34.286377 0z" fill-rule="evenodd"/><path stroke="#666666" stroke-width="3.0" stroke-linejoin="round" stroke-linecap="butt" d="m377.5786 531.70135l34.286377 0l0 17.143188l-34.286377 0z" fill-rule="evenodd"/><path fill="#f6b26b" d="m411.42816 531.70135l34.286407 0l0 17.143188l-34.286407 0z" fill-rule="evenodd"/><path stroke="#666666" stroke-width="3.0" stroke-linejoin="round" stroke-linecap="butt" d="m411.42816 531.70135l34.286407 0l0 17.143188l-34.286407 0z" fill-rule="evenodd"/><path fill="#f6b26b" d="m394.28497 548.84454l34.286407 0l0 17.143188l-34.286407 0z" fill-rule="evenodd"/><path stroke="#666666" stroke-width="3.0" stroke-linejoin="round" stroke-linecap="butt" d="m394.28497 548.84454l34.286407 0l0 17.143188l-34.286407 0z" fill-rule="evenodd"/><path fill="#f6b26b" d="m377.5786 565.8509l34.286377 0l0 17.143188l-34.286377 0z" fill-rule="evenodd"/><path stroke="#666666" stroke-width="3.0" stroke-linejoin="round" stroke-linecap="butt" d="m377.5786 565.8509l34.286377 0l0 17.143188l-34.286377 0z" fill-rule="evenodd"/><path fill="#f6b26b" d="m411.42816 565.8509l34.286407 0l0 17.143188l-34.286407 0z" fill-rule="evenodd"/><path stroke="#666666" stroke-width="3.0" stroke-linejoin="round" stroke-linecap="butt" d="m411.42816 565.8509l34.286407 0l0 17.143188l-34.286407 0z" fill-rule="evenodd"/><path fill="#f6b26b" d="m394.28497 582.85724l34.286407 0l0 17.143188l-34.286407 0z" fill-rule="evenodd"/><path stroke="#666666" stroke-width="3.0" stroke-linejoin="round" stroke-linecap="butt" d="m394.28497 582.85724l34.286407 0l0 17.143188l-34.286407 0z" fill-rule="evenodd"/><path fill="#f6b26b" d="m445.7132 531.4276l68.572815 0l0 68.572815l-68.572815 0z" fill-rule="evenodd"/><path stroke="#666666" stroke-width="3.0" stroke-linejoin="round" stroke-linecap="butt" d="m445.7132 531.4276l68.572815 0l0 68.572815l-68.572815 0z" fill-rule="evenodd"/><path fill="#f6b26b" d="m446.15002 531.70135l34.286407 0l0 17.143188l-34.286407 0z" fill-rule="evenodd"/><path stroke="#666666" stroke-width="3.0" stroke-linejoin="round" stroke-linecap="butt" d="m446.15002 531.70135l34.286407 0l0 17.143188l-34.286407 0z" fill-rule="evenodd"/><path fill="#f6b26b" d="m479.9996 531.70135l34.286407 0l0 17.143188l-34.286407 0z" fill-rule="evenodd"/><path stroke="#666666" stroke-width="3.0" stroke-linejoin="round" stroke-linecap="butt" d="m479.9996 531.70135l34.286407 0l0 17.143188l-34.286407 0z" fill-rule="evenodd"/><path fill="#f6b26b" d="m462.8564 548.84454l34.286377 0l0 17.143188l-34.286377 0z" fill-rule="evenodd"/><path stroke="#666666" stroke-width="3.0" stroke-linejoin="round" stroke-linecap="butt" d="m462.8564 548.84454l34.286377 0l0 17.143188l-34.286377 0z" fill-rule="evenodd"/><path fill="#f6b26b" d="m446.15002 565.8509l34.286407 0l0 17.143188l-34.286407 0z" fill-rule="evenodd"/><path stroke="#666666" stroke-width="3.0" stroke-linejoin="round" stroke-linecap="butt" d="m446.15002 565.8509l34.286407 0l0 17.143188l-34.286407 0z" fill-rule="evenodd"/><path fill="#f6b26b" d="m479.9996 565.8509l34.286407 0l0 17.143188l-34.286407 0z" fill-rule="evenodd"/><path stroke="#666666" stroke-width="3.0" stroke-linejoin="round" stroke-linecap="butt" d="m479.9996 565.8509l34.286407 0l0 17.143188l-34.286407 0z" fill-rule="evenodd"/><path fill="#f6b26b" d="m462.8564 582.85724l34.286377 0l0 17.143188l-34.286377 0z" fill-rule="evenodd"/><path stroke="#666666" stroke-width="3.0" stroke-linejoin="round" stroke-linecap="butt" d="m462.8564 582.85724l34.286377 0l0 17.143188l-34.286377 0z" fill-rule="evenodd"/><path fill="#f6b26b" d="m514.2846 531.4276l68.572815 0l0 68.572815l-68.572815 0z" fill-rule="evenodd"/><path stroke="#666666" stroke-width="3.0" stroke-linejoin="round" stroke-linecap="butt" d="m514.2846 531.4276l68.572815 0l0 68.572815l-68.572815 0z" fill-rule="evenodd"/><path fill="#f6b26b" d="m514.72144 531.70135l34.286438 0l0 17.143188l-34.286438 0z" fill-rule="evenodd"/><path stroke="#666666" stroke-width="3.0" stroke-linejoin="round" stroke-linecap="butt" d="m514.72144 531.70135l34.286438 0l0 17.143188l-34.286438 0z" fill-rule="evenodd"/><path fill="#f6b26b" d="m548.57104 531.70135l34.286377 0l0 17.143188l-34.286377 0z" fill-rule="evenodd"/><path stroke="#666666" stroke-width="3.0" stroke-linejoin="round" stroke-linecap="butt" d="m548.57104 531.70135l34.286377 0l0 17.143188l-34.286377 0z" fill-rule="evenodd"/><path fill="#f6b26b" d="m531.42786 548.84454l34.286377 0l0 17.143188l-34.286377 0z" fill-rule="evenodd"/><path stroke="#666666" stroke-width="3.0" stroke-linejoin="round" stroke-linecap="butt" d="m531.42786 548.84454l34.286377 0l0 17.143188l-34.286377 0z" fill-rule="evenodd"/><path fill="#f6b26b" d="m514.72144 565.8509l34.286438 0l0 17.143188l-34.286438 0z" fill-rule="evenodd"/><path stroke="#666666" stroke-width="3.0" stroke-linejoin="round" stroke-linecap="butt" d="m514.72144 565.8509l34.286438 0l0 17.143188l-34.286438 0z" fill-rule="evenodd"/><path fill="#f6b26b" d="m548.57104 565.8509l34.286377 0l0 17.143188l-34.286377 0z" fill-rule="evenodd"/><path stroke="#666666" stroke-width="3.0" stroke-linejoin="round" stroke-linecap="butt" d="m548.57104 565.8509l34.286377 0l0 17.143188l-34.286377 0z" fill-rule="evenodd"/><path fill="#f6b26b" d="m531.42786 582.85724l34.286377 0l0 17.143188l-34.286377 0z" fill-rule="evenodd"/><path stroke="#666666" stroke-width="3.0" stroke-linejoin="round" stroke-linecap="butt" d="m531.42786 582.85724l34.286377 0l0 17.143188l-34.286377 0z" fill-rule="evenodd"/><path fill="#f6b26b" d="m582.8561 531.4276l68.572754 0l0 68.572815l-68.572754 0z" fill-rule="evenodd"/><path stroke="#666666" stroke-width="3.0" stroke-linejoin="round" stroke-linecap="butt" d="m582.8561 531.4276l68.572754 0l0 68.572815l-68.572754 0z" fill-rule="evenodd"/><path fill="#f6b26b" d="m583.2929 531.70135l34.286377 0l0 17.143188l-34.286377 0z" fill-rule="evenodd"/><path stroke="#666666" stroke-width="3.0" stroke-linejoin="round" stroke-linecap="butt" d="m583.2929 531.70135l34.286377 0l0 17.143188l-34.286377 0z" fill-rule="evenodd"/><path fill="#f6b26b" d="m617.14246 531.70135l34.286377 0l0 17.143188l-34.286377 0z" fill-rule="evenodd"/><path stroke="#666666" stroke-width="3.0" stroke-linejoin="round" stroke-linecap="butt" d="m617.14246 531.70135l34.286377 0l0 17.143188l-34.286377 0z" fill-rule="evenodd"/><path fill="#f6b26b" d="m599.99927 548.84454l34.286377 0l0 17.143188l-34.286377 0z" fill-rule="evenodd"/><path stroke="#666666" stroke-width="3.0" stroke-linejoin="round" stroke-linecap="butt" d="m599.99927 548.84454l34.286377 0l0 17.143188l-34.286377 0z" fill-rule="evenodd"/><path fill="#f6b26b" d="m583.2929 565.8509l34.286377 0l0 17.143188l-34.286377 0z" fill-rule="evenodd"/><path stroke="#666666" stroke-width="3.0" stroke-linejoin="round" stroke-linecap="butt" d="m583.2929 565.8509l34.286377 0l0 17.143188l-34.286377 0z" fill-rule="evenodd"/><path fill="#f6b26b" d="m617.14246 565.8509l34.286377 0l0 17.143188l-34.286377 0z" fill-rule="evenodd"/><path stroke="#666666" stroke-width="3.0" stroke-linejoin="round" stroke-linecap="butt" d="m617.14246 565.8509l34.286377 0l0 17.143188l-34.286377 0z" fill-rule="evenodd"/><path fill="#f6b26b" d="m599.99927 582.85724l34.286377 0l0 17.143188l-34.286377 0z" fill-rule="evenodd"/><path stroke="#666666" stroke-width="3.0" stroke-linejoin="round" stroke-linecap="butt" d="m599.99927 582.85724l34.286377 0l0 17.143188l-34.286377 0z" fill-rule="evenodd"/><path fill="#ffffff" d="m308.56882 462.85583l68.566925 0l0 68.566895l-68.566925 0z" fill-rule="evenodd"/><path stroke="#000000" stroke-width="2.0" stroke-linejoin="round" stroke-linecap="butt" d="m308.56882 462.85583l68.566925 0l0 68.566895l-68.566925 0z" fill-rule="evenodd"/><path fill="#ffffff" d="m445.71167 462.85583l68.566895 0l0 68.566895l-68.566895 0z" fill-rule="evenodd"/><path stroke="#000000" stroke-width="2.0" stroke-linejoin="round" stroke-linecap="butt" d="m445.71167 462.85583l68.566895 0l0 68.566895l-68.566895 0z" fill-rule="evenodd"/><path fill="#ffffff" d="m377.14322 188.56975l68.566956 0l0 68.56691l-68.566956 0z" fill-rule="evenodd"/><path stroke="#000000" stroke-width="2.0" stroke-linejoin="round" stroke-linecap="butt" d="m377.14322 188.56975l68.566956 0l0 68.56691l-68.566956 0z" fill-rule="evenodd"/><path fill="#f6b26b" d="m239.99892 531.4276l68.5728 0l0 68.572815l-68.5728 0z" fill-rule="evenodd"/><path stroke="#666666" stroke-width="3.0" stroke-linejoin="round" stroke-linecap="butt" d="m239.99892 531.4276l68.5728 0l0 68.572815l-68.5728 0z" fill-rule="evenodd"/><path fill="#f6b26b" d="m240.43575 531.70135l34.286392 0l0 17.143188l-34.286392 0z" fill-rule="evenodd"/><path stroke="#666666" stroke-width="3.0" stroke-linejoin="round" stroke-linecap="butt" d="m240.43575 531.70135l34.286392 0l0 17.143188l-34.286392 0z" fill-rule="evenodd"/><path fill="#f6b26b" d="m274.2853 531.70135l34.286407 0l0 17.143188l-34.286407 0z" fill-rule="evenodd"/><path stroke="#666666" stroke-width="3.0" stroke-linejoin="round" stroke-linecap="butt" d="m274.2853 531.70135l34.286407 0l0 17.143188l-34.286407 0z" fill-rule="evenodd"/><path fill="#f6b26b" d="m257.14212 548.84454l34.286407 0l0 17.143188l-34.286407 0z" fill-rule="evenodd"/><path stroke="#666666" stroke-width="3.0" stroke-linejoin="round" stroke-linecap="butt" d="m257.14212 548.84454l34.286407 0l0 17.143188l-34.286407 0z" fill-rule="evenodd"/><path fill="#f6b26b" d="m240.43575 565.8509l34.286392 0l0 17.143188l-34.286392 0z" fill-rule="evenodd"/><path stroke="#666666" stroke-width="3.0" stroke-linejoin="round" stroke-linecap="butt" d="m240.43575 565.8509l34.286392 0l0 17.143188l-34.286392 0z" fill-rule="evenodd"/><path fill="#f6b26b" d="m274.2853 565.8509l34.286407 0l0 17.143188l-34.286407 0z" fill-rule="evenodd"/><path stroke="#666666" stroke-width="3.0" stroke-linejoin="round" stroke-linecap="butt" d="m274.2853 565.8509l34.286407 0l0 17.143188l-34.286407 0z" fill-rule="evenodd"/><path fill="#f6b26b" d="m257.14212 582.85724l34.286407 0l0 17.143188l-34.286407 0z" fill-rule="evenodd"/><path stroke="#666666" stroke-width="3.0" stroke-linejoin="round" stroke-linecap="butt" d="m257.14212 582.85724l34.286407 0l0 17.143188l-34.286407 0z" fill-rule="evenodd"/><path fill="#f6b26b" d="m377.14178 394.2848l68.572784 0l0 68.572784l-68.572784 0z" fill-rule="evenodd"/><path stroke="#666666" stroke-width="3.0" stroke-linejoin="round" stroke-linecap="butt" d="m377.14178 394.2848l68.572784 0l0 68.572784l-68.572784 0z" fill-rule="evenodd"/><path fill="#f6b26b" d="m377.5786 394.5585l34.286377 0l0 17.143188l-34.286377 0z" fill-rule="evenodd"/><path stroke="#666666" stroke-width="3.0" stroke-linejoin="round" stroke-linecap="butt" d="m377.5786 394.5585l34.286377 0l0 17.143188l-34.286377 0z" fill-rule="evenodd"/><path fill="#f6b26b" d="m411.42816 394.5585l34.286407 0l0 17.143188l-34.286407 0z" fill-rule="evenodd"/><path stroke="#666666" stroke-width="3.0" stroke-linejoin="round" stroke-linecap="butt" d="m411.42816 394.5585l34.286407 0l0 17.143188l-34.286407 0z" fill-rule="evenodd"/><path fill="#f6b26b" d="m394.28497 411.7017l34.286407 0l0 17.143219l-34.286407 0z" fill-rule="evenodd"/><path stroke="#666666" stroke-width="3.0" stroke-linejoin="round" stroke-linecap="butt" d="m394.28497 411.7017l34.286407 0l0 17.143219l-34.286407 0z" fill-rule="evenodd"/><path fill="#f6b26b" d="m377.5786 428.70804l34.286377 0l0 17.143188l-34.286377 0z" fill-rule="evenodd"/><path stroke="#666666" stroke-width="3.0" stroke-linejoin="round" stroke-linecap="butt" d="m377.5786 428.70804l34.286377 0l0 17.143188l-34.286377 0z" fill-rule="evenodd"/><path fill="#f6b26b" d="m411.42816 428.70804l34.286407 0l0 17.143188l-34.286407 0z" fill-rule="evenodd"/><path stroke="#666666" stroke-width="3.0" stroke-linejoin="round" stroke-linecap="butt" d="m411.42816 428.70804l34.286407 0l0 17.143188l-34.286407 0z" fill-rule="evenodd"/><path fill="#f6b26b" d="m394.28497 445.7144l34.286407 0l0 17.143188l-34.286407 0z" fill-rule="evenodd"/><path stroke="#666666" stroke-width="3.0" stroke-linejoin="round" stroke-linecap="butt" d="m394.28497 445.7144l34.286407 0l0 17.143188l-34.286407 0z" fill-rule="evenodd"/><path fill="#f6b26b" d="m651.4275 188.5705l68.572815 0l0 68.572784l-68.572815 0z" fill-rule="evenodd"/><path stroke="#666666" stroke-width="3.0" stroke-linejoin="round" stroke-linecap="butt" d="m651.4275 188.5705l68.572815 0l0 68.572784l-68.572815 0z" fill-rule="evenodd"/><path fill="#f6b26b" d="m651.8643 188.84421l34.286377 0l0 17.143204l-34.286377 0z" fill-rule="evenodd"/><path stroke="#666666" stroke-width="3.0" stroke-linejoin="round" stroke-linecap="butt" d="m651.8643 188.84421l34.286377 0l0 17.143204l-34.286377 0z" fill-rule="evenodd"/><path fill="#f6b26b" d="m685.71387 188.84421l34.286438 0l0 17.143204l-34.286438 0z" fill-rule="evenodd"/><path stroke="#666666" stroke-width="3.0" stroke-linejoin="round" stroke-linecap="butt" d="m685.71387 188.84421l34.286438 0l0 17.143204l-34.286438 0z" fill-rule="evenodd"/><path fill="#f6b26b" d="m668.5707 205.98741l34.286438 0l0 17.143204l-34.286438 0z" fill-rule="evenodd"/><path stroke="#666666" stroke-width="3.0" stroke-linejoin="round" stroke-linecap="butt" d="m668.5707 205.98741l34.286438 0l0 17.143204l-34.286438 0z" fill-rule="evenodd"/><path fill="#f6b26b" d="m651.8643 222.99376l34.286377 0l0 17.143188l-34.286377 0z" fill-rule="evenodd"/><path stroke="#666666" stroke-width="3.0" stroke-linejoin="round" stroke-linecap="butt" d="m651.8643 222.99376l34.286377 0l0 17.143188l-34.286377 0z" fill-rule="evenodd"/><path fill="#f6b26b" d="m685.71387 222.99376l34.286438 0l0 17.143188l-34.286438 0z" fill-rule="evenodd"/><path stroke="#666666" stroke-width="3.0" stroke-linejoin="round" stroke-linecap="butt" d="m685.71387 222.99376l34.286438 0l0 17.143188l-34.286438 0z" fill-rule="evenodd"/><path fill="#f6b26b" d="m668.5707 240.00009l34.286438 0l0 17.143188l-34.286438 0z" fill-rule="evenodd"/><path stroke="#666666" stroke-width="3.0" stroke-linejoin="round" stroke-linecap="butt" d="m668.5707 240.00009l34.286438 0l0 17.143188l-34.286438 0z" fill-rule="evenodd"/><path fill="#f6b26b" d="m651.4275 257.1419l68.572815 0l0 68.572815l-68.572815 0z" fill-rule="evenodd"/><path stroke="#666666" stroke-width="3.0" stroke-linejoin="round" stroke-linecap="butt" d="m651.4275 257.1419l68.572815 0l0 68.572815l-68.572815 0z" fill-rule="evenodd"/><path fill="#f6b26b" d="m651.8643 257.41565l34.286377 0l0 17.143188l-34.286377 0z" fill-rule="evenodd"/><path stroke="#666666" stroke-width="3.0" stroke-linejoin="round" stroke-linecap="butt" d="m651.8643 257.41565l34.286377 0l0 17.143188l-34.286377 0z" fill-rule="evenodd"/><path fill="#f6b26b" d="m685.71387 257.41565l34.286438 0l0 17.143188l-34.286438 0z" fill-rule="evenodd"/><path stroke="#666666" stroke-width="3.0" stroke-linejoin="round" stroke-linecap="butt" d="m685.71387 257.41565l34.286438 0l0 17.143188l-34.286438 0z" fill-rule="evenodd"/><path fill="#f6b26b" d="m668.5707 274.55884l34.286438 0l0 17.143219l-34.286438 0z" fill-rule="evenodd"/><path stroke="#666666" stroke-width="3.0" stroke-linejoin="round" stroke-linecap="butt" d="m668.5707 274.55884l34.286438 0l0 17.143219l-34.286438 0z" fill-rule="evenodd"/><path fill="#f6b26b" d="m651.8643 291.5652l34.286377 0l0 17.143188l-34.286377 0z" fill-rule="evenodd"/><path stroke="#666666" stroke-width="3.0" stroke-linejoin="round" stroke-linecap="butt" d="m651.8643 291.5652l34.286377 0l0 17.143188l-34.286377 0z" fill-rule="evenodd"/><path fill="#f6b26b" d="m685.71387 291.5652l34.286438 0l0 17.143188l-34.286438 0z" fill-rule="evenodd"/><path stroke="#666666" stroke-width="3.0" stroke-linejoin="round" stroke-linecap="butt" d="m685.71387 291.5652l34.286438 0l0 17.143188l-34.286438 0z" fill-rule="evenodd"/><path fill="#f6b26b" d="m668.5707 308.57153l34.286438 0l0 17.143188l-34.286438 0z" fill-rule="evenodd"/><path stroke="#666666" stroke-width="3.0" stroke-linejoin="round" stroke-linecap="butt" d="m668.5707 308.57153l34.286438 0l0 17.143188l-34.286438 0z" fill-rule="evenodd"/><path fill="#f6b26b" d="m651.4275 325.71335l68.572815 0l0 68.572815l-68.572815 0z" fill-rule="evenodd"/><path stroke="#666666" stroke-width="3.0" stroke-linejoin="round" stroke-linecap="butt" d="m651.4275 325.71335l68.572815 0l0 68.572815l-68.572815 0z" fill-rule="evenodd"/><path fill="#f6b26b" d="m651.8643 325.98706l34.286377 0l0 17.143219l-34.286377 0z" fill-rule="evenodd"/><path stroke="#666666" stroke-width="3.0" stroke-linejoin="round" stroke-linecap="butt" d="m651.8643 325.98706l34.286377 0l0 17.143219l-34.286377 0z" fill-rule="evenodd"/><path fill="#f6b26b" d="m685.71387 325.98706l34.286438 0l0 17.143219l-34.286438 0z" fill-rule="evenodd"/><path stroke="#666666" stroke-width="3.0" stroke-linejoin="round" stroke-linecap="butt" d="m685.71387 325.98706l34.286438 0l0 17.143219l-34.286438 0z" fill-rule="evenodd"/><path fill="#f6b26b" d="m668.5707 343.13028l34.286438 0l0 17.143188l-34.286438 0z" fill-rule="evenodd"/><path stroke="#666666" stroke-width="3.0" stroke-linejoin="round" stroke-linecap="butt" d="m668.5707 343.13028l34.286438 0l0 17.143188l-34.286438 0z" fill-rule="evenodd"/><path fill="#f6b26b" d="m651.8643 360.1366l34.286377 0l0 17.143219l-34.286377 0z" fill-rule="evenodd"/><path stroke="#666666" stroke-width="3.0" stroke-linejoin="round" stroke-linecap="butt" d="m651.8643 360.1366l34.286377 0l0 17.143219l-34.286377 0z" fill-rule="evenodd"/><path fill="#f6b26b" d="m685.71387 360.1366l34.286438 0l0 17.143219l-34.286438 0z" fill-rule="evenodd"/><path stroke="#666666" stroke-width="3.0" stroke-linejoin="round" stroke-linecap="butt" d="m685.71387 360.1366l34.286438 0l0 17.143219l-34.286438 0z" fill-rule="evenodd"/><path fill="#f6b26b" d="m668.5707 377.14294l34.286438 0l0 17.143219l-34.286438 0z" fill-rule="evenodd"/><path stroke="#666666" stroke-width="3.0" stroke-linejoin="round" stroke-linecap="butt" d="m668.5707 377.14294l34.286438 0l0 17.143219l-34.286438 0z" fill-rule="evenodd"/><path fill="#f6b26b" d="m651.4275 394.2848l68.572815 0l0 68.572784l-68.572815 0z" fill-rule="evenodd"/><path stroke="#666666" stroke-width="3.0" stroke-linejoin="round" stroke-linecap="butt" d="m651.4275 394.2848l68.572815 0l0 68.572784l-68.572815 0z" fill-rule="evenodd"/><path fill="#f6b26b" d="m651.8643 394.5585l34.286377 0l0 17.143188l-34.286377 0z" fill-rule="evenodd"/><path stroke="#666666" stroke-width="3.0" stroke-linejoin="round" stroke-linecap="butt" d="m651.8643 394.5585l34.286377 0l0 17.143188l-34.286377 0z" fill-rule="evenodd"/><path fill="#f6b26b" d="m685.71387 394.5585l34.286438 0l0 17.143188l-34.286438 0z" fill-rule="evenodd"/><path stroke="#666666" stroke-width="3.0" stroke-linejoin="round" stroke-linecap="butt" d="m685.71387 394.5585l34.286438 0l0 17.143188l-34.286438 0z" fill-rule="evenodd"/><path fill="#f6b26b" d="m668.5707 411.7017l34.286438 0l0 17.143219l-34.286438 0z" fill-rule="evenodd"/><path stroke="#666666" stroke-width="3.0" stroke-linejoin="round" stroke-linecap="butt" d="m668.5707 411.7017l34.286438 0l0 17.143219l-34.286438 0z" fill-rule="evenodd"/><path fill="#f6b26b" d="m651.8643 428.70804l34.286377 0l0 17.143188l-34.286377 0z" fill-rule="evenodd"/><path stroke="#666666" stroke-width="3.0" stroke-linejoin="round" stroke-linecap="butt" d="m651.8643 428.70804l34.286377 0l0 17.143188l-34.286377 0z" fill-rule="evenodd"/><path fill="#f6b26b" d="m685.71387 428.70804l34.286438 0l0 17.143188l-34.286438 0z" fill-rule="evenodd"/><path stroke="#666666" stroke-width="3.0" stroke-linejoin="round" stroke-linecap="butt" d="m685.71387 428.70804l34.286438 0l0 17.143188l-34.286438 0z" fill-rule="evenodd"/><path fill="#f6b26b" d="m668.5707 445.7144l34.286438 0l0 17.143188l-34.286438 0z" fill-rule="evenodd"/><path stroke="#666666" stroke-width="3.0" stroke-linejoin="round" stroke-linecap="butt" d="m668.5707 445.7144l34.286438 0l0 17.143188l-34.286438 0z" fill-rule="evenodd"/><path fill="#f6b26b" d="m651.4275 462.8562l68.572815 0l0 68.572815l-68.572815 0z" fill-rule="evenodd"/><path stroke="#666666" stroke-width="3.0" stroke-linejoin="round" stroke-linecap="butt" d="m651.4275 462.8562l68.572815 0l0 68.572815l-68.572815 0z" fill-rule="evenodd"/><path fill="#f6b26b" d="m651.8643 463.12994l34.286377 0l0 17.143188l-34.286377 0z" fill-rule="evenodd"/><path stroke="#666666" stroke-width="3.0" stroke-linejoin="round" stroke-linecap="butt" d="m651.8643 463.12994l34.286377 0l0 17.143188l-34.286377 0z" fill-rule="evenodd"/><path fill="#f6b26b" d="m685.71387 463.12994l34.286438 0l0 17.143188l-34.286438 0z" fill-rule="evenodd"/><path stroke="#666666" stroke-width="3.0" stroke-linejoin="round" stroke-linecap="butt" d="m685.71387 463.12994l34.286438 0l0 17.143188l-34.286438 0z" fill-rule="evenodd"/><path fill="#f6b26b" d="m668.5707 480.27313l34.286438 0l0 17.143188l-34.286438 0z" fill-rule="evenodd"/><path stroke="#666666" stroke-width="3.0" stroke-linejoin="round" stroke-linecap="butt" d="m668.5707 480.27313l34.286438 0l0 17.143188l-34.286438 0z" fill-rule="evenodd"/><path fill="#f6b26b" d="m651.8643 497.27948l34.286377 0l0 17.143188l-34.286377 0z" fill-rule="evenodd"/><path stroke="#666666" stroke-width="3.0" stroke-linejoin="round" stroke-linecap="butt" d="m651.8643 497.27948l34.286377 0l0 17.143188l-34.286377 0z" fill-rule="evenodd"/><path fill="#f6b26b" d="m685.71387 497.27948l34.286438 0l0 17.143188l-34.286438 0z" fill-rule="evenodd"/><path stroke="#666666" stroke-width="3.0" stroke-linejoin="round" stroke-linecap="butt" d="m685.71387 497.27948l34.286438 0l0 17.143188l-34.286438 0z" fill-rule="evenodd"/><path fill="#f6b26b" d="m668.5707 514.2858l34.286438 0l0 17.143188l-34.286438 0z" fill-rule="evenodd"/><path stroke="#666666" stroke-width="3.0" stroke-linejoin="round" stroke-linecap="butt" d="m668.5707 514.2858l34.286438 0l0 17.143188l-34.286438 0z" fill-rule="evenodd"/><path fill="#f6b26b" d="m651.4275 531.4276l68.572815 0l0 68.572815l-68.572815 0z" fill-rule="evenodd"/><path stroke="#666666" stroke-width="3.0" stroke-linejoin="round" stroke-linecap="butt" d="m651.4275 531.4276l68.572815 0l0 68.572815l-68.572815 0z" fill-rule="evenodd"/><path fill="#f6b26b" d="m651.8643 531.70135l34.286377 0l0 17.143188l-34.286377 0z" fill-rule="evenodd"/><path stroke="#666666" stroke-width="3.0" stroke-linejoin="round" stroke-linecap="butt" d="m651.8643 531.70135l34.286377 0l0 17.143188l-34.286377 0z" fill-rule="evenodd"/><path fill="#f6b26b" d="m685.71387 531.70135l34.286438 0l0 17.143188l-34.286438 0z" fill-rule="evenodd"/><path stroke="#666666" stroke-width="3.0" stroke-linejoin="round" stroke-linecap="butt" d="m685.71387 531.70135l34.286438 0l0 17.143188l-34.286438 0z" fill-rule="evenodd"/><path fill="#f6b26b" d="m668.5707 548.84454l34.286438 0l0 17.143188l-34.286438 0z" fill-rule="evenodd"/><path stroke="#666666" stroke-width="3.0" stroke-linejoin="round" stroke-linecap="butt" d="m668.5707 548.84454l34.286438 0l0 17.143188l-34.286438 0z" fill-rule="evenodd"/><path fill="#f6b26b" d="m651.8643 565.8509l34.286377 0l0 17.143188l-34.286377 0z" fill-rule="evenodd"/><path stroke="#666666" stroke-width="3.0" stroke-linejoin="round" stroke-linecap="butt" d="m651.8643 565.8509l34.286377 0l0 17.143188l-34.286377 0z" fill-rule="evenodd"/><path fill="#f6b26b" d="m685.71387 565.8509l34.286438 0l0 17.143188l-34.286438 0z" fill-rule="evenodd"/><path stroke="#666666" stroke-width="3.0" stroke-linejoin="round" stroke-linecap="butt" d="m685.71387 565.8509l34.286438 0l0 17.143188l-34.286438 0z" fill-rule="evenodd"/><path fill="#f6b26b" d="m668.5707 582.85724l34.286438 0l0 17.143188l-34.286438 0z" fill-rule="evenodd"/><path stroke="#666666" stroke-width="3.0" stroke-linejoin="round" stroke-linecap="butt" d="m668.5707 582.85724l34.286438 0l0 17.143188l-34.286438 0z" fill-rule="evenodd"/><path fill="#f6b26b" d="m582.8561 394.2848l68.572754 0l0 68.572784l-68.572754 0z" fill-rule="evenodd"/><path stroke="#666666" stroke-width="3.0" stroke-linejoin="round" stroke-linecap="butt" d="m582.8561 394.2848l68.572754 0l0 68.572784l-68.572754 0z" fill-rule="evenodd"/><path fill="#f6b26b" d="m583.2929 394.5585l34.286377 0l0 17.143188l-34.286377 0z" fill-rule="evenodd"/><path stroke="#666666" stroke-width="3.0" stroke-linejoin="round" stroke-linecap="butt" d="m583.2929 394.5585l34.286377 0l0 17.143188l-34.286377 0z" fill-rule="evenodd"/><path fill="#f6b26b" d="m617.14246 394.5585l34.286377 0l0 17.143188l-34.286377 0z" fill-rule="evenodd"/><path stroke="#666666" stroke-width="3.0" stroke-linejoin="round" stroke-linecap="butt" d="m617.14246 394.5585l34.286377 0l0 17.143188l-34.286377 0z" fill-rule="evenodd"/><path fill="#f6b26b" d="m599.99927 411.7017l34.286377 0l0 17.143219l-34.286377 0z" fill-rule="evenodd"/><path stroke="#666666" stroke-width="3.0" stroke-linejoin="round" stroke-linecap="butt" d="m599.99927 411.7017l34.286377 0l0 17.143219l-34.286377 0z" fill-rule="evenodd"/><path fill="#f6b26b" d="m583.2929 428.70804l34.286377 0l0 17.143188l-34.286377 0z" fill-rule="evenodd"/><path stroke="#666666" stroke-width="3.0" stroke-linejoin="round" stroke-linecap="butt" d="m583.2929 428.70804l34.286377 0l0 17.143188l-34.286377 0z" fill-rule="evenodd"/><path fill="#f6b26b" d="m617.14246 428.70804l34.286377 0l0 17.143188l-34.286377 0z" fill-rule="evenodd"/><path stroke="#666666" stroke-width="3.0" stroke-linejoin="round" stroke-linecap="butt" d="m617.14246 428.70804l34.286377 0l0 17.143188l-34.286377 0z" fill-rule="evenodd"/><path fill="#f6b26b" d="m599.99927 445.7144l34.286377 0l0 17.143188l-34.286377 0z" fill-rule="evenodd"/><path stroke="#666666" stroke-width="3.0" stroke-linejoin="round" stroke-linecap="butt" d="m599.99927 445.7144l34.286377 0l0 17.143188l-34.286377 0z" fill-rule="evenodd"/><path fill="#000000" fill-opacity="0.0" d="m387.4357 201.58624l49.795258 46.89763" fill-rule="evenodd"/><path stroke="#000000" stroke-width="3.0" stroke-linejoin="round" stroke-linecap="butt" d="m387.4357 201.58624l49.795258 46.89763" fill-rule="evenodd"/><path fill="#000000" fill-opacity="0.0" d="m387.4357 247.91733l47.496063 -46.33072" fill-rule="evenodd"/><path stroke="#000000" stroke-width="3.0" stroke-linejoin="round" stroke-linecap="butt" d="m387.4357 247.91733l47.496063 -46.33072" fill-rule="evenodd"/><path fill="#000000" fill-opacity="0.0" d="m240.00188 51.42576l68.56694 0l0 68.56693l-68.56694 0z" fill-rule="evenodd"/><path fill="#000000" fill-opacity="0.0" d="m308.57275 51.42576l68.566925 0l0 68.56693l-68.566925 0z" fill-rule="evenodd"/><path fill="#000000" d="m338.4496 86.03547q0 -2.359375 0.484375 -3.796875q0.484375 -1.453125 1.4375 -2.234375q0.96875 -0.78125 2.421875 -0.78125q1.078125 0 1.890625 0.4375q0.8125 0.421875 1.328125 1.25q0.53125 0.8125 0.828125 1.984375q0.3125 1.15625 0.3125 3.140625q0 2.359375 -0.484375 3.8125q-0.484375 1.4375 -1.453125 2.234375q-0.953125 0.78125 -2.421875 0.78125q-1.921875 0 -3.03125 -1.390625q-1.3125 -1.671875 -1.3125 -5.4375zm1.671875 0q0 3.296875 0.765625 4.390625q0.78125 1.078125 1.90625 1.078125q1.140625 0 1.90625 -1.09375q0.765625 -1.09375 0.765625 -4.375q0 -3.296875 -0.765625 -4.375q-0.765625 -1.078125 -1.921875 -1.078125q-1.125 0 -1.796875 0.953125q-0.859375 1.21875 -0.859375 4.5z" fill-rule="nonzero"/><path fill="#000000" fill-opacity="0.0" d="m377.13574 51.42576l68.566925 0l0 68.56693l-68.566925 0z" fill-rule="evenodd"/><path fill="#000000" d="m413.18445 92.62922l-1.640625 0l0 -10.453125q-0.59375 0.5625 -1.5625 1.140625q-0.9530945 0.5625 -1.7187195 0.84375l0 -1.59375q1.3749695 -0.640625 2.4062195 -1.5625q1.03125 -0.921875 1.453125 -1.78125l1.0625 0l0 13.40625z" fill-rule="nonzero"/><path fill="#000000" fill-opacity="0.0" d="m445.7066 51.42576l68.566895 0l0 68.56693l-68.566895 0z" fill-rule="evenodd"/><path fill="#000000" d="m484.19284 91.051094l0 1.578125l-8.828125 0q-0.015625 -0.59375 0.1875 -1.140625q0.34375 -0.90625 1.078125 -1.78125q0.75 -0.875 2.15625 -2.015625q2.171875 -1.78125 2.9375 -2.828125q0.765625 -1.046875 0.765625 -1.96875q0 -0.984375 -0.703125 -1.640625q-0.6875 -0.671875 -1.8125 -0.671875q-1.1875 0 -1.90625 0.71875q-0.703125 0.703125 -0.703125 1.953125l-1.6875 -0.171875q0.171875 -1.890625 1.296875 -2.875q1.140625 -0.984375 3.03125 -0.984375q1.921875 0 3.046875 1.0625q1.125 1.0625 1.125 2.640625q0 0.796875 -0.328125 1.578125q-0.328125 0.78125 -1.09375 1.640625q-0.75 0.84375 -2.53125 2.34375q-1.46875 1.234375 -1.890625 1.6875q-0.421875 0.4375 -0.6875 0.875l6.546875 0z" fill-rule="nonzero"/><path fill="#000000" fill-opacity="0.0" d="m514.27484 51.42576l68.566956 0l0 68.56693l-68.566956 0z" fill-rule="evenodd"/><path fill="#000000" d="m544.1517 89.09797l1.640625 -0.21875q0.28125 1.40625 0.953125 2.015625q0.6875 0.609375 1.65625 0.609375q1.15625 0 1.953125 -0.796875q0.796875 -0.796875 0.796875 -1.984375q0 -1.125 -0.734375 -1.859375q-0.734375 -0.734375 -1.875 -0.734375q-0.46875 0 -1.15625 0.171875l0.1875 -1.4375q0.15625 0.015625 0.265625 0.015625q1.046875 0 1.875 -0.546875q0.84375 -0.546875 0.84375 -1.671875q0 -0.90625 -0.609375 -1.5q-0.609375 -0.59375 -1.578125 -0.59375q-0.953125 0 -1.59375 0.609375q-0.640625 0.59375 -0.8125 1.796875l-1.640625 -0.296875q0.296875 -1.640625 1.359375 -2.546875q1.0625 -0.90625 2.65625 -0.90625q1.09375 0 2.0 0.46875q0.921875 0.46875 1.40625 1.28125q0.5 0.8125 0.5 1.71875q0 0.859375 -0.46875 1.578125q-0.46875 0.703125 -1.375 1.125q1.1875 0.28125 1.84375 1.140625q0.65625 0.859375 0.65625 2.15625q0 1.734375 -1.28125 2.953125q-1.265625 1.21875 -3.21875 1.21875q-1.765625 0 -2.921875 -1.046875q-1.15625 -1.046875 -1.328125 -2.71875z" fill-rule="nonzero"/><path fill="#000000" fill-opacity="0.0" d="m582.8457 51.42576l68.566956 0l0 68.56693l-68.566956 0z" fill-rule="evenodd"/><path fill="#000000" d="m617.97253 92.62922l0 -3.203125l-5.796875 0l0 -1.5l6.09375 -8.65625l1.34375 0l0 8.65625l1.796875 0l0 1.5l-1.796875 0l0 3.203125l-1.640625 0zm0 -4.703125l0 -6.015625l-4.1875 6.015625l4.1875 0z" fill-rule="nonzero"/><path fill="#000000" fill-opacity="0.0" d="m171.42577 188.56749l68.566925 0l0 68.56694l-68.566925 0z" fill-rule="evenodd"/><path fill="#000000" d="m201.30261 223.1772q0 -2.359375 0.484375 -3.796875q0.484375 -1.453125 1.4375 -2.234375q0.96875 -0.78125 2.421875 -0.78125q1.078125 0 1.890625 0.4375q0.8125 0.421875 1.328125 1.25q0.53125 0.8125 0.828125 1.984375q0.3125 1.15625 0.3125 3.140625q0 2.359375 -0.484375 3.8125q-0.484375 1.4375 -1.453125 2.234375q-0.953125 0.78125 -2.421875 0.78125q-1.921875 0 -3.03125 -1.390625q-1.3125 -1.671875 -1.3125 -5.4375zm1.671875 0q0 3.296875 0.765625 4.390625q0.78125 1.078125 1.90625 1.078125q1.140625 0 1.90625 -1.09375q0.765625 -1.09375 0.765625 -4.375q0 -3.296875 -0.765625 -4.375q-0.765625 -1.078125 -1.921875 -1.078125q-1.125 0 -1.796875 0.953125q-0.859375 1.21875 -0.859375 4.5z" fill-rule="nonzero"/><path fill="#000000" fill-opacity="0.0" d="m171.42839 257.14493l68.566925 0l0 68.566925l-68.566925 0z" fill-rule="evenodd"/><path fill="#000000" d="m207.47711 298.3484l-1.640625 0l0 -10.453125q-0.59375 0.5625 -1.5625 1.140625q-0.953125 0.5625 -1.71875 0.84375l0 -1.59375q1.375 -0.640625 2.40625 -1.5625q1.03125 -0.921875 1.453125 -1.78125l1.0625 0l0 13.40625z" fill-rule="nonzero"/><path fill="#000000" fill-opacity="0.0" d="m171.42839 325.71448l68.566925 0l0 68.566925l-68.566925 0z" fill-rule="evenodd"/><path fill="#000000" d="m209.91461 365.3398l0 1.578125l-8.828125 0q-0.015625 -0.59375 0.1875 -1.140625q0.34375 -0.90625 1.078125 -1.78125q0.75 -0.875 2.15625 -2.015625q2.171875 -1.78125 2.9375 -2.828125q0.765625 -1.046875 0.765625 -1.96875q0 -0.984375 -0.703125 -1.640625q-0.6875 -0.671875 -1.8125 -0.671875q-1.1875 0 -1.90625 0.71875q-0.703125 0.703125 -0.703125 1.953125l-1.6875 -0.171875q0.171875 -1.890625 1.296875 -2.875q1.140625 -0.984375 3.03125 -0.984375q1.921875 0 3.046875 1.0625q1.125 1.0625 1.125 2.640625q0 0.796875 -0.328125 1.578125q-0.328125 0.78125 -1.09375 1.640625q-0.75 0.84375 -2.53125 2.34375q-1.46875 1.234375 -1.890625 1.6875q-0.421875 0.4375 -0.6875 0.875l6.546875 0z" fill-rule="nonzero"/><path fill="#000000" fill-opacity="0.0" d="m171.42839 394.28403l68.566925 0l0 68.566925l-68.566925 0z" fill-rule="evenodd"/><path fill="#000000" d="m201.30524 431.95624l1.640625 -0.21875q0.28125 1.40625 0.953125 2.015625q0.6875 0.609375 1.65625 0.609375q1.15625 0 1.953125 -0.796875q0.796875 -0.796875 0.796875 -1.984375q0 -1.125 -0.734375 -1.859375q-0.734375 -0.734375 -1.875 -0.734375q-0.46875 0 -1.15625 0.171875l0.1875 -1.4375q0.15625 0.015625 0.265625 0.015625q1.046875 0 1.875 -0.546875q0.84375 -0.546875 0.84375 -1.671875q0 -0.90625 -0.609375 -1.5q-0.609375 -0.59375 -1.578125 -0.59375q-0.953125 0 -1.59375 0.609375q-0.640625 0.59375 -0.8125 1.796875l-1.640625 -0.296875q0.296875 -1.640625 1.359375 -2.546875q1.0625 -0.90625 2.65625 -0.90625q1.09375 0 2.0 0.46875q0.921875 0.46875 1.40625 1.28125q0.5 0.8125 0.5 1.71875q0 0.859375 -0.46875 1.578125q-0.46875 0.703125 -1.375 1.125q1.1875 0.28125 1.84375 1.140625q0.65625 0.859375 0.65625 2.15625q0 1.734375 -1.28125 2.953125q-1.265625 1.21875 -3.21875 1.21875q-1.765625 0 -2.921875 -1.046875q-1.15625 -1.046875 -1.328125 -2.71875z" fill-rule="nonzero"/><path fill="#000000" fill-opacity="0.0" d="m171.42839 462.86145l68.566925 0l0 68.566956l-68.566925 0z" fill-rule="evenodd"/><path fill="#000000" d="m206.55524 504.0649l0 -3.203125l-5.796875 0l0 -1.5l6.09375 -8.65625l1.34375 0l0 8.65625l1.796875 0l0 1.5l-1.796875 0l0 3.203125l-1.640625 0zm0 -4.703125l0 -6.015625l-4.1875 6.015625l4.1875 0z" fill-rule="nonzero"/><path fill="#f6b26b" d="m308.5651 257.14172l68.572815 0l0 68.572815l-68.572815 0z" fill-rule="evenodd"/><path stroke="#666666" stroke-width="3.0" stroke-linejoin="round" stroke-linecap="butt" d="m308.5651 257.14172l68.572815 0l0 68.572815l-68.572815 0z" fill-rule="evenodd"/><path fill="#f6b26b" d="m309.00192 257.41547l34.286407 0l0 17.143188l-34.286407 0z" fill-rule="evenodd"/><path stroke="#666666" stroke-width="3.0" stroke-linejoin="round" stroke-linecap="butt" d="m309.00192 257.41547l34.286407 0l0 17.143188l-34.286407 0z" fill-rule="evenodd"/><path fill="#f6b26b" d="m342.8515 257.41547l34.286407 0l0 17.143188l-34.286407 0z" fill-rule="evenodd"/><path stroke="#666666" stroke-width="3.0" stroke-linejoin="round" stroke-linecap="butt" d="m342.8515 257.41547l34.286407 0l0 17.143188l-34.286407 0z" fill-rule="evenodd"/><path fill="#f6b26b" d="m325.7083 274.55865l34.286377 0l0 17.143188l-34.286377 0z" fill-rule="evenodd"/><path stroke="#666666" stroke-width="3.0" stroke-linejoin="round" stroke-linecap="butt" d="m325.7083 274.55865l34.286377 0l0 17.143188l-34.286377 0z" fill-rule="evenodd"/><path fill="#f6b26b" d="m309.00192 291.565l34.286407 0l0 17.143188l-34.286407 0z" fill-rule="evenodd"/><path stroke="#666666" stroke-width="3.0" stroke-linejoin="round" stroke-linecap="butt" d="m309.00192 291.565l34.286407 0l0 17.143188l-34.286407 0z" fill-rule="evenodd"/><path fill="#f6b26b" d="m342.8515 291.565l34.286407 0l0 17.143188l-34.286407 0z" fill-rule="evenodd"/><path stroke="#666666" stroke-width="3.0" stroke-linejoin="round" stroke-linecap="butt" d="m342.8515 291.565l34.286407 0l0 17.143188l-34.286407 0z" fill-rule="evenodd"/><path fill="#f6b26b" d="m325.7083 308.57132l34.286377 0l0 17.143219l-34.286377 0z" fill-rule="evenodd"/><path stroke="#666666" stroke-width="3.0" stroke-linejoin="round" stroke-linecap="butt" d="m325.7083 308.57132l34.286377 0l0 17.143219l-34.286377 0z" fill-rule="evenodd"/><path fill="#f6b26b" d="m377.1412 257.14172l68.572815 0l0 68.572815l-68.572815 0z" fill-rule="evenodd"/><path stroke="#666666" stroke-width="3.0" stroke-linejoin="round" stroke-linecap="butt" d="m377.1412 257.14172l68.572815 0l0 68.572815l-68.572815 0z" fill-rule="evenodd"/><path fill="#f6b26b" d="m377.57803 257.41547l34.286407 0l0 17.143188l-34.286407 0z" fill-rule="evenodd"/><path stroke="#666666" stroke-width="3.0" stroke-linejoin="round" stroke-linecap="butt" d="m377.57803 257.41547l34.286407 0l0 17.143188l-34.286407 0z" fill-rule="evenodd"/><path fill="#f6b26b" d="m411.4276 257.41547l34.286407 0l0 17.143188l-34.286407 0z" fill-rule="evenodd"/><path stroke="#666666" stroke-width="3.0" stroke-linejoin="round" stroke-linecap="butt" d="m411.4276 257.41547l34.286407 0l0 17.143188l-34.286407 0z" fill-rule="evenodd"/><path fill="#f6b26b" d="m394.28442 274.55865l34.286377 0l0 17.143188l-34.286377 0z" fill-rule="evenodd"/><path stroke="#666666" stroke-width="3.0" stroke-linejoin="round" stroke-linecap="butt" d="m394.28442 274.55865l34.286377 0l0 17.143188l-34.286377 0z" fill-rule="evenodd"/><path fill="#f6b26b" d="m377.57803 291.565l34.286407 0l0 17.143188l-34.286407 0z" fill-rule="evenodd"/><path stroke="#666666" stroke-width="3.0" stroke-linejoin="round" stroke-linecap="butt" d="m377.57803 291.565l34.286407 0l0 17.143188l-34.286407 0z" fill-rule="evenodd"/><path fill="#f6b26b" d="m411.4276 291.565l34.286407 0l0 17.143188l-34.286407 0z" fill-rule="evenodd"/><path stroke="#666666" stroke-width="3.0" stroke-linejoin="round" stroke-linecap="butt" d="m411.4276 291.565l34.286407 0l0 17.143188l-34.286407 0z" fill-rule="evenodd"/><path fill="#f6b26b" d="m394.28442 308.57132l34.286377 0l0 17.143219l-34.286377 0z" fill-rule="evenodd"/><path stroke="#666666" stroke-width="3.0" stroke-linejoin="round" stroke-linecap="butt" d="m394.28442 308.57132l34.286377 0l0 17.143219l-34.286377 0z" fill-rule="evenodd"/><path fill="#ffffff" d="m445.7143 188.56862l68.566895 0l0 68.56694l-68.566895 0z" fill-rule="evenodd"/><path stroke="#000000" stroke-width="2.0" stroke-linejoin="round" stroke-linecap="butt" d="m445.7143 188.56862l68.566895 0l0 68.56694l-68.566895 0z" fill-rule="evenodd"/><path fill="#ffffff" d="m582.844 462.86334l68.566956 0l0 68.566895l-68.566956 0z" fill-rule="evenodd"/><path stroke="#000000" stroke-width="2.0" stroke-linejoin="round" stroke-linecap="butt" d="m582.844 462.86334l68.566956 0l0 68.566895l-68.566956 0z" fill-rule="evenodd"/><path fill="#ffffff" d="m308.57068 394.2876l68.566925 0l0 68.566925l-68.566925 0z" fill-rule="evenodd"/><path stroke="#000000" stroke-width="2.0" stroke-linejoin="round" stroke-linecap="butt" d="m308.57068 394.2876l68.566925 0l0 68.566925l-68.566925 0z" fill-rule="evenodd"/><path fill="#f6b26b" d="m377.14178 462.85696l68.572784 0l0 68.572784l-68.572784 0z" fill-rule="evenodd"/><path stroke="#666666" stroke-width="3.0" stroke-linejoin="round" stroke-linecap="butt" d="m377.14178 462.85696l68.572784 0l0 68.572784l-68.572784 0z" fill-rule="evenodd"/><path fill="#f6b26b" d="m377.5786 463.13068l34.286377 0l0 17.143188l-34.286377 0z" fill-rule="evenodd"/><path stroke="#666666" stroke-width="3.0" stroke-linejoin="round" stroke-linecap="butt" d="m377.5786 463.13068l34.286377 0l0 17.143188l-34.286377 0z" fill-rule="evenodd"/><path fill="#f6b26b" d="m411.42816 463.13068l34.286407 0l0 17.143188l-34.286407 0z" fill-rule="evenodd"/><path stroke="#666666" stroke-width="3.0" stroke-linejoin="round" stroke-linecap="butt" d="m411.42816 463.13068l34.286407 0l0 17.143188l-34.286407 0z" fill-rule="evenodd"/><path fill="#f6b26b" d="m394.28497 480.27386l34.286407 0l0 17.143219l-34.286407 0z" fill-rule="evenodd"/><path stroke="#666666" stroke-width="3.0" stroke-linejoin="round" stroke-linecap="butt" d="m394.28497 480.27386l34.286407 0l0 17.143219l-34.286407 0z" fill-rule="evenodd"/><path fill="#f6b26b" d="m377.5786 497.2802l34.286377 0l0 17.143188l-34.286377 0z" fill-rule="evenodd"/><path stroke="#666666" stroke-width="3.0" stroke-linejoin="round" stroke-linecap="butt" d="m377.5786 497.2802l34.286377 0l0 17.143188l-34.286377 0z" fill-rule="evenodd"/><path fill="#f6b26b" d="m411.42816 497.2802l34.286407 0l0 17.143188l-34.286407 0z" fill-rule="evenodd"/><path stroke="#666666" stroke-width="3.0" stroke-linejoin="round" stroke-linecap="butt" d="m411.42816 497.2802l34.286407 0l0 17.143188l-34.286407 0z" fill-rule="evenodd"/><path fill="#f6b26b" d="m394.28497 514.28656l34.286407 0l0 17.143188l-34.286407 0z" fill-rule="evenodd"/><path stroke="#666666" stroke-width="3.0" stroke-linejoin="round" stroke-linecap="butt" d="m394.28497 514.28656l34.286407 0l0 17.143188l-34.286407 0z" fill-rule="evenodd"/><path fill="#ffffff" d="m514.2838 394.2857l68.566956 0l0 68.566925l-68.566956 0z" fill-rule="evenodd"/><path stroke="#000000" stroke-width="2.0" stroke-linejoin="round" stroke-linecap="butt" d="m514.2838 394.2857l68.566956 0l0 68.566925l-68.566956 0z" fill-rule="evenodd"/><path fill="#ffffff" d="m514.2878 325.71747l68.566895 0l0 68.566925l-68.566895 0z" fill-rule="evenodd"/><path stroke="#000000" stroke-width="2.0" stroke-linejoin="round" stroke-linecap="butt" d="m514.2878 325.71747l68.566895 0l0 68.566925l-68.566895 0z" fill-rule="evenodd"/><path fill="#f6b26b" d="m582.8666 257.14172l68.572754 0l0 68.572815l-68.572754 0z" fill-rule="evenodd"/><path stroke="#666666" stroke-width="3.0" stroke-linejoin="round" stroke-linecap="butt" d="m582.8666 257.14172l68.572754 0l0 68.572815l-68.572754 0z" fill-rule="evenodd"/><path fill="#f6b26b" d="m583.3034 257.41547l34.286377 0l0 17.143188l-34.286377 0z" fill-rule="evenodd"/><path stroke="#666666" stroke-width="3.0" stroke-linejoin="round" stroke-linecap="butt" d="m583.3034 257.41547l34.286377 0l0 17.143188l-34.286377 0z" fill-rule="evenodd"/><path fill="#f6b26b" d="m617.15295 257.41547l34.286377 0l0 17.143188l-34.286377 0z" fill-rule="evenodd"/><path stroke="#666666" stroke-width="3.0" stroke-linejoin="round" stroke-linecap="butt" d="m617.15295 257.41547l34.286377 0l0 17.143188l-34.286377 0z" fill-rule="evenodd"/><path fill="#f6b26b" d="m600.00977 274.55865l34.286377 0l0 17.143188l-34.286377 0z" fill-rule="evenodd"/><path stroke="#666666" stroke-width="3.0" stroke-linejoin="round" stroke-linecap="butt" d="m600.00977 274.55865l34.286377 0l0 17.143188l-34.286377 0z" fill-rule="evenodd"/><path fill="#f6b26b" d="m583.3034 291.565l34.286377 0l0 17.143188l-34.286377 0z" fill-rule="evenodd"/><path stroke="#666666" stroke-width="3.0" stroke-linejoin="round" stroke-linecap="butt" d="m583.3034 291.565l34.286377 0l0 17.143188l-34.286377 0z" fill-rule="evenodd"/><path fill="#f6b26b" d="m617.15295 291.565l34.286377 0l0 17.143188l-34.286377 0z" fill-rule="evenodd"/><path stroke="#666666" stroke-width="3.0" stroke-linejoin="round" stroke-linecap="butt" d="m617.15295 291.565l34.286377 0l0 17.143188l-34.286377 0z" fill-rule="evenodd"/><path fill="#f6b26b" d="m600.00977 308.57132l34.286377 0l0 17.143219l-34.286377 0z" fill-rule="evenodd"/><path stroke="#666666" stroke-width="3.0" stroke-linejoin="round" stroke-linecap="butt" d="m600.00977 308.57132l34.286377 0l0 17.143219l-34.286377 0z" fill-rule="evenodd"/><path fill="#ffffff" d="m514.28625 462.86407l68.566956 0l0 68.566956l-68.566956 0z" fill-rule="evenodd"/><path stroke="#000000" stroke-width="2.0" stroke-linejoin="round" stroke-linecap="butt" d="m514.28625 462.86407l68.566956 0l0 68.566956l-68.566956 0z" fill-rule="evenodd"/><path fill="#666666" d="m521.14795 497.14304l0 0c0 -15.142151 12.2751465 -27.417328 27.417297 -27.417328l0 0c7.2715454 0 14.245239 2.8886108 19.386963 8.030365c5.1417236 5.141754 8.030334 12.115448 8.030334 19.386963l0 0c0 15.142181 -12.2751465 27.417328 -27.417297 27.417328l0 0c-15.142151 0 -27.417297 -12.2751465 -27.417297 -27.417328z" fill-rule="evenodd"/><path stroke="#000000" stroke-width="1.0" stroke-linejoin="round" stroke-linecap="butt" d="m521.14795 497.14304l0 0c0 -15.142151 12.2751465 -27.417328 27.417297 -27.417328l0 0c7.2715454 0 14.245239 2.8886108 19.386963 8.030365c5.1417236 5.141754 8.030334 12.115448 8.030334 19.386963l0 0c0 15.142181 -12.2751465 27.417328 -27.417297 27.417328l0 0c-15.142151 0 -27.417297 -12.2751465 -27.417297 -27.417328z" fill-rule="evenodd"/><path fill="#ffffff" d="m582.85266 188.57143l68.566895 0l0 68.56694l-68.566895 0z" fill-rule="evenodd"/><path stroke="#000000" stroke-width="2.0" stroke-linejoin="round" stroke-linecap="butt" d="m582.85266 188.57143l68.566895 0l0 68.56694l-68.566895 0z" fill-rule="evenodd"/></g></svg>