<svg version="1.1" viewBox="0.0 0.0 960.0 720.0" fill="none" stroke="none" stroke-linecap="square" stroke-miterlimit="10" xmlns:xlink="http://www.w3.org/1999/xlink" xmlns="http://www.w3.org/2000/svg"><clipPath id="p.0"><path d="m0 0l960.0 0l0 720.0l-960.0 0l0 -720.0z" clip-rule="nonzero"/></clipPath><g clip-path="url(#p.0)"><path fill="#000000" fill-opacity="0.0" d="m0 0l960.0 0l0 720.0l-960.0 0z" fill-rule="evenodd"/><path fill="#f3f3f3" d="m413.2047 49.391075l0 0c0 -13.254833 10.745178 -23.999998 24.0 -23.999998l0 0c6.365204 0 12.469696 2.5285625 16.970581 7.029436c4.5008545 4.5008736 7.029419 10.605366 7.029419 16.970562l0 0c0 13.254833 -10.745148 24.0 -24.0 24.0l0 0c-13.254822 0 -24.0 -10.745167 -24.0 -24.0z" fill-rule="evenodd"/><path stroke="#d9d9d9" stroke-width="1.0" stroke-linejoin="round" stroke-linecap="butt" d="m413.2047 49.391075l0 0c0 -13.254833 10.745178 -23.999998 24.0 -23.999998l0 0c6.365204 0 12.469696 2.5285625 16.970581 7.029436c4.5008545 4.5008736 7.029419 10.605366 7.029419 16.970562l0 0c0 13.254833 -10.745148 24.0 -24.0 24.0l0 0c-13.254822 0 -24.0 -10.745167 -24.0 -24.0z" fill-rule="evenodd"/><path fill="#d9d9d9" d="m430.82776 52.071075l0 -4.15625l0.640625 0l0 0.640625q0.234375 -0.453125 0.4375 -0.59375q0.21875 -0.140625 0.453125 -0.140625q0.359375 0 0.734375 0.234375l-0.25 0.65625q-0.25 -0.15625 -0.515625 -0.15625q-0.234375 0 -0.421875 0.140625q-0.171875 0.140625 -0.25 0.375q-0.125 0.375 -0.125 0.828125l0 2.171875l-0.703125 0zm2.4140625 -2.078125q0 -1.15625 0.640625 -1.703125q0.53125 -0.46875 1.3125 -0.46875q0.84375 0 1.390625 0.5625q0.546875 0.5625 0.546875 1.546875q0 0.8125 -0.25 1.265625q-0.234375 0.453125 -0.703125 0.71875q-0.453125 0.25 -0.984375 0.25q-0.875 0 -1.421875 -0.5625q-0.53125 -0.5625 -0.53125 -1.609375zm0.71875 0q0 0.796875 0.34375 1.203125q0.359375 0.390625 0.890625 0.390625q0.515625 0 0.859375 -0.390625q0.359375 -0.40625 0.359375 -1.21875q0 -0.78125 -0.359375 -1.171875q-0.34375 -0.390625 -0.859375 -0.390625q-0.53125 0 -0.890625 0.390625q-0.34375 0.390625 -0.34375 1.1875zm3.7304688 0q0 -1.15625 0.640625 -1.703125q0.53125 -0.46875 1.3125 -0.46875q0.84375 0 1.390625 0.5625q0.546875 0.5625 0.546875 1.546875q0 0.8125 -0.25 1.265625q-0.234375 0.453125 -0.703125 0.71875q-0.453125 0.25 -0.984375 0.25q-0.875 0 -1.421875 -0.5625q-0.53125 -0.5625 -0.53125 -1.609375zm0.71875 0q0 0.796875 0.34375 1.203125q0.359375 0.390625 0.890625 0.390625q0.515625 0 0.859375 -0.390625q0.359375 -0.40625 0.359375 -1.21875q0 -0.78125 -0.359375 -1.171875q-0.34375 -0.390625 -0.859375 -0.390625q-0.53125 0 -0.890625 0.390625q-0.34375 0.390625 -0.34375 1.1875zm5.5273438 1.453125l0.109375 0.609375q-0.296875 0.078125 -0.53125 0.078125q-0.390625 0 -0.609375 -0.125q-0.203125 -0.125 -0.296875 -0.3125q-0.078125 -0.203125 -0.078125 -0.84375l0 -2.390625l-0.515625 0l0 -0.546875l0.515625 0l0 -1.015625l0.703125 -0.421875l0 1.4375l0.703125 0l0 0.546875l-0.703125 0l0 2.4375q0 0.296875 0.03125 0.390625q0.046875 0.078125 0.125 0.125q0.078125 0.046875 0.234375 0.046875q0.125 0 0.3125 -0.015625z" fill-rule="nonzero"/><path fill="#f3f3f3" d="m319.16797 149.4672l0 0c0 -13.254837 10.745178 -24.0 24.0 -24.0l0 0c6.365204 0 12.469696 2.5285645 16.970581 7.029434c4.5008545 4.5008698 7.029419 10.605362 7.029419 16.970566l0 0c0 13.254837 -10.745148 24.0 -24.0 24.0l0 0c-13.254822 0 -24.0 -10.745163 -24.0 -24.0z" fill-rule="evenodd"/><path stroke="#d9d9d9" stroke-width="1.0" stroke-linejoin="round" stroke-linecap="butt" d="m319.16797 149.4672l0 0c0 -13.254837 10.745178 -24.0 24.0 -24.0l0 0c6.365204 0 12.469696 2.5285645 16.970581 7.029434c4.5008545 4.5008698 7.029419 10.605362 7.029419 16.970566l0 0c0 13.254837 -10.745148 24.0 -24.0 24.0l0 0c-13.254822 0 -24.0 -10.745163 -24.0 -24.0z" fill-rule="evenodd"/><path fill="#f3f3f3" d="m742.37006 154.67717l0 0c0 -13.254837 10.745178 -24.0 24.0 -24.0l0 0c6.3652344 0 12.469727 2.5285645 16.970581 7.029434c4.5008545 4.5008698 7.029419 10.605362 7.029419 16.970566l0 0c0 13.254837 -10.745117 24.0 -24.0 24.0l0 0c-13.254822 0 -24.0 -10.745163 -24.0 -24.0z" fill-rule="evenodd"/><path stroke="#d9d9d9" stroke-width="1.0" stroke-linejoin="round" stroke-linecap="butt" d="m742.37006 154.67717l0 0c0 -13.254837 10.745178 -24.0 24.0 -24.0l0 0c6.3652344 0 12.469727 2.5285645 16.970581 7.029434c4.5008545 4.5008698 7.029419 10.605362 7.029419 16.970566l0 0c0 13.254837 -10.745117 24.0 -24.0 24.0l0 0c-13.254822 0 -24.0 -10.745163 -24.0 -24.0z" fill-rule="evenodd"/><path fill="#f3f3f3" d="m319.16797 230.33202l0 0c0 -13.254822 10.745178 -24.0 24.0 -24.0l0 0c6.365204 0 12.469696 2.5285645 16.970581 7.0294495c4.5008545 4.5008698 7.029419 10.605362 7.029419 16.97055l0 0c0 13.254837 -10.745148 24.0 -24.0 24.0l0 0c-13.254822 0 -24.0 -10.745163 -24.0 -24.0z" fill-rule="evenodd"/><path stroke="#d9d9d9" stroke-width="1.0" stroke-linejoin="round" stroke-linecap="butt" d="m319.16797 230.33202l0 0c0 -13.254822 10.745178 -24.0 24.0 -24.0l0 0c6.365204 0 12.469696 2.5285645 16.970581 7.0294495c4.5008545 4.5008698 7.029419 10.605362 7.029419 16.97055l0 0c0 13.254837 -10.745148 24.0 -24.0 24.0l0 0c-13.254822 0 -24.0 -10.745163 -24.0 -24.0z" fill-rule="evenodd"/><path fill="#000000" fill-opacity="0.0" d="m413.2047 49.391075l-53.07086 83.11811" fill-rule="evenodd"/><path stroke="#d9d9d9" stroke-width="1.0" stroke-linejoin="round" stroke-linecap="butt" d="m413.2047 49.391075l-53.07086 83.11811" fill-rule="evenodd"/><path fill="#000000" fill-opacity="0.0" d="m343.16797 173.4672l0 32.850388" fill-rule="evenodd"/><path stroke="#d9d9d9" stroke-width="1.0" stroke-linejoin="round" stroke-linecap="butt" d="m343.16797 173.4672l0 32.850388" fill-rule="evenodd"/><path fill="#000000" fill-opacity="0.0" d="m360.13855 247.30258l21.448822 41.700775" fill-rule="evenodd"/><path stroke="#d9d9d9" stroke-width="1.0" stroke-linejoin="round" stroke-linecap="butt" d="m360.13855 247.30258l21.448822 41.700775" fill-rule="evenodd"/><path fill="#000000" fill-opacity="0.0" d="m461.2047 49.391075l101.102356 81.66929" fill-rule="evenodd"/><path stroke="#000000" stroke-width="1.0" stroke-linejoin="round" stroke-linecap="butt" d="m461.2047 49.391075l101.102356 81.66929" fill-rule="evenodd"/><path fill="#f3f3f3" d="m555.27167 148.04199l0 0c0 -13.254837 10.745178 -24.0 24.0 -24.0l0 0c6.3651733 0 12.469666 2.5285645 16.97052 7.029434c4.5009155 4.500885 7.02948 10.605377 7.02948 16.970566l0 0c0 13.254837 -10.745178 24.0 -24.0 24.0l0 0c-13.254822 0 -24.0 -10.745163 -24.0 -24.0z" fill-rule="evenodd"/><path stroke="#d9d9d9" stroke-width="1.0" stroke-linejoin="round" stroke-linecap="butt" d="m555.27167 148.04199l0 0c0 -13.254837 10.745178 -24.0 24.0 -24.0l0 0c6.3651733 0 12.469666 2.5285645 16.97052 7.029434c4.5009155 4.500885 7.02948 10.605377 7.02948 16.970566l0 0c0 13.254837 -10.745178 24.0 -24.0 24.0l0 0c-13.254822 0 -24.0 -10.745163 -24.0 -24.0z" fill-rule="evenodd"/><path fill="#000000" fill-opacity="0.0" d="m360.1391 73.9895l26.771667 0l0 33.921257l-26.771667 0z" fill-rule="evenodd"/><path fill="#d9d9d9" d="m373.96722 94.5095l0 -0.78125q-0.59375 0.921875 -1.734375 0.921875q-0.75 0 -1.375 -0.40625q-0.625 -0.421875 -0.96875 -1.15625q-0.34375 -0.734375 -0.34375 -1.6875q0 -0.921875 0.3125 -1.6875q0.3125 -0.765625 0.9375 -1.15625q0.625 -0.40625 1.390625 -0.40625q0.5625 0 1.0 0.234375q0.4375 0.234375 0.71875 0.609375l0 -3.078125l1.046875 0l0 8.59375l-0.984375 0zm-3.328125 -3.109375q0 1.203125 0.5 1.796875q0.5 0.578125 1.1875 0.578125q0.6875 0 1.171875 -0.5625q0.484375 -0.5625 0.484375 -1.71875q0 -1.28125 -0.5 -1.875q-0.484375 -0.59375 -1.203125 -0.59375q-0.703125 0 -1.171875 0.578125q-0.46875 0.5625 -0.46875 1.796875z" fill-rule="nonzero"/><path fill="#000000" fill-opacity="0.0" d="m461.2047 49.391075l288.18896 88.314964" fill-rule="evenodd"/><path stroke="#d9d9d9" stroke-width="1.0" stroke-linejoin="round" stroke-linecap="butt" d="m461.2047 49.391075l288.18896 88.314964" fill-rule="evenodd"/><path fill="#000000" fill-opacity="0.0" d="m595.3832 65.78215l26.771667 0l0 33.921265l-26.771667 0z" fill-rule="evenodd"/><path fill="#d9d9d9" d="m605.43005 86.302155l0 -5.40625l-0.9375 0l0 -0.8125l0.9375 0l0 -0.671875q0 -0.625 0.109375 -0.921875q0.15625 -0.421875 0.53125 -0.671875q0.390625 -0.25 1.078125 -0.25q0.453125 0 0.984375 0.109375l-0.15625 0.90625q-0.328125 -0.046875 -0.625 -0.046875q-0.484375 0 -0.6875 0.203125q-0.1875 0.203125 -0.1875 0.765625l0 0.578125l1.21875 0l0 0.8125l-1.21875 0l0 5.40625l-1.046875 0z" fill-rule="nonzero"/><path fill="#000000" fill-opacity="0.0" d="m343.16797 172.0315l48.0 0l0 33.921265l-48.0 0z" fill-rule="evenodd"/><path fill="#d9d9d9" d="m357.21484 190.5515l1.09375 0.125q-0.25 0.953125 -0.953125 1.484375q-0.703125 0.53125 -1.78125 0.53125q-1.359375 0 -2.171875 -0.84375q-0.796875 -0.84375 -0.796875 -2.359375q0 -1.5625 0.8125 -2.421875q0.8125 -0.875 2.09375 -0.875q1.25 0 2.03125 0.84375q0.796875 0.84375 0.796875 2.390625q0 0.09375 0 0.28125l-4.640625 0q0.0625 1.03125 0.578125 1.578125q0.515625 0.53125 1.296875 0.53125q0.578125 0 0.984375 -0.296875q0.421875 -0.3125 0.65625 -0.96875zm-3.453125 -1.703125l3.46875 0q-0.0625 -0.796875 -0.390625 -1.1875q-0.515625 -0.609375 -1.3125 -0.609375q-0.734375 0 -1.234375 0.484375q-0.484375 0.484375 -0.53125 1.3125z" fill-rule="nonzero"/><path fill="#f3f3f3" d="m271.16797 313.00787l0 0c0 -13.254822 10.745178 -24.0 24.0 -24.0l0 0c6.365204 0 12.469696 2.5285645 16.970581 7.0294495c4.5008545 4.5008545 7.029419 10.605347 7.029419 16.97055l0 0c0 13.254822 -10.745148 24.0 -24.0 24.0l0 0c-13.254822 0 -24.0 -10.745178 -24.0 -24.0z" fill-rule="evenodd"/><path stroke="#d9d9d9" stroke-width="1.0" stroke-linejoin="round" stroke-linecap="butt" d="m271.16797 313.00787l0 0c0 -13.254822 10.745178 -24.0 24.0 -24.0l0 0c6.365204 0 12.469696 2.5285645 16.970581 7.0294495c4.5008545 4.5008545 7.029419 10.605347 7.029419 16.97055l0 0c0 13.254822 -10.745148 24.0 -24.0 24.0l0 0c-13.254822 0 -24.0 -10.745178 -24.0 -24.0z" fill-rule="evenodd"/><path fill="#000000" fill-opacity="0.0" d="m326.19742 247.30258l-31.02362 41.700775" fill-rule="evenodd"/><path stroke="#d9d9d9" stroke-width="1.0" stroke-linejoin="round" stroke-linecap="butt" d="m326.19742 247.30258l-31.02362 41.700775" fill-rule="evenodd"/><path fill="#000000" fill-opacity="0.0" d="m292.24802 247.30193l26.771667 0l0 33.92125l-26.771667 0z" fill-rule="evenodd"/><path fill="#d9d9d9" d="m302.2949 267.82193l0 -5.40625l-0.9375 0l0 -0.8125l0.9375 0l0 -0.671875q0 -0.625 0.109375 -0.921875q0.15625 -0.421875 0.53125 -0.671875q0.390625 -0.25 1.078125 -0.25q0.453125 0 0.984375 0.109375l-0.15625 0.90625q-0.328125 -0.046875 -0.625 -0.046875q-0.484375 0 -0.6875 0.203125q-0.1875 0.203125 -0.1875 0.765625l0 0.578125l1.21875 0l0 0.8125l-1.21875 0l0 5.40625l-1.046875 0z" fill-rule="nonzero"/><path fill="#f3f3f3" d="m357.57217 313.00787l0 0c0 -13.254822 10.745178 -24.0 24.0 -24.0l0 0c6.365204 0 12.469696 2.5285645 16.970581 7.0294495c4.5008545 4.5008545 7.029419 10.605347 7.029419 16.97055l0 0c0 13.254822 -10.745148 24.0 -24.0 24.0l0 0c-13.254822 0 -24.0 -10.745178 -24.0 -24.0z" fill-rule="evenodd"/><path stroke="#d9d9d9" stroke-width="1.0" stroke-linejoin="round" stroke-linecap="butt" d="m357.57217 313.00787l0 0c0 -13.254822 10.745178 -24.0 24.0 -24.0l0 0c6.365204 0 12.469696 2.5285645 16.970581 7.0294495c4.5008545 4.5008545 7.029419 10.605347 7.029419 16.97055l0 0c0 13.254822 -10.745148 24.0 -24.0 24.0l0 0c-13.254822 0 -24.0 -10.745178 -24.0 -24.0z" fill-rule="evenodd"/><path fill="#000000" fill-opacity="0.0" d="m368.66928 251.19168l26.771667 0l0 33.921265l-26.771667 0z" fill-rule="evenodd"/><path fill="#d9d9d9" d="m378.4349 271.7117l0 -8.59375l1.0625 0l0 8.59375l-1.0625 0z" fill-rule="nonzero"/><path fill="#999999" d="m497.81628 233.71391l0 0c0 -13.254837 10.745148 -24.0 24.0 -24.0l0 0c6.3651733 0 12.469666 2.5285645 16.970581 7.029434c4.5008545 4.5008698 7.029419 10.605362 7.029419 16.970566l0 0c0 13.254837 -10.745178 23.999985 -24.0 23.999985l0 0c-13.254852 0 -24.0 -10.745148 -24.0 -23.999985z" fill-rule="evenodd"/><path stroke="#000000" stroke-width="1.0" stroke-linejoin="round" stroke-linecap="butt" d="m497.81628 233.71391l0 0c0 -13.254837 10.745148 -24.0 24.0 -24.0l0 0c6.3651733 0 12.469666 2.5285645 16.970581 7.029434c4.5008545 4.5008698 7.029419 10.605362 7.029419 16.970566l0 0c0 13.254837 -10.745178 23.999985 -24.0 23.999985l0 0c-13.254852 0 -24.0 -10.745148 -24.0 -23.999985z" fill-rule="evenodd"/><path fill="#000000" fill-opacity="0.0" d="m521.8163 209.71391l40.472412 -44.692917" fill-rule="evenodd"/><path stroke="#000000" stroke-width="1.0" stroke-linejoin="round" stroke-linecap="butt" d="m521.8163 209.71391l40.472412 -44.692917" fill-rule="evenodd"/><path fill="#000000" fill-opacity="0.0" d="m522.1916 164.54602l26.771667 0l0 33.92125l-26.771667 0z" fill-rule="evenodd"/><path fill="#000000" d="m531.9572 185.06601l0 -8.59375l1.0625 0l0 8.59375l-1.0625 0z" fill-rule="nonzero"/><path fill="#999999" d="m455.5223 314.56693l0 0c0 -13.254822 10.745178 -24.0 24.0 -24.0l0 0c6.365204 0 12.469696 2.5285645 16.97055 7.0294495c4.500885 4.5008545 7.0294495 10.605347 7.0294495 16.97055l0 0c0 13.254852 -10.745178 24.0 -24.0 24.0l0 0c-13.254822 0 -24.0 -10.745148 -24.0 -24.0z" fill-rule="evenodd"/><path stroke="#000000" stroke-width="1.0" stroke-linejoin="round" stroke-linecap="butt" d="m455.5223 314.56693l0 0c0 -13.254822 10.745178 -24.0 24.0 -24.0l0 0c6.365204 0 12.469696 2.5285645 16.97055 7.0294495c4.500885 4.5008545 7.0294495 10.605347 7.0294495 16.97055l0 0c0 13.254852 -10.745178 24.0 -24.0 24.0l0 0c-13.254822 0 -24.0 -10.745148 -24.0 -24.0z" fill-rule="evenodd"/><path fill="#000000" fill-opacity="0.0" d="m479.5223 290.56693l25.322845 -39.87401" fill-rule="evenodd"/><path stroke="#000000" stroke-width="1.0" stroke-linejoin="round" stroke-linecap="butt" d="m479.5223 290.56693l25.322845 -39.87401" fill-rule="evenodd"/><path fill="#f6b26b" d="m455.5223 395.41864l0 0c0 -13.254852 10.745178 -24.0 24.0 -24.0l0 0c6.365204 0 12.469696 2.5285645 16.97055 7.029419c4.500885 4.500885 7.0294495 10.605377 7.0294495 16.970581l0 0c0 13.254822 -10.745178 24.0 -24.0 24.0l0 0c-13.254822 0 -24.0 -10.745178 -24.0 -24.0z" fill-rule="evenodd"/><path stroke="#000000" stroke-width="1.0" stroke-linejoin="round" stroke-linecap="butt" d="m455.5223 395.41864l0 0c0 -13.254852 10.745178 -24.0 24.0 -24.0l0 0c6.365204 0 12.469696 2.5285645 16.97055 7.029419c4.500885 4.500885 7.0294495 10.605377 7.0294495 16.970581l0 0c0 13.254822 -10.745178 24.0 -24.0 24.0l0 0c-13.254822 0 -24.0 -10.745178 -24.0 -24.0z" fill-rule="evenodd"/><path fill="#000000" fill-opacity="0.0" d="m479.5223 371.41864l0 -32.850403" fill-rule="evenodd"/><path stroke="#000000" stroke-width="1.0" stroke-linejoin="round" stroke-linecap="butt" d="m479.5223 371.41864l0 -32.850403" fill-rule="evenodd"/><path fill="#000000" fill-opacity="0.0" d="m470.00525 251.35704l26.771667 0l0 33.92125l-26.771667 0z" fill-rule="evenodd"/><path fill="#000000" d="m479.38025 270.01767l1.03125 -0.15625q0.09375 0.625 0.484375 0.953125q0.40625 0.328125 1.140625 0.328125q0.71875 0 1.0625 -0.28125q0.359375 -0.296875 0.359375 -0.703125q0 -0.359375 -0.3125 -0.5625q-0.21875 -0.140625 -1.078125 -0.359375q-1.15625 -0.296875 -1.609375 -0.5q-0.4375 -0.21875 -0.671875 -0.59375q-0.234375 -0.375 -0.234375 -0.84375q0 -0.40625 0.1875 -0.765625q0.1875 -0.359375 0.515625 -0.59375q0.25 -0.171875 0.671875 -0.296875q0.421875 -0.125 0.921875 -0.125q0.71875 0 1.265625 0.21875q0.5625 0.203125 0.828125 0.5625q0.265625 0.359375 0.359375 0.953125l-1.03125 0.140625q-0.0625 -0.46875 -0.40625 -0.734375q-0.328125 -0.28125 -0.953125 -0.28125q-0.71875 0 -1.03125 0.25q-0.3125 0.234375 -0.3125 0.5625q0 0.203125 0.125 0.359375q0.140625 0.171875 0.40625 0.28125q0.15625 0.0625 0.9375 0.265625q1.125 0.3125 1.5625 0.5q0.4375 0.1875 0.6875 0.546875q0.25 0.359375 0.25 0.90625q0 0.53125 -0.3125 1.0q-0.296875 0.453125 -0.875 0.71875q-0.578125 0.25 -1.3125 0.25q-1.21875 0 -1.859375 -0.5q-0.625 -0.515625 -0.796875 -1.5z" fill-rule="nonzero"/><path fill="#000000" fill-opacity="0.0" d="m458.32547 338.1391l21.196838 0l0 33.921265l-21.196838 0z" fill-rule="evenodd"/><path fill="#000000" d="m472.37234 356.65912l1.09375 0.125q-0.25 0.953125 -0.953125 1.484375q-0.703125 0.53125 -1.78125 0.53125q-1.359375 0 -2.171875 -0.84375q-0.796875 -0.84375 -0.796875 -2.359375q0 -1.5625 0.8125 -2.421875q0.8125 -0.875 2.09375 -0.875q1.25 0 2.03125 0.84375q0.796875 0.84375 0.796875 2.390625q0 0.09375 0 0.28125l-4.640625 0q0.0625 1.03125 0.578125 1.578125q0.515625 0.53125 1.296875 0.53125q0.578125 0 0.984375 -0.296875q0.421875 -0.3125 0.65625 -0.96875zm-3.453125 -1.703125l3.46875 0q-0.0625 -0.796875 -0.390625 -1.1875q-0.515625 -0.609375 -1.3125 -0.609375q-0.734375 0 -1.234375 0.484375q-0.484375 0.484375 -0.53125 1.3125z" fill-rule="nonzero"/><path fill="#f3f3f3" d="m647.76117 237.10104l0 0c0 -13.254822 10.745178 -24.0 24.0 -24.0l0 0c6.3651733 0 12.469666 2.5285645 16.97052 7.0294495c4.5009155 4.5008698 7.02948 10.605362 7.02948 16.97055l0 0c0 13.254837 -10.745178 24.0 -24.0 24.0l0 0c-13.254822 0 -24.0 -10.745163 -24.0 -24.0z" fill-rule="evenodd"/><path stroke="#d9d9d9" stroke-width="1.0" stroke-linejoin="round" stroke-linecap="butt" d="m647.76117 237.10104l0 0c0 -13.254822 10.745178 -24.0 24.0 -24.0l0 0c6.3651733 0 12.469666 2.5285645 16.97052 7.0294495c4.5009155 4.5008698 7.02948 10.605362 7.02948 16.97055l0 0c0 13.254837 -10.745178 24.0 -24.0 24.0l0 0c-13.254822 0 -24.0 -10.745163 -24.0 -24.0z" fill-rule="evenodd"/><path fill="#000000" fill-opacity="0.0" d="m671.76117 213.10104l-75.52759 -48.094482" fill-rule="evenodd"/><path stroke="#d9d9d9" stroke-width="1.0" stroke-linejoin="round" stroke-linecap="butt" d="m671.76117 213.10104l-75.52759 -48.094482" fill-rule="evenodd"/><path fill="#f3f3f3" d="m647.76117 315.3727l0 0c0 -13.254852 10.745178 -24.0 24.0 -24.0l0 0c6.3651733 0 12.469666 2.5285645 16.97052 7.029419c4.5009155 4.500885 7.02948 10.605377 7.02948 16.970581l0 0c0 13.254822 -10.745178 24.0 -24.0 24.0l0 0c-13.254822 0 -24.0 -10.745178 -24.0 -24.0z" fill-rule="evenodd"/><path stroke="#d9d9d9" stroke-width="1.0" stroke-linejoin="round" stroke-linecap="butt" d="m647.76117 315.3727l0 0c0 -13.254852 10.745178 -24.0 24.0 -24.0l0 0c6.3651733 0 12.469666 2.5285645 16.97052 7.029419c4.5009155 4.500885 7.02948 10.605377 7.02948 16.970581l0 0c0 13.254822 -10.745178 24.0 -24.0 24.0l0 0c-13.254822 0 -24.0 -10.745178 -24.0 -24.0z" fill-rule="evenodd"/><path fill="#f3f3f3" d="m647.76117 477.37402l0 0c0 -13.254852 10.745178 -24.0 24.0 -24.0l0 0c6.3651733 0 12.469666 2.5285645 16.97052 7.029419c4.5009155 4.500885 7.02948 10.605377 7.02948 16.970581l0 0c0 13.254822 -10.745178 24.0 -24.0 24.0l0 0c-13.254822 0 -24.0 -10.745178 -24.0 -24.0z" fill-rule="evenodd"/><path stroke="#d9d9d9" stroke-width="1.0" stroke-linejoin="round" stroke-linecap="butt" d="m647.76117 477.37402l0 0c0 -13.254852 10.745178 -24.0 24.0 -24.0l0 0c6.3651733 0 12.469666 2.5285645 16.97052 7.029419c4.5009155 4.500885 7.02948 10.605377 7.02948 16.970581l0 0c0 13.254822 -10.745178 24.0 -24.0 24.0l0 0c-13.254822 0 -24.0 -10.745178 -24.0 -24.0z" fill-rule="evenodd"/><path fill="#000000" fill-opacity="0.0" d="m632.2808 164.54471l26.771667 0l0 33.92125l-26.771667 0z" fill-rule="evenodd"/><path fill="#d9d9d9" d="m641.3746 185.0647l2.265625 -3.234375l-2.09375 -2.984375l1.3125 0l0.953125 1.453125q0.265625 0.421875 0.4375 0.703125q0.25 -0.390625 0.46875 -0.6875l1.046875 -1.46875l1.265625 0l-2.15625 2.921875l2.3125 3.296875l-1.28125 0l-1.28125 -1.9375l-0.34375 -0.515625l-1.640625 2.453125l-1.265625 0z" fill-rule="nonzero"/><path fill="#000000" fill-opacity="0.0" d="m671.76117 291.3727l0 -30.26773" fill-rule="evenodd"/><path stroke="#d9d9d9" stroke-width="1.0" stroke-linejoin="round" stroke-linecap="butt" d="m671.76117 291.3727l0 -30.26773" fill-rule="evenodd"/><path fill="#000000" fill-opacity="0.0" d="m678.4067 261.18372l13.417358 0l0 33.921265l-13.417358 0z" fill-rule="evenodd"/><path fill="#d9d9d9" d="m687.6834 279.4225l1.03125 0.140625q-0.171875 1.0625 -0.875 1.671875q-0.703125 0.609375 -1.71875 0.609375q-1.28125 0 -2.0625 -0.828125q-0.765625 -0.84375 -0.765625 -2.40625q0 -1.0 0.328125 -1.75q0.34375 -0.765625 1.015625 -1.140625q0.6875 -0.375 1.5 -0.375q1.0 0 1.640625 0.515625q0.65625 0.5 0.84375 1.453125l-1.03125 0.15625q-0.140625 -0.625 -0.515625 -0.9375q-0.375 -0.328125 -0.90625 -0.328125q-0.796875 0 -1.296875 0.578125q-0.5 0.5625 -0.5 1.796875q0 1.265625 0.484375 1.828125q0.484375 0.5625 1.25 0.5625q0.625 0 1.03125 -0.375q0.421875 -0.375 0.546875 -1.171875z" fill-rule="nonzero"/><path fill="#f3f3f3" d="m647.76117 399.27298l0 0c0 -13.254852 10.745178 -24.0 24.0 -24.0l0 0c6.3651733 0 12.469666 2.5285645 16.97052 7.029419c4.5009155 4.500885 7.02948 10.605377 7.02948 16.970581l0 0c0 13.254822 -10.745178 24.0 -24.0 24.0l0 0c-13.254822 0 -24.0 -10.745178 -24.0 -24.0z" fill-rule="evenodd"/><path stroke="#d9d9d9" stroke-width="1.0" stroke-linejoin="round" stroke-linecap="butt" d="m647.76117 399.27298l0 0c0 -13.254852 10.745178 -24.0 24.0 -24.0l0 0c6.3651733 0 12.469666 2.5285645 16.97052 7.029419c4.5009155 4.500885 7.02948 10.605377 7.02948 16.970581l0 0c0 13.254822 -10.745178 24.0 -24.0 24.0l0 0c-13.254822 0 -24.0 -10.745178 -24.0 -24.0z" fill-rule="evenodd"/><path fill="#000000" fill-opacity="0.0" d="m671.76117 375.27298l0 -35.905518" fill-rule="evenodd"/><path stroke="#d9d9d9" stroke-width="1.0" stroke-linejoin="round" stroke-linecap="butt" d="m671.76117 375.27298l0 -35.905518" fill-rule="evenodd"/><path fill="#000000" fill-opacity="0.0" d="m678.4067 343.12466l13.417358 0l0 33.921265l-13.417358 0z" fill-rule="evenodd"/><path fill="#d9d9d9" d="m687.8709 361.64468l1.09375 0.125q-0.25 0.953125 -0.953125 1.484375q-0.703125 0.53125 -1.78125 0.53125q-1.359375 0 -2.171875 -0.84375q-0.796875 -0.84375 -0.796875 -2.359375q0 -1.5625 0.8125 -2.421875q0.8125 -0.875 2.09375 -0.875q1.25 0 2.03125 0.84375q0.796875 0.84375 0.796875 2.390625q0 0.09375 0 0.28125l-4.640625 0q0.0625 1.03125 0.578125 1.578125q0.515625 0.53125 1.296875 0.53125q0.578125 0 0.984375 -0.296875q0.421875 -0.3125 0.65625 -0.96875zm-3.453125 -1.703125l3.46875 0q-0.0625 -0.796875 -0.390625 -1.1875q-0.515625 -0.609375 -1.3125 -0.609375q-0.734375 0 -1.234375 0.484375q-0.484375 0.484375 -0.53125 1.3125z" fill-rule="nonzero"/><path fill="#000000" fill-opacity="0.0" d="m671.76117 453.37402l0 -30.11023" fill-rule="evenodd"/><path stroke="#d9d9d9" stroke-width="1.0" stroke-linejoin="round" stroke-linecap="butt" d="m671.76117 453.37402l0 -30.11023" fill-rule="evenodd"/><path fill="#000000" fill-opacity="0.0" d="m678.4067 425.06693l13.417358 0l0 33.921265l-13.417358 0z" fill-rule="evenodd"/><path fill="#d9d9d9" d="m683.6209 447.97757l0 -8.609375l0.953125 0l0 0.796875q0.34375 -0.46875 0.765625 -0.703125q0.4375 -0.234375 1.046875 -0.234375q0.796875 0 1.40625 0.40625q0.609375 0.40625 0.90625 1.15625q0.3125 0.75 0.3125 1.640625q0 0.953125 -0.34375 1.71875q-0.328125 0.765625 -0.984375 1.171875q-0.65625 0.40625 -1.375 0.40625q-0.53125 0 -0.953125 -0.21875q-0.421875 -0.234375 -0.6875 -0.5625l0 3.03125l-1.046875 0zm0.953125 -5.46875q0 1.203125 0.484375 1.78125q0.484375 0.5625 1.171875 0.5625q0.703125 0 1.203125 -0.59375q0.5 -0.59375 0.5 -1.84375q0 -1.1875 -0.484375 -1.765625q-0.484375 -0.59375 -1.171875 -0.59375q-0.671875 0 -1.1875 0.625q-0.515625 0.625 -0.515625 1.828125z" fill-rule="nonzero"/><path fill="#f3f3f3" d="m647.76117 559.3793l0 0c0 -13.254822 10.745178 -24.0 24.0 -24.0l0 0c6.3651733 0 12.469666 2.5285645 16.97052 7.029419c4.5009155 4.5008545 7.02948 10.605408 7.02948 16.970581l0 0c0 13.254822 -10.745178 24.0 -24.0 24.0l0 0c-13.254822 0 -24.0 -10.745178 -24.0 -24.0z" fill-rule="evenodd"/><path stroke="#d9d9d9" stroke-width="1.0" stroke-linejoin="round" stroke-linecap="butt" d="m647.76117 559.3793l0 0c0 -13.254822 10.745178 -24.0 24.0 -24.0l0 0c6.3651733 0 12.469666 2.5285645 16.97052 7.029419c4.5009155 4.5008545 7.02948 10.605408 7.02948 16.970581l0 0c0 13.254822 -10.745178 24.0 -24.0 24.0l0 0c-13.254822 0 -24.0 -10.745178 -24.0 -24.0z" fill-rule="evenodd"/><path fill="#000000" fill-opacity="0.0" d="m671.76117 535.3793l0 -34.015747" fill-rule="evenodd"/><path stroke="#d9d9d9" stroke-width="1.0" stroke-linejoin="round" stroke-linecap="butt" d="m671.76117 535.3793l0 -34.015747" fill-rule="evenodd"/><path fill="#000000" fill-opacity="0.0" d="m678.4067 503.44357l13.417358 0l0 33.921234l-13.417358 0z" fill-rule="evenodd"/><path fill="#d9d9d9" d="m685.9178 523.02606l0.15625 0.921875q-0.453125 0.09375 -0.796875 0.09375q-0.578125 0 -0.890625 -0.171875q-0.3125 -0.1875 -0.453125 -0.484375q-0.125 -0.296875 -0.125 -1.25l0 -3.578125l-0.765625 0l0 -0.8125l0.765625 0l0 -1.546875l1.046875 -0.625l0 2.171875l1.0625 0l0 0.8125l-1.0625 0l0 3.640625q0 0.453125 0.046875 0.578125q0.0625 0.125 0.1875 0.203125q0.125 0.078125 0.359375 0.078125q0.1875 0 0.46875 -0.03125z" fill-rule="nonzero"/><path fill="#f3f3f3" d="m164.66405 147.65355l0 0c0 -13.254837 10.745163 -24.000008 24.0 -24.000008l0 0c6.3651886 0 12.469681 2.5285645 16.97055 7.029442c4.500885 4.5008698 7.0294495 10.605362 7.0294495 16.970566l0 0c0 13.254822 -10.745178 24.0 -24.0 24.0l0 0c-13.254837 0 -24.0 -10.745178 -24.0 -24.0z" fill-rule="evenodd"/><path stroke="#d9d9d9" stroke-width="1.0" stroke-linejoin="round" stroke-linecap="butt" d="m164.66405 147.65355l0 0c0 -13.254837 10.745163 -24.000008 24.0 -24.000008l0 0c6.3651886 0 12.469681 2.5285645 16.97055 7.029442c4.500885 4.5008698 7.0294495 10.605362 7.0294495 16.970566l0 0c0 13.254822 -10.745178 24.0 -24.0 24.0l0 0c-13.254837 0 -24.0 -10.745178 -24.0 -24.0z" fill-rule="evenodd"/><path fill="#000000" fill-opacity="0.0" d="m413.2047 49.391075l-207.55904 81.29134" fill-rule="evenodd"/><path stroke="#d9d9d9" stroke-width="1.0" stroke-linejoin="round" stroke-linecap="butt" d="m413.2047 49.391075l-207.55904 81.29134" fill-rule="evenodd"/><path fill="#000000" fill-opacity="0.0" d="m514.9068 73.076126l26.771667 0l0 33.921257l-26.771667 0z" fill-rule="evenodd"/><path fill="#000000" d="m528.9537 91.59612l1.09375 0.125q-0.25 0.953125 -0.953125 1.484375q-0.703125 0.53125 -1.78125 0.53125q-1.359375 0 -2.171875 -0.84375q-0.796875 -0.84375 -0.796875 -2.359375q0 -1.5625 0.8125 -2.421875q0.8125 -0.875 2.09375 -0.875q1.25 0 2.03125 0.84375q0.796875 0.84375 0.796875 2.390625q0 0.09375 0 0.28125l-4.640625 0q0.0625 1.03125 0.578125 1.578125q0.515625 0.53125 1.296875 0.53125q0.578125 0 0.984375 -0.296875q0.421875 -0.3125 0.65625 -0.96875zm-3.453125 -1.703125l3.46875 0q-0.0625 -0.796875 -0.390625 -1.1875q-0.515625 -0.609375 -1.3125 -0.609375q-0.734375 0 -1.234375 0.484375q-0.484375 0.484375 -0.53125 1.3125z" fill-rule="nonzero"/><path fill="#000000" fill-opacity="0.0" d="m285.3622 65.78215l26.771637 0l0 33.921265l-26.771637 0z" fill-rule="evenodd"/><path fill="#d9d9d9" d="m299.2216 85.53653q-0.59375 0.5 -1.140625 0.703125q-0.53125 0.203125 -1.15625 0.203125q-1.03125 0 -1.578125 -0.5q-0.546875 -0.5 -0.546875 -1.28125q0 -0.453125 0.203125 -0.828125q0.203125 -0.390625 0.546875 -0.609375q0.34375 -0.234375 0.765625 -0.34375q0.296875 -0.09375 0.9375 -0.171875q1.265625 -0.140625 1.875 -0.359375q0 -0.21875 0 -0.265625q0 -0.65625 -0.296875 -0.921875q-0.40625 -0.34375 -1.203125 -0.34375q-0.734375 0 -1.09375 0.265625q-0.359375 0.25 -0.53125 0.90625l-1.03125 -0.140625q0.140625 -0.65625 0.46875 -1.0625q0.328125 -0.40625 0.9375 -0.625q0.609375 -0.21875 1.40625 -0.21875q0.796875 0 1.296875 0.1875q0.5 0.1875 0.734375 0.46875q0.234375 0.28125 0.328125 0.71875q0.046875 0.265625 0.046875 0.96875l0 1.40625q0 1.46875 0.0625 1.859375q0.078125 0.390625 0.28125 0.75l-1.109375 0q-0.15625 -0.328125 -0.203125 -0.765625zm-0.09375 -2.359375q-0.578125 0.234375 -1.71875 0.40625q-0.65625 0.09375 -0.921875 0.21875q-0.265625 0.109375 -0.421875 0.328125q-0.140625 0.21875 -0.140625 0.5q0 0.421875 0.3125 0.703125q0.328125 0.28125 0.9375 0.28125q0.609375 0 1.078125 -0.265625q0.484375 -0.265625 0.703125 -0.734375q0.171875 -0.359375 0.171875 -1.046875l0 -0.390625z" fill-rule="nonzero"/><path fill="#f3f3f3" d="m164.66405 230.26772l0 0c0 -13.254837 10.745163 -24.0 24.0 -24.0l0 0c6.3651886 0 12.469681 2.5285645 16.97055 7.029434c4.500885 4.5008698 7.0294495 10.605377 7.0294495 16.970566l0 0c0 13.254837 -10.745178 24.0 -24.0 24.0l0 0c-13.254837 0 -24.0 -10.745163 -24.0 -24.0z" fill-rule="evenodd"/><path stroke="#d9d9d9" stroke-width="1.0" stroke-linejoin="round" stroke-linecap="butt" d="m164.66405 230.26772l0 0c0 -13.254837 10.745163 -24.0 24.0 -24.0l0 0c6.3651886 0 12.469681 2.5285645 16.97055 7.029434c4.500885 4.5008698 7.0294495 10.605377 7.0294495 16.970566l0 0c0 13.254837 -10.745178 24.0 -24.0 24.0l0 0c-13.254837 0 -24.0 -10.745163 -24.0 -24.0z" fill-rule="evenodd"/><path fill="#000000" fill-opacity="0.0" d="m188.66405 171.65355l0 34.614166" fill-rule="evenodd"/><path stroke="#d9d9d9" stroke-width="1.0" stroke-linejoin="round" stroke-linecap="butt" d="m188.66405 171.65355l0 34.614166" fill-rule="evenodd"/><path fill="#000000" fill-opacity="0.0" d="m162.59055 172.0l21.196854 0l0 33.921265l-21.196854 0z" fill-rule="evenodd"/><path fill="#d9d9d9" d="m171.96555 190.66063l1.03125 -0.15625q0.09375 0.625 0.484375 0.953125q0.40625 0.328125 1.140625 0.328125q0.71875 0 1.0625 -0.28125q0.359375 -0.296875 0.359375 -0.703125q0 -0.359375 -0.3125 -0.5625q-0.21875 -0.140625 -1.078125 -0.359375q-1.15625 -0.296875 -1.609375 -0.5q-0.4375 -0.21875 -0.671875 -0.59375q-0.234375 -0.375 -0.234375 -0.84375q0 -0.40625 0.1875 -0.765625q0.1875 -0.359375 0.515625 -0.59375q0.25 -0.171875 0.671875 -0.296875q0.421875 -0.125 0.921875 -0.125q0.71875 0 1.265625 0.21875q0.5625 0.203125 0.828125 0.5625q0.265625 0.359375 0.359375 0.953125l-1.03125 0.140625q-0.0625 -0.46875 -0.40625 -0.734375q-0.328125 -0.28125 -0.953125 -0.28125q-0.71875 0 -1.03125 0.25q-0.3125 0.234375 -0.3125 0.5625q0 0.203125 0.125 0.359375q0.140625 0.171875 0.40625 0.28125q0.15625 0.0625 0.9375 0.265625q1.125 0.3125 1.5625 0.5q0.4375 0.1875 0.6875 0.546875q0.25 0.359375 0.25 0.90625q0 0.53125 -0.3125 1.0q-0.296875 0.453125 -0.875 0.71875q-0.578125 0.25 -1.3125 0.25q-1.21875 0 -1.859375 -0.5q-0.625 -0.515625 -0.796875 -1.5z" fill-rule="nonzero"/><path fill="#f3f3f3" d="m164.66405 312.70865l0 0c0 -13.254822 10.745163 -24.0 24.0 -24.0l0 0c6.3651886 0 12.469681 2.5285645 16.97055 7.0294495c4.500885 4.500885 7.0294495 10.605377 7.0294495 16.97055l0 0c0 13.254852 -10.745178 24.0 -24.0 24.0l0 0c-13.254837 0 -24.0 -10.745148 -24.0 -24.0z" fill-rule="evenodd"/><path stroke="#d9d9d9" stroke-width="1.0" stroke-linejoin="round" stroke-linecap="butt" d="m164.66405 312.70865l0 0c0 -13.254822 10.745163 -24.0 24.0 -24.0l0 0c6.3651886 0 12.469681 2.5285645 16.97055 7.0294495c4.500885 4.500885 7.0294495 10.605377 7.0294495 16.97055l0 0c0 13.254852 -10.745178 24.0 -24.0 24.0l0 0c-13.254837 0 -24.0 -10.745148 -24.0 -24.0z" fill-rule="evenodd"/><path fill="#000000" fill-opacity="0.0" d="m163.6273 254.61417l13.417313 0l0 33.921265l-13.417313 0z" fill-rule="evenodd"/><path fill="#d9d9d9" d="m168.41962 273.2748l1.03125 -0.15625q0.09375 0.625 0.484375 0.953125q0.40625 0.328125 1.140625 0.328125q0.71875 0 1.0625 -0.28125q0.359375 -0.296875 0.359375 -0.703125q0 -0.359375 -0.3125 -0.5625q-0.21875 -0.140625 -1.078125 -0.359375q-1.15625 -0.296875 -1.609375 -0.5q-0.4375 -0.21875 -0.671875 -0.59375q-0.234375 -0.375 -0.234375 -0.84375q0 -0.40625 0.1875 -0.765625q0.1875 -0.359375 0.515625 -0.59375q0.25 -0.171875 0.671875 -0.296875q0.421875 -0.125 0.921875 -0.125q0.71875 0 1.265625 0.21875q0.5625 0.203125 0.828125 0.5625q0.265625 0.359375 0.359375 0.953125l-1.03125 0.140625q-0.0625 -0.46875 -0.40625 -0.734375q-0.328125 -0.28125 -0.953125 -0.28125q-0.71875 0 -1.03125 0.25q-0.3125 0.234375 -0.3125 0.5625q0 0.203125 0.125 0.359375q0.140625 0.171875 0.40625 0.28125q0.15625 0.0625 0.9375 0.265625q1.125 0.3125 1.5625 0.5q0.4375 0.1875 0.6875 0.546875q0.25 0.359375 0.25 0.90625q0 0.53125 -0.3125 1.0q-0.296875 0.453125 -0.875 0.71875q-0.578125 0.25 -1.3125 0.25q-1.21875 0 -1.859375 -0.5q-0.625 -0.515625 -0.796875 -1.5z" fill-rule="nonzero"/><path fill="#f3f3f3" d="m164.66405 395.063l0 0c0 -13.254822 10.745163 -24.0 24.0 -24.0l0 0c6.3651886 0 12.469681 2.5285645 16.97055 7.0294495c4.500885 4.5008545 7.0294495 10.605347 7.0294495 16.97055l0 0c0 13.254852 -10.745178 24.0 -24.0 24.0l0 0c-13.254837 0 -24.0 -10.745148 -24.0 -24.0z" fill-rule="evenodd"/><path stroke="#d9d9d9" stroke-width="1.0" stroke-linejoin="round" stroke-linecap="butt" d="m164.66405 395.063l0 0c0 -13.254822 10.745163 -24.0 24.0 -24.0l0 0c6.3651886 0 12.469681 2.5285645 16.97055 7.0294495c4.500885 4.5008545 7.0294495 10.605347 7.0294495 16.97055l0 0c0 13.254852 -10.745178 24.0 -24.0 24.0l0 0c-13.254837 0 -24.0 -10.745148 -24.0 -24.0z" fill-rule="evenodd"/><path fill="#000000" fill-opacity="0.0" d="m163.6273 336.8819l13.417313 0l0 33.921265l-13.417313 0z" fill-rule="evenodd"/><path fill="#d9d9d9" d="m173.09149 355.4019l1.09375 0.125q-0.25 0.953125 -0.953125 1.484375q-0.703125 0.53125 -1.78125 0.53125q-1.359375 0 -2.171875 -0.84375q-0.796875 -0.84375 -0.796875 -2.359375q0 -1.5625 0.8125 -2.421875q0.8125 -0.875 2.09375 -0.875q1.25 0 2.03125 0.84375q0.796875 0.84375 0.796875 2.390625q0 0.09375 0 0.28125l-4.640625 0q0.0625 1.03125 0.578125 1.578125q0.515625 0.53125 1.296875 0.53125q0.578125 0 0.984375 -0.296875q0.421875 -0.3125 0.65625 -0.96875zm-3.453125 -1.703125l3.46875 0q-0.0625 -0.796875 -0.390625 -1.1875q-0.515625 -0.609375 -1.3125 -0.609375q-0.734375 0 -1.234375 0.484375q-0.484375 0.484375 -0.53125 1.3125z" fill-rule="nonzero"/><path fill="#f3f3f3" d="m164.66405 477.37402l0 0c0 -13.254852 10.745163 -24.0 24.0 -24.0l0 0c6.3651886 0 12.469681 2.5285645 16.97055 7.029419c4.500885 4.500885 7.0294495 10.605377 7.0294495 16.970581l0 0c0 13.254822 -10.745178 24.0 -24.0 24.0l0 0c-13.254837 0 -24.0 -10.745178 -24.0 -24.0z" fill-rule="evenodd"/><path stroke="#d9d9d9" stroke-width="1.0" stroke-linejoin="round" stroke-linecap="butt" d="m164.66405 477.37402l0 0c0 -13.254852 10.745163 -24.0 24.0 -24.0l0 0c6.3651886 0 12.469681 2.5285645 16.97055 7.029419c4.500885 4.500885 7.0294495 10.605377 7.0294495 16.970581l0 0c0 13.254822 -10.745178 24.0 -24.0 24.0l0 0c-13.254837 0 -24.0 -10.745178 -24.0 -24.0z" fill-rule="evenodd"/><path fill="#000000" fill-opacity="0.0" d="m164.66405 419.1496l13.417313 0l0 33.921265l-13.417313 0z" fill-rule="evenodd"/><path fill="#d9d9d9" d="m169.86261 439.66962l0 -6.21875l0.953125 0l0 0.9375q0.359375 -0.65625 0.65625 -0.859375q0.3125 -0.21875 0.6875 -0.21875q0.53125 0 1.078125 0.328125l-0.359375 0.984375q-0.390625 -0.234375 -0.765625 -0.234375q-0.359375 0 -0.640625 0.21875q-0.265625 0.203125 -0.375 0.578125q-0.1875 0.5625 -0.1875 1.21875l0 3.265625l-1.046875 0z" fill-rule="nonzero"/><path fill="#f3f3f3" d="m164.66405 559.38055l0 0c0 -13.254822 10.745163 -24.0 24.0 -24.0l0 0c6.3651886 0 12.469681 2.5285645 16.97055 7.02948c4.500885 4.5008545 7.0294495 10.605347 7.0294495 16.97052l0 0c0 13.254883 -10.745178 24.0 -24.0 24.0l0 0c-13.254837 0 -24.0 -10.745117 -24.0 -24.0z" fill-rule="evenodd"/><path stroke="#d9d9d9" stroke-width="1.0" stroke-linejoin="round" stroke-linecap="butt" d="m164.66405 559.38055l0 0c0 -13.254822 10.745163 -24.0 24.0 -24.0l0 0c6.3651886 0 12.469681 2.5285645 16.97055 7.02948c4.500885 4.5008545 7.0294495 10.605347 7.0294495 16.97052l0 0c0 13.254883 -10.745178 24.0 -24.0 24.0l0 0c-13.254837 0 -24.0 -10.745117 -24.0 -24.0z" fill-rule="evenodd"/><path fill="#000000" fill-opacity="0.0" d="m165.70079 501.41733l17.51181 0l0 33.921234l-17.51181 0z" fill-rule="evenodd"/><path fill="#d9d9d9" d="m177.30635 520.9998l0.15625 0.921875q-0.453125 0.09375 -0.796875 0.09375q-0.578125 0 -0.890625 -0.171875q-0.3125 -0.1875 -0.453125 -0.484375q-0.125 -0.296875 -0.125 -1.25l0 -3.578125l-0.765625 0l0 -0.8125l0.765625 0l0 -1.546875l1.046875 -0.625l0 2.171875l1.0625 0l0 0.8125l-1.0625 0l0 3.640625q0 0.453125 0.046875 0.578125q0.0625 0.125 0.1875 0.203125q0.125 0.078125 0.359375 0.078125q0.1875 0 0.46875 -0.03125z" fill-rule="nonzero"/><path fill="#000000" fill-opacity="0.0" d="m188.66405 254.26772l0 34.45668" fill-rule="evenodd"/><path stroke="#d9d9d9" stroke-width="1.0" stroke-linejoin="round" stroke-linecap="butt" d="m188.66405 254.26772l0 34.45668" fill-rule="evenodd"/><path fill="#000000" fill-opacity="0.0" d="m188.66405 336.70865l0 34.362213" fill-rule="evenodd"/><path stroke="#d9d9d9" stroke-width="1.0" stroke-linejoin="round" stroke-linecap="butt" d="m188.66405 336.70865l0 34.362213" fill-rule="evenodd"/><path fill="#000000" fill-opacity="0.0" d="m188.66405 419.063l0 34.299225" fill-rule="evenodd"/><path stroke="#d9d9d9" stroke-width="1.0" stroke-linejoin="round" stroke-linecap="butt" d="m188.66405 419.063l0 34.299225" fill-rule="evenodd"/><path fill="#000000" fill-opacity="0.0" d="m188.66405 501.37402l0 34.015747" fill-rule="evenodd"/><path stroke="#d9d9d9" stroke-width="1.0" stroke-linejoin="round" stroke-linecap="butt" d="m188.66405 501.37402l0 34.015747" fill-rule="evenodd"/><path fill="#999999" d="m541.35693 314.17847l0 0c0 -13.254822 10.745178 -24.0 24.0 -24.0l0 0c6.3652344 0 12.469727 2.5285645 16.970581 7.0294495c4.5008545 4.500885 7.029419 10.605377 7.029419 16.97055l0 0c0 13.254852 -10.745117 24.0 -24.0 24.0l0 0c-13.254822 0 -24.0 -10.745148 -24.0 -24.0z" fill-rule="evenodd"/><path stroke="#000000" stroke-width="1.0" stroke-linejoin="round" stroke-linecap="butt" d="m541.35693 314.17847l0 0c0 -13.254822 10.745178 -24.0 24.0 -24.0l0 0c6.3652344 0 12.469727 2.5285645 16.970581 7.0294495c4.5008545 4.500885 7.029419 10.605377 7.029419 16.97055l0 0c0 13.254852 -10.745117 24.0 -24.0 24.0l0 0c-13.254822 0 -24.0 -10.745148 -24.0 -24.0z" fill-rule="evenodd"/><path fill="#000000" fill-opacity="0.0" d="m565.35693 290.17847l-26.582642 -39.496048" fill-rule="evenodd"/><path stroke="#000000" stroke-width="1.0" stroke-linejoin="round" stroke-linecap="butt" d="m565.35693 290.17847l-26.582642 -39.496048" fill-rule="evenodd"/><path fill="#f6b26b" d="m540.7257 397.7874l0 0c0 -13.254852 10.745178 -24.0 24.0 -24.0l0 0c6.3652344 0 12.469727 2.5285645 16.970581 7.029419c4.5008545 4.500885 7.029419 10.605377 7.029419 16.970581l0 0c0 13.254822 -10.745178 24.0 -24.0 24.0l0 0c-13.254822 0 -24.0 -10.745178 -24.0 -24.0z" fill-rule="evenodd"/><path stroke="#000000" stroke-width="1.0" stroke-linejoin="round" stroke-linecap="butt" d="m540.7257 397.7874l0 0c0 -13.254852 10.745178 -24.0 24.0 -24.0l0 0c6.3652344 0 12.469727 2.5285645 16.970581 7.029419c4.5008545 4.500885 7.029419 10.605377 7.029419 16.970581l0 0c0 13.254822 -10.745178 24.0 -24.0 24.0l0 0c-13.254822 0 -24.0 -10.745178 -24.0 -24.0z" fill-rule="evenodd"/><path fill="#000000" fill-opacity="0.0" d="m564.7257 373.7874l0.62994385 -35.62207" fill-rule="evenodd"/><path stroke="#000000" stroke-width="1.0" stroke-linejoin="round" stroke-linecap="butt" d="m564.7257 373.7874l0.62994385 -35.62207" fill-rule="evenodd"/><path fill="#000000" fill-opacity="0.0" d="m548.96326 251.35573l26.771667 0l0 33.92125l-26.771667 0z" fill-rule="evenodd"/><path fill="#000000" d="m558.76013 264.50073l0 -1.21875l1.0625 0l0 1.21875l-1.0625 0zm0 7.375l0 -6.21875l1.0625 0l0 6.21875l-1.0625 0z" fill-rule="nonzero"/><path fill="#000000" fill-opacity="0.0" d="m562.30164 339.0223l17.51178 0l0 33.921265l-17.51178 0z" fill-rule="evenodd"/><path fill="#000000" d="m571.8603 359.5423l0 -5.40625l-0.9375 0l0 -0.8125l0.9375 0l0 -0.671875q0 -0.625 0.109375 -0.921875q0.15625 -0.421875 0.53125 -0.671875q0.390625 -0.25 1.078125 -0.25q0.453125 0 0.984375 0.109375l-0.15625 0.90625q-0.328125 -0.046875 -0.625 -0.046875q-0.484375 0 -0.6875 0.203125q-0.1875 0.203125 -0.1875 0.765625l0 0.578125l1.21875 0l0 0.8125l-1.21875 0l0 5.40625l-1.046875 0z" fill-rule="nonzero"/><path fill="#f3f3f3" d="m743.1102 235.02362l0 0c0 -13.254837 10.745178 -24.0 24.0 -24.0l0 0c6.3651733 0 12.469727 2.5285645 16.970581 7.029434c4.5008545 4.500885 7.029419 10.605377 7.029419 16.970566l0 0c0 13.254837 -10.745178 24.0 -24.0 24.0l0 0c-13.254822 0 -24.0 -10.745163 -24.0 -24.0z" fill-rule="evenodd"/><path stroke="#d9d9d9" stroke-width="1.0" stroke-linejoin="round" stroke-linecap="butt" d="m743.1102 235.02362l0 0c0 -13.254837 10.745178 -24.0 24.0 -24.0l0 0c6.3651733 0 12.469727 2.5285645 16.970581 7.029434c4.5008545 4.500885 7.029419 10.605377 7.029419 16.970566l0 0c0 13.254837 -10.745178 24.0 -24.0 24.0l0 0c-13.254822 0 -24.0 -10.745163 -24.0 -24.0z" fill-rule="evenodd"/><path fill="#f3f3f3" d="m743.1102 315.36877l0 0c0 -13.254852 10.745178 -24.0 24.0 -24.0l0 0c6.3651733 0 12.469727 2.5285645 16.970581 7.029419c4.5008545 4.500885 7.029419 10.605377 7.029419 16.970581l0 0c0 13.254822 -10.745178 24.0 -24.0 24.0l0 0c-13.254822 0 -24.0 -10.745178 -24.0 -24.0z" fill-rule="evenodd"/><path stroke="#d9d9d9" stroke-width="1.0" stroke-linejoin="round" stroke-linecap="butt" d="m743.1102 315.36877l0 0c0 -13.254852 10.745178 -24.0 24.0 -24.0l0 0c6.3651733 0 12.469727 2.5285645 16.970581 7.029419c4.5008545 4.500885 7.029419 10.605377 7.029419 16.970581l0 0c0 13.254822 -10.745178 24.0 -24.0 24.0l0 0c-13.254822 0 -24.0 -10.745178 -24.0 -24.0z" fill-rule="evenodd"/><path fill="#000000" fill-opacity="0.0" d="m767.1102 211.02362l-0.72442627 -32.34645" fill-rule="evenodd"/><path stroke="#d9d9d9" stroke-width="1.0" stroke-linejoin="round" stroke-linecap="butt" d="m767.1102 211.02362l-0.72442627 -32.34645" fill-rule="evenodd"/><path fill="#000000" fill-opacity="0.0" d="m767.1102 291.36877l0 -32.346466" fill-rule="evenodd"/><path stroke="#d9d9d9" stroke-width="1.0" stroke-linejoin="round" stroke-linecap="butt" d="m767.1102 291.36877l0 -32.346466" fill-rule="evenodd"/><path fill="#000000" fill-opacity="0.0" d="m766.3858 177.88977l31.02362 0l0 33.92125l-31.02362 0z" fill-rule="evenodd"/><path fill="#d9d9d9" d="m775.79205 195.30038q0 -1.734375 0.953125 -2.5625q0.796875 -0.6875 1.953125 -0.6875q1.28125 0 2.09375 0.84375q0.828125 0.828125 0.828125 2.3125q0 1.203125 -0.359375 1.890625q-0.359375 0.6875 -1.0625 1.078125q-0.6875 0.375 -1.5 0.375q-1.296875 0 -2.109375 -0.828125q-0.796875 -0.84375 -0.796875 -2.421875zm1.078125 0q0 1.1875 0.515625 1.78125q0.53125 0.59375 1.3125 0.59375q0.796875 0 1.3125 -0.59375q0.515625 -0.59375 0.515625 -1.8125q0 -1.15625 -0.53125 -1.75q-0.515625 -0.59375 -1.296875 -0.59375q-0.78125 0 -1.3125 0.59375q-0.515625 0.578125 -0.515625 1.78125z" fill-rule="nonzero"/><path fill="#000000" fill-opacity="0.0" d="m767.7874 258.235l26.771667 0l0 33.921265l-26.771667 0z" fill-rule="evenodd"/><path fill="#d9d9d9" d="m777.56866 278.755l0 -6.21875l0.953125 0l0 0.9375q0.359375 -0.65625 0.65625 -0.859375q0.3125 -0.21875 0.6875 -0.21875q0.53125 0 1.078125 0.328125l-0.359375 0.984375q-0.390625 -0.234375 -0.765625 -0.234375q-0.359375 0 -0.640625 0.21875q-0.265625 0.203125 -0.375 0.578125q-0.1875 0.5625 -0.1875 1.21875l0 3.265625l-1.046875 0z" fill-rule="nonzero"/></g></svg>