<svg version="1.1" viewBox="0.0 0.0 947.9160104986877 767.0157480314961" fill="none" stroke="none" stroke-linecap="square" stroke-miterlimit="10" xmlns:xlink="http://www.w3.org/1999/xlink" xmlns="http://www.w3.org/2000/svg"><clipPath id="p.0"><path d="m0 0l947.916 0l0 767.01575l-947.916 0l0 -767.01575z" clip-rule="nonzero"/></clipPath><g clip-path="url(#p.0)"><path fill="#000000" fill-opacity="0.0" d="m0 0l947.916 0l0 767.01575l-947.916 0z" fill-rule="evenodd"/><path fill="#ffffff" d="m462.4439 49.644135l0 0c0 -18.560247 15.046051 -33.6063 33.606293 -33.6063l0 0c8.912933 0 17.460846 3.5406532 23.763214 9.843058c6.302429 6.3024044 9.843079 14.850298 9.843079 23.763243l0 0c0 18.560242 -15.0460205 33.6063 -33.606293 33.6063l0 0c-18.560242 0 -33.606293 -15.046059 -33.606293 -33.6063z" fill-rule="evenodd"/><path stroke="#6aa84f" stroke-width="4.0" stroke-linejoin="round" stroke-linecap="butt" d="m462.4439 49.644135l0 0c0 -18.560247 15.046051 -33.6063 33.606293 -33.6063l0 0c8.912933 0 17.460846 3.5406532 23.763214 9.843058c6.302429 6.3024044 9.843079 14.850298 9.843079 23.763243l0 0c0 18.560242 -15.0460205 33.6063 -33.606293 33.6063l0 0c-18.560242 0 -33.606293 -15.046059 -33.606293 -33.6063z" fill-rule="evenodd"/><path fill="#000000" d="m483.5209 56.554756l0 -10.984375l2.328125 0l0 0.875l-1.265625 0l0 9.234375l1.265625 0l0 0.875l-2.328125 0zm3.0214844 -6.625q0 -1.53125 0.3125 -2.453125q0.3125 -0.9375 0.921875 -1.4375q0.625 -0.5 1.5625 -0.5q0.6875 0 1.203125 0.28125q0.53125 0.28125 0.875 0.8125q0.34375 0.515625 0.53125 1.265625q0.1875 0.75 0.1875 2.03125q0 1.515625 -0.3125 2.4375q-0.296875 0.921875 -0.921875 1.4375q-0.609375 0.5 -1.5625 0.5q-1.234375 0 -1.953125 -0.890625q-0.84375 -1.0625 -0.84375 -3.484375zm1.078125 0q0 2.109375 0.5 2.8125q0.5 0.703125 1.21875 0.703125q0.734375 0 1.21875 -0.703125q0.5 -0.703125 0.5 -2.8125q0 -2.125 -0.5 -2.8125q-0.484375 -0.703125 -1.234375 -0.703125q-0.71875 0 -1.15625 0.609375q-0.546875 0.78125 -0.546875 2.90625zm6.158203 4.234375l0 -1.203125l1.203125 0l0 1.203125q0 0.65625 -0.234375 1.0625q-0.234375 0.421875 -0.734375 0.640625l-0.296875 -0.453125q0.328125 -0.140625 0.484375 -0.4375q0.15625 -0.28125 0.1875 -0.8125l-0.609375 0zm9.480469 0l0 -2.0625l-3.71875 0l0 -0.96875l3.921875 -5.5625l0.859375 0l0 5.5625l1.15625 0l0 0.96875l-1.15625 0l0 2.0625l-1.0625 0zm0 -3.03125l0 -3.859375l-2.6875 3.859375l2.6875 0zm5.361328 5.421875l-2.328125 0l0 -0.875l1.265625 0l0 -9.234375l-1.265625 0l0 -0.875l2.328125 0l0 10.984375z" fill-rule="nonzero"/><path fill="#ffffff" d="m395.2313 127.068016l0 0c0 -18.560242 15.046051 -33.6063 33.606323 -33.6063l0 0c8.912933 0 17.460815 3.540657 23.763245 9.843063c6.3023987 6.3023987 9.843048 14.850296 9.843048 23.763237l0 0c0 18.56025 -15.046051 33.6063 -33.606293 33.6063l0 0c-18.560272 0 -33.606323 -15.046051 -33.606323 -33.6063z" fill-rule="evenodd"/><path stroke="#000000" stroke-width="1.0" stroke-linejoin="round" stroke-linecap="butt" d="m395.2313 127.068016l0 0c0 -18.560242 15.046051 -33.6063 33.606323 -33.6063l0 0c8.912933 0 17.460815 3.540657 23.763245 9.843063c6.3023987 6.3023987 9.843048 14.850296 9.843048 23.763237l0 0c0 18.56025 -15.046051 33.6063 -33.606293 33.6063l0 0c-18.560272 0 -33.606323 -15.046051 -33.606323 -33.6063z" fill-rule="evenodd"/><path fill="#000000" d="m416.30832 133.97864l0 -10.984367l2.328125 0l0 0.875l-1.265625 0l0 9.234367l1.265625 0l0 0.875l-2.328125 0zm3.0214844 -6.6249924q0 -1.53125 0.3125 -2.453125q0.3125 -0.9375 0.921875 -1.4375q0.625 -0.5 1.5625 -0.5q0.6875 0 1.203125 0.28125q0.53125 0.28125 0.875 0.8125q0.34375 0.515625 0.53125 1.265625q0.1875 0.75 0.1875 2.03125q0 1.5156174 -0.3125 2.4374924q-0.296875 0.921875 -0.921875 1.4375q-0.609375 0.5 -1.5625 0.5q-1.234375 0 -1.953125 -0.890625q-0.84375 -1.0625 -0.84375 -3.4843674zm1.078125 0q0 2.1093674 0.5 2.8124924q0.5 0.703125 1.21875 0.703125q0.734375 0 1.21875 -0.703125q0.5 -0.703125 0.5 -2.8124924q0 -2.125 -0.5 -2.8125q-0.484375 -0.703125 -1.234375 -0.703125q-0.71875 0 -1.15625 0.609375q-0.546875 0.78125 -0.546875 2.90625zm6.158203 4.2343674l0 -1.203125l1.203125 0l0 1.203125q0 0.65625 -0.234375 1.0625q-0.234375 0.421875 -0.734375 0.640625l-0.296875 -0.453125q0.328125 -0.140625 0.484375 -0.4375q0.15625 -0.28125 0.1875 -0.8125l-0.609375 0zm6.1054688 -2.265625l1.0625 -0.140625q0.171875 0.890625 0.609375 1.296875q0.4375 0.390625 1.0625 0.390625q0.75 0 1.265625 -0.515625q0.515625 -0.515625 0.515625 -1.28125q0 -0.71875 -0.484375 -1.1874924q-0.46875 -0.484375 -1.203125 -0.484375q-0.296875 0 -0.75 0.125l0.125 -0.9375q0.109375 0.015625 0.171875 0.015625q0.671875 0 1.203125 -0.34375q0.546875 -0.359375 0.546875 -1.09375q0 -0.578125 -0.390625 -0.953125q-0.390625 -0.390625 -1.015625 -0.390625q-0.609375 0 -1.03125 0.390625q-0.40625 0.390625 -0.515625 1.15625l-1.0625 -0.1875q0.1875 -1.046875 0.875 -1.625q0.6875 -0.59375 1.703125 -0.59375q0.703125 0 1.296875 0.3125q0.59375 0.296875 0.90625 0.8125q0.3125 0.515625 0.3125 1.109375q0 0.546875 -0.296875 1.015625q-0.296875 0.453125 -0.875 0.71875q0.75 0.171875 1.171875 0.734375q0.421875 0.5468674 0.421875 1.3906174q0 1.125 -0.828125 1.90625q-0.8125 0.78125 -2.0625 0.78125q-1.125 0 -1.875 -0.671875q-0.75 -0.6875 -0.859375 -1.75zm8.736328 4.65625l-2.328125 0l0 -0.875l1.265625 0l0 -9.234367l-1.265625 0l0 -0.875l2.328125 0l0 10.984367z" fill-rule="nonzero"/><path fill="#ffffff" d="m529.6565 127.068016l0 0c0 -18.560242 15.046082 -33.6063 33.606323 -33.6063l0 0c8.912903 0 17.460815 3.540657 23.763245 9.843063c6.302368 6.3023987 9.843018 14.850296 9.843018 23.763237l0 0c0 18.56025 -15.0460205 33.6063 -33.606262 33.6063l0 0c-18.560242 0 -33.606323 -15.046051 -33.606323 -33.6063z" fill-rule="evenodd"/><path stroke="#000000" stroke-width="1.0" stroke-linejoin="round" stroke-linecap="butt" d="m529.6565 127.068016l0 0c0 -18.560242 15.046082 -33.6063 33.606323 -33.6063l0 0c8.912903 0 17.460815 3.540657 23.763245 9.843063c6.302368 6.3023987 9.843018 14.850296 9.843018 23.763237l0 0c0 18.56025 -15.0460205 33.6063 -33.606262 33.6063l0 0c-18.560242 0 -33.606323 -15.046051 -33.606323 -33.6063z" fill-rule="evenodd"/><path fill="#000000" d="m550.7335 133.97864l0 -10.984367l2.328125 0l0 0.875l-1.265625 0l0 9.234367l1.265625 0l0 0.875l-2.328125 0zm8.568359 -3.40625l0 1.015625l-5.6875 0q0 -0.375 0.125 -0.734375q0.21875 -0.578125 0.6875 -1.140625q0.484375 -0.5625 1.390625 -1.296875q1.40625 -1.1562424 1.890625 -1.8281174q0.5 -0.671875 0.5 -1.265625q0 -0.625 -0.453125 -1.046875q-0.453125 -0.4375 -1.171875 -0.4375q-0.765625 0 -1.21875 0.453125q-0.453125 0.453125 -0.46875 1.265625l-1.078125 -0.109375q0.109375 -1.21875 0.828125 -1.84375q0.734375 -0.640625 1.96875 -0.640625q1.234375 0 1.953125 0.6875q0.71875 0.6875 0.71875 1.703125q0 0.515625 -0.21875 1.015625q-0.203125 0.484375 -0.703125 1.046875q-0.484375 0.546875 -1.609375 1.4999924q-0.953125 0.796875 -1.234375 1.09375q-0.265625 0.28125 -0.4375 0.5625l4.21875 0zm1.6894531 1.015625l0 -1.203125l1.203125 0l0 1.203125q0 0.65625 -0.234375 1.0625q-0.234375 0.421875 -0.734375 0.640625l-0.296875 -0.453125q0.328125 -0.140625 0.484375 -0.4375q0.15625 -0.28125 0.1875 -0.8125l-0.609375 0zm9.480469 0l0 -2.0625l-3.71875 0l0 -0.96875l3.921875 -5.5624924l0.859375 0l0 5.5624924l1.15625 0l0 0.96875l-1.15625 0l0 2.0625l-1.0625 0zm0 -3.03125l0 -3.8593674l-2.6875 3.8593674l2.6875 0zm5.361328 5.421875l-2.328125 0l0 -0.875l1.265625 0l0 -9.234367l-1.265625 0l0 -0.875l2.328125 0l0 10.984367z" fill-rule="nonzero"/><path fill="#ffffff" d="m395.2313 228.58246l0 0c0 -18.560257 15.046051 -33.606308 33.606323 -33.606308l0 0c8.912933 0 17.460815 3.5406647 23.763245 9.843063c6.3023987 6.3023987 9.843048 14.850296 9.843048 23.763245l0 0c0 18.560242 -15.046051 33.606293 -33.606293 33.606293l0 0c-18.560272 0 -33.606323 -15.046051 -33.606323 -33.606293z" fill-rule="evenodd"/><path stroke="#000000" stroke-width="1.0" stroke-linejoin="round" stroke-linecap="butt" d="m395.2313 228.58246l0 0c0 -18.560257 15.046051 -33.606308 33.606323 -33.606308l0 0c8.912933 0 17.460815 3.5406647 23.763245 9.843063c6.3023987 6.3023987 9.843048 14.850296 9.843048 23.763245l0 0c0 18.560242 -15.046051 33.606293 -33.606293 33.606293l0 0c-18.560272 0 -33.606323 -15.046051 -33.606323 -33.606293z" fill-rule="evenodd"/><path fill="#000000" d="m416.30832 235.49307l0 -10.984375l2.328125 0l0 0.875l-1.265625 0l0 9.234375l1.265625 0l0 0.875l-2.328125 0zm6.9902344 -2.390625l-1.046875 0l0 -6.71875q-0.390625 0.359375 -1.015625 0.734375q-0.609375 0.359375 -1.09375 0.53125l0 -1.015625q0.875 -0.421875 1.53125 -1.0q0.671875 -0.59375 0.953125 -1.15625l0.671875 0l0 8.625zm3.2675781 0l0 -1.203125l1.203125 0l0 1.203125q0 0.65625 -0.234375 1.0625q-0.234375 0.421875 -0.734375 0.640625l-0.296875 -0.453125q0.328125 -0.140625 0.484375 -0.4375q0.15625 -0.28125 0.1875 -0.8125l-0.609375 0zm6.1054688 -2.265625l1.0625 -0.140625q0.171875 0.890625 0.609375 1.296875q0.4375 0.390625 1.0625 0.390625q0.75 0 1.265625 -0.515625q0.515625 -0.515625 0.515625 -1.28125q0 -0.71875 -0.484375 -1.1875q-0.46875 -0.484375 -1.203125 -0.484375q-0.296875 0 -0.75 0.125l0.125 -0.9375q0.109375 0.015625 0.171875 0.015625q0.671875 0 1.203125 -0.34375q0.546875 -0.359375 0.546875 -1.09375q0 -0.578125 -0.390625 -0.953125q-0.390625 -0.390625 -1.015625 -0.390625q-0.609375 0 -1.03125 0.390625q-0.40625 0.390625 -0.515625 1.15625l-1.0625 -0.1875q0.1875 -1.046875 0.875 -1.625q0.6875 -0.59375 1.703125 -0.59375q0.703125 0 1.296875 0.3125q0.59375 0.296875 0.90625 0.8125q0.3125 0.515625 0.3125 1.109375q0 0.546875 -0.296875 1.015625q-0.296875 0.453125 -0.875 0.71875q0.75 0.171875 1.171875 0.734375q0.421875 0.546875 0.421875 1.390625q0 1.125 -0.828125 1.90625q-0.8125 0.78125 -2.0625 0.78125q-1.125 0 -1.875 -0.671875q-0.75 -0.6875 -0.859375 -1.75zm8.736328 4.65625l-2.328125 0l0 -0.875l1.265625 0l0 -9.234375l-1.265625 0l0 -0.875l2.328125 0l0 10.984375z" fill-rule="nonzero"/><path fill="#ffffff" d="m328.0187 310.78455l0 0c0 -18.560242 15.046051 -33.606293 33.606293 -33.606293l0 0c8.912964 0 17.460846 3.5406494 23.763245 9.843048c6.3023987 6.3023987 9.843048 14.850311 9.843048 23.763245l0 0c0 18.560242 -15.046051 33.606293 -33.606293 33.606293l0 0c-18.560242 0 -33.606293 -15.046051 -33.606293 -33.606293z" fill-rule="evenodd"/><path stroke="#000000" stroke-width="1.0" stroke-linejoin="round" stroke-linecap="butt" d="m328.0187 310.78455l0 0c0 -18.560242 15.046051 -33.606293 33.606293 -33.606293l0 0c8.912964 0 17.460846 3.5406494 23.763245 9.843048c6.3023987 6.3023987 9.843048 14.850311 9.843048 23.763245l0 0c0 18.560242 -15.046051 33.606293 -33.606293 33.606293l0 0c-18.560242 0 -33.606293 -15.046051 -33.606293 -33.606293z" fill-rule="evenodd"/><path fill="#000000" d="m349.0957 317.6952l0 -10.984375l2.328125 0l0 0.875l-1.265625 0l0 9.234375l1.265625 0l0 0.875l-2.328125 0zm6.9902344 -2.390625l-1.046875 0l0 -6.71875q-0.390625 0.359375 -1.015625 0.734375q-0.609375 0.359375 -1.09375 0.53125l0 -1.015625q0.875 -0.421875 1.53125 -1.0q0.671875 -0.59375 0.953125 -1.15625l0.671875 0l0 8.625zm3.2675781 0l0 -1.203125l1.203125 0l0 1.203125q0 0.65625 -0.234375 1.0625q-0.234375 0.421875 -0.734375 0.640625l-0.296875 -0.453125q0.328125 -0.140625 0.484375 -0.4375q0.15625 -0.28125 0.1875 -0.8125l-0.609375 0zm6.1054688 -4.234375q0 -1.53125 0.3125 -2.453125q0.3125 -0.9375 0.921875 -1.4375q0.625 -0.5 1.5625 -0.5q0.6875 0 1.203125 0.28125q0.53125 0.28125 0.875 0.8125q0.34375 0.515625 0.53125 1.265625q0.1875 0.75 0.1875 2.03125q0 1.515625 -0.3125 2.4375q-0.296875 0.921875 -0.921875 1.4375q-0.609375 0.5 -1.5625 0.5q-1.234375 0 -1.953125 -0.890625q-0.84375 -1.0625 -0.84375 -3.484375zm1.078125 0q0 2.109375 0.5 2.8125q0.5 0.703125 1.21875 0.703125q0.734375 0 1.21875 -0.703125q0.5 -0.703125 0.5 -2.8125q0 -2.125 -0.5 -2.8125q-0.484375 -0.703125 -1.234375 -0.703125q-0.71875 0 -1.15625 0.609375q-0.546875 0.78125 -0.546875 2.90625zm7.658203 6.625l-2.328125 0l0 -0.875l1.265625 0l0 -9.234375l-1.265625 0l0 -0.875l2.328125 0l0 10.984375z" fill-rule="nonzero"/><path fill="#ffffff" d="m462.4439 310.78455l0 0c0 -18.560242 15.046051 -33.606293 33.606293 -33.606293l0 0c8.912933 0 17.460846 3.5406494 23.763214 9.843048c6.302429 6.3023987 9.843079 14.850311 9.843079 23.763245l0 0c0 18.560242 -15.0460205 33.606293 -33.606293 33.606293l0 0c-18.560242 0 -33.606293 -15.046051 -33.606293 -33.606293z" fill-rule="evenodd"/><path stroke="#000000" stroke-width="1.0" stroke-linejoin="round" stroke-linecap="butt" d="m462.4439 310.78455l0 0c0 -18.560242 15.046051 -33.606293 33.606293 -33.606293l0 0c8.912933 0 17.460846 3.5406494 23.763214 9.843048c6.302429 6.3023987 9.843079 14.850311 9.843079 23.763245l0 0c0 18.560242 -15.0460205 33.606293 -33.606293 33.606293l0 0c-18.560242 0 -33.606293 -15.046051 -33.606293 -33.606293z" fill-rule="evenodd"/><path fill="#000000" d="m483.5209 317.6952l0 -10.984375l2.328125 0l0 0.875l-1.265625 0l0 9.234375l1.265625 0l0 0.875l-2.328125 0zm6.9902344 -2.390625l-1.046875 0l0 -6.71875q-0.390625 0.359375 -1.015625 0.734375q-0.609375 0.359375 -1.09375 0.53125l0 -1.015625q0.875 -0.421875 1.53125 -1.0q0.671875 -0.59375 0.953125 -1.15625l0.671875 0l0 8.625zm3.2675781 0l0 -1.203125l1.203125 0l0 1.203125q0 0.65625 -0.234375 1.0625q-0.234375 0.421875 -0.734375 0.640625l-0.296875 -0.453125q0.328125 -0.140625 0.484375 -0.4375q0.15625 -0.28125 0.1875 -0.8125l-0.609375 0zm9.480469 0l0 -2.0625l-3.71875 0l0 -0.96875l3.921875 -5.5625l0.859375 0l0 5.5625l1.15625 0l0 0.96875l-1.15625 0l0 2.0625l-1.0625 0zm0 -3.03125l0 -3.859375l-2.6875 3.859375l2.6875 0zm5.361328 5.421875l-2.328125 0l0 -0.875l1.265625 0l0 -9.234375l-1.265625 0l0 -0.875l2.328125 0l0 10.984375z" fill-rule="nonzero"/><path fill="#ffffff" d="m395.2313 403.14413l0 0c0 -18.560242 15.046051 -33.606293 33.606323 -33.606293l0 0c8.912933 0 17.460815 3.5406494 23.763245 9.843048c6.3023987 6.3023987 9.843048 14.850311 9.843048 23.763245l0 0c0 18.560242 -15.046051 33.606293 -33.606293 33.606293l0 0c-18.560272 0 -33.606323 -15.046051 -33.606323 -33.606293z" fill-rule="evenodd"/><path stroke="#000000" stroke-width="1.0" stroke-linejoin="round" stroke-linecap="butt" d="m395.2313 403.14413l0 0c0 -18.560242 15.046051 -33.606293 33.606323 -33.606293l0 0c8.912933 0 17.460815 3.5406494 23.763245 9.843048c6.3023987 6.3023987 9.843048 14.850311 9.843048 23.763245l0 0c0 18.560242 -15.046051 33.606293 -33.606293 33.606293l0 0c-18.560272 0 -33.606323 -15.046051 -33.606323 -33.606293z" fill-rule="evenodd"/><path fill="#000000" d="m416.30832 410.05475l0 -10.984375l2.328125 0l0 0.875l-1.265625 0l0 9.234375l1.265625 0l0 0.875l-2.328125 0zm8.568359 -3.40625l0 1.015625l-5.6875 0q0 -0.375 0.125 -0.734375q0.21875 -0.578125 0.6875 -1.140625q0.484375 -0.5625 1.390625 -1.296875q1.40625 -1.15625 1.890625 -1.828125q0.5 -0.671875 0.5 -1.265625q0 -0.625 -0.453125 -1.046875q-0.453125 -0.4375 -1.171875 -0.4375q-0.765625 0 -1.21875 0.453125q-0.453125 0.453125 -0.46875 1.265625l-1.078125 -0.109375q0.109375 -1.21875 0.828125 -1.84375q0.734375 -0.640625 1.96875 -0.640625q1.234375 0 1.953125 0.6875q0.71875 0.6875 0.71875 1.703125q0 0.515625 -0.21875 1.015625q-0.203125 0.484375 -0.703125 1.046875q-0.484375 0.546875 -1.609375 1.5q-0.953125 0.796875 -1.234375 1.09375q-0.265625 0.28125 -0.4375 0.5625l4.21875 0zm1.6894531 1.015625l0 -1.203125l1.203125 0l0 1.203125q0 0.65625 -0.234375 1.0625q-0.234375 0.421875 -0.734375 0.640625l-0.296875 -0.453125q0.328125 -0.140625 0.484375 -0.4375q0.15625 -0.28125 0.1875 -0.8125l-0.609375 0zm6.1054688 -4.234375q0 -1.53125 0.3125 -2.453125q0.3125 -0.9375 0.921875 -1.4375q0.625 -0.5 1.5625 -0.5q0.6875 0 1.203125 0.28125q0.53125 0.28125 0.875 0.8125q0.34375 0.515625 0.53125 1.265625q0.1875 0.75 0.1875 2.03125q0 1.515625 -0.3125 2.4375q-0.296875 0.921875 -0.921875 1.4375q-0.609375 0.5 -1.5625 0.5q-1.234375 0 -1.953125 -0.890625q-0.84375 -1.0625 -0.84375 -3.484375zm1.078125 0q0 2.109375 0.5 2.8125q0.5 0.703125 1.21875 0.703125q0.734375 0 1.21875 -0.703125q0.5 -0.703125 0.5 -2.8125q0 -2.125 -0.5 -2.8125q-0.484375 -0.703125 -1.234375 -0.703125q-0.71875 0 -1.15625 0.609375q-0.546875 0.78125 -0.546875 2.90625zm7.658203 6.625l-2.328125 0l0 -0.875l1.265625 0l0 -9.234375l-1.265625 0l0 -0.875l2.328125 0l0 10.984375z" fill-rule="nonzero"/><path fill="#ffffff" d="m395.2313 504.20187l0 0c0 -18.560242 15.046051 -33.606293 33.606323 -33.606293l0 0c8.912933 0 17.460815 3.5406494 23.763245 9.843048c6.3023987 6.3023987 9.843048 14.850311 9.843048 23.763245l0 0c0 18.560272 -15.046051 33.606293 -33.606293 33.606293l0 0c-18.560272 0 -33.606323 -15.0460205 -33.606323 -33.606293z" fill-rule="evenodd"/><path stroke="#000000" stroke-width="1.0" stroke-linejoin="round" stroke-linecap="butt" d="m395.2313 504.20187l0 0c0 -18.560242 15.046051 -33.606293 33.606323 -33.606293l0 0c8.912933 0 17.460815 3.5406494 23.763245 9.843048c6.3023987 6.3023987 9.843048 14.850311 9.843048 23.763245l0 0c0 18.560272 -15.046051 33.606293 -33.606293 33.606293l0 0c-18.560272 0 -33.606323 -15.0460205 -33.606323 -33.606293z" fill-rule="evenodd"/><path fill="#000000" d="m416.30832 511.1125l0 -10.984375l2.328125 0l0 0.875l-1.265625 0l0 9.234375l1.265625 0l0 0.875l-2.328125 0zm8.568359 -3.40625l0 1.015625l-5.6875 0q0 -0.375 0.125 -0.734375q0.21875 -0.578125 0.6875 -1.140625q0.484375 -0.5625 1.390625 -1.296875q1.40625 -1.15625 1.890625 -1.828125q0.5 -0.671875 0.5 -1.265625q0 -0.625 -0.453125 -1.046875q-0.453125 -0.4375 -1.171875 -0.4375q-0.765625 0 -1.21875 0.453125q-0.453125 0.453125 -0.46875 1.265625l-1.078125 -0.109375q0.109375 -1.21875 0.828125 -1.84375q0.734375 -0.640625 1.96875 -0.640625q1.234375 0 1.953125 0.6875q0.71875 0.6875 0.71875 1.703125q0 0.515625 -0.21875 1.015625q-0.203125 0.484375 -0.703125 1.046875q-0.484375 0.546875 -1.609375 1.5q-0.953125 0.796875 -1.234375 1.09375q-0.265625 0.28125 -0.4375 0.5625l4.21875 0zm1.6894531 1.015625l0 -1.203125l1.203125 0l0 1.203125q0 0.65625 -0.234375 1.0625q-0.234375 0.421875 -0.734375 0.640625l-0.296875 -0.453125q0.328125 -0.140625 0.484375 -0.4375q0.15625 -0.28125 0.1875 -0.8125l-0.609375 0zm11.652344 -1.015625l0 1.015625l-5.6875 0q0 -0.375 0.125 -0.734375q0.21875 -0.578125 0.6875 -1.140625q0.484375 -0.5625 1.390625 -1.296875q1.40625 -1.15625 1.890625 -1.828125q0.5 -0.671875 0.5 -1.265625q0 -0.625 -0.453125 -1.046875q-0.453125 -0.4375 -1.171875 -0.4375q-0.765625 0 -1.21875 0.453125q-0.453125 0.453125 -0.46875 1.265625l-1.078125 -0.109375q0.109375 -1.21875 0.828125 -1.84375q0.734375 -0.640625 1.96875 -0.640625q1.234375 0 1.953125 0.6875q0.71875 0.6875 0.71875 1.703125q0 0.515625 -0.21875 1.015625q-0.203125 0.484375 -0.703125 1.046875q-0.484375 0.546875 -1.609375 1.5q-0.953125 0.796875 -1.234375 1.09375q-0.265625 0.28125 -0.4375 0.5625l4.21875 0zm3.1894531 3.40625l-2.328125 0l0 -0.875l1.265625 0l0 -9.234375l-1.265625 0l0 -0.875l2.328125 0l0 10.984375z" fill-rule="nonzero"/><path fill="#ffffff" d="m328.0187 588.08374l0 0c0 -18.560242 15.046051 -33.606262 33.606293 -33.606262l0 0c8.912964 0 17.460846 3.5406494 23.763245 9.843018c6.3023987 6.302429 9.843048 14.850342 9.843048 23.763245l0 0c0 18.560242 -15.046051 33.606323 -33.606293 33.606323l0 0c-18.560242 0 -33.606293 -15.046082 -33.606293 -33.606323z" fill-rule="evenodd"/><path stroke="#000000" stroke-width="1.0" stroke-linejoin="round" stroke-linecap="butt" d="m328.0187 588.08374l0 0c0 -18.560242 15.046051 -33.606262 33.606293 -33.606262l0 0c8.912964 0 17.460846 3.5406494 23.763245 9.843018c6.3023987 6.302429 9.843048 14.850342 9.843048 23.763245l0 0c0 18.560242 -15.046051 33.606323 -33.606293 33.606323l0 0c-18.560242 0 -33.606293 -15.046082 -33.606293 -33.606323z" fill-rule="evenodd"/><path fill="#000000" d="m349.0957 594.9944l0 -10.984375l2.328125 0l0 0.875l-1.265625 0l0 9.234375l1.265625 0l0 0.875l-2.328125 0zm6.9902344 -2.390625l-1.046875 0l0 -6.71875q-0.390625 0.359375 -1.015625 0.734375q-0.609375 0.359375 -1.09375 0.53125l0 -1.015625q0.875 -0.421875 1.53125 -1.0q0.671875 -0.59375 0.953125 -1.15625l0.671875 0l0 8.625zm3.2675781 0l0 -1.203125l1.203125 0l0 1.203125q0 0.65625 -0.234375 1.0625q-0.234375 0.421875 -0.734375 0.640625l-0.296875 -0.453125q0.328125 -0.140625 0.484375 -0.4375q0.15625 -0.28125 0.1875 -0.8125l-0.609375 0zm11.652344 -1.015625l0 1.015625l-5.6875 0q0 -0.375 0.125 -0.734375q0.21875 -0.578125 0.6875 -1.140625q0.484375 -0.5625 1.390625 -1.296875q1.40625 -1.15625 1.890625 -1.828125q0.5 -0.671875 0.5 -1.265625q0 -0.625 -0.453125 -1.046875q-0.453125 -0.4375 -1.171875 -0.4375q-0.765625 0 -1.21875 0.453125q-0.453125 0.453125 -0.46875 1.265625l-1.078125 -0.109375q0.109375 -1.21875 0.828125 -1.84375q0.734375 -0.640625 1.96875 -0.640625q1.234375 0 1.953125 0.6875q0.71875 0.6875 0.71875 1.703125q0 0.515625 -0.21875 1.015625q-0.203125 0.484375 -0.703125 1.046875q-0.484375 0.546875 -1.609375 1.5q-0.953125 0.796875 -1.234375 1.09375q-0.265625 0.28125 -0.4375 0.5625l4.21875 0zm3.1894531 3.40625l-2.328125 0l0 -0.875l1.265625 0l0 -9.234375l-1.265625 0l0 -0.875l2.328125 0l0 10.984375z" fill-rule="nonzero"/><path fill="#ffffff" d="m462.4439 588.08374l0 0c0 -18.560242 15.046051 -33.606262 33.606293 -33.606262l0 0c8.912933 0 17.460846 3.5406494 23.763214 9.843018c6.302429 6.302429 9.843079 14.850342 9.843079 23.763245l0 0c0 18.560242 -15.0460205 33.606323 -33.606293 33.606323l0 0c-18.560242 0 -33.606293 -15.046082 -33.606293 -33.606323z" fill-rule="evenodd"/><path stroke="#000000" stroke-width="1.0" stroke-linejoin="round" stroke-linecap="butt" d="m462.4439 588.08374l0 0c0 -18.560242 15.046051 -33.606262 33.606293 -33.606262l0 0c8.912933 0 17.460846 3.5406494 23.763214 9.843018c6.302429 6.302429 9.843079 14.850342 9.843079 23.763245l0 0c0 18.560242 -15.0460205 33.606323 -33.606293 33.606323l0 0c-18.560242 0 -33.606293 -15.046082 -33.606293 -33.606323z" fill-rule="evenodd"/><path fill="#000000" d="m483.5209 594.9944l0 -10.984375l2.328125 0l0 0.875l-1.265625 0l0 9.234375l1.265625 0l0 0.875l-2.328125 0zm6.3964844 -2.390625l0 -2.0625l-3.71875 0l0 -0.96875l3.921875 -5.5625l0.859375 0l0 5.5625l1.15625 0l0 0.96875l-1.15625 0l0 2.0625l-1.0625 0zm0 -3.03125l0 -3.859375l-2.6875 3.859375l2.6875 0zm3.8613281 3.03125l0 -1.203125l1.203125 0l0 1.203125q0 0.65625 -0.234375 1.0625q-0.234375 0.421875 -0.734375 0.640625l-0.296875 -0.453125q0.328125 -0.140625 0.484375 -0.4375q0.15625 -0.28125 0.1875 -0.8125l-0.609375 0zm11.652344 -1.015625l0 1.015625l-5.6875 0q0 -0.375 0.125 -0.734375q0.21875 -0.578125 0.6875 -1.140625q0.484375 -0.5625 1.390625 -1.296875q1.40625 -1.15625 1.890625 -1.828125q0.5 -0.671875 0.5 -1.265625q0 -0.625 -0.453125 -1.046875q-0.453125 -0.4375 -1.171875 -0.4375q-0.765625 0 -1.21875 0.453125q-0.453125 0.453125 -0.46875 1.265625l-1.078125 -0.109375q0.109375 -1.21875 0.828125 -1.84375q0.734375 -0.640625 1.96875 -0.640625q1.234375 0 1.953125 0.6875q0.71875 0.6875 0.71875 1.703125q0 0.515625 -0.21875 1.015625q-0.203125 0.484375 -0.703125 1.046875q-0.484375 0.546875 -1.609375 1.5q-0.953125 0.796875 -1.234375 1.09375q-0.265625 0.28125 -0.4375 0.5625l4.21875 0zm3.1894531 3.40625l-2.328125 0l0 -0.875l1.265625 0l0 -9.234375l-1.265625 0l0 -0.875l2.328125 0l0 10.984375z" fill-rule="nonzero"/><path fill="#ffffff" d="m395.2313 671.96564l0 0c0 -18.560242 15.046051 -33.606262 33.606323 -33.606262l0 0c8.912933 0 17.460815 3.5406494 23.763245 9.843018c6.3023987 6.302429 9.843048 14.850342 9.843048 23.763245l0 0c0 18.560242 -15.046051 33.606323 -33.606293 33.606323l0 0c-18.560272 0 -33.606323 -15.046082 -33.606323 -33.606323z" fill-rule="evenodd"/><path stroke="#000000" stroke-width="1.0" stroke-linejoin="round" stroke-linecap="butt" d="m395.2313 671.96564l0 0c0 -18.560242 15.046051 -33.606262 33.606323 -33.606262l0 0c8.912933 0 17.460815 3.5406494 23.763245 9.843018c6.3023987 6.302429 9.843048 14.850342 9.843048 23.763245l0 0c0 18.560242 -15.046051 33.606323 -33.606293 33.606323l0 0c-18.560272 0 -33.606323 -15.046082 -33.606323 -33.606323z" fill-rule="evenodd"/><path fill="#000000" d="m416.30832 678.8763l0 -10.984375l2.328125 0l0 0.875l-1.265625 0l0 9.234375l1.265625 0l0 0.875l-2.328125 0zm6.3964844 -2.390625l0 -2.0625l-3.71875 0l0 -0.96875l3.921875 -5.5625l0.859375 0l0 5.5625l1.15625 0l0 0.96875l-1.15625 0l0 2.0625l-1.0625 0zm0 -3.03125l0 -3.859375l-2.6875 3.859375l2.6875 0zm3.8613281 3.03125l0 -1.203125l1.203125 0l0 1.203125q0 0.65625 -0.234375 1.0625q-0.234375 0.421875 -0.734375 0.640625l-0.296875 -0.453125q0.328125 -0.140625 0.484375 -0.4375q0.15625 -0.28125 0.1875 -0.8125l-0.609375 0zm6.1054688 -4.234375q0 -1.53125 0.3125 -2.453125q0.3125 -0.9375 0.921875 -1.4375q0.625 -0.5 1.5625 -0.5q0.6875 0 1.203125 0.28125q0.53125 0.28125 0.875 0.8125q0.34375 0.515625 0.53125 1.265625q0.1875 0.75 0.1875 2.03125q0 1.515625 -0.3125 2.4375q-0.296875 0.921875 -0.921875 1.4375q-0.609375 0.5 -1.5625 0.5q-1.234375 0 -1.953125 -0.890625q-0.84375 -1.0625 -0.84375 -3.484375zm1.078125 0q0 2.109375 0.5 2.8125q0.5 0.703125 1.21875 0.703125q0.734375 0 1.21875 -0.703125q0.5 -0.703125 0.5 -2.8125q0 -2.125 -0.5 -2.8125q-0.484375 -0.703125 -1.234375 -0.703125q-0.71875 0 -1.15625 0.609375q-0.546875 0.78125 -0.546875 2.90625zm7.658203 6.625l-2.328125 0l0 -0.875l1.265625 0l0 -9.234375l-1.265625 0l0 -0.875l2.328125 0l0 10.984375z" fill-rule="nonzero"/><path fill="#ffffff" d="m529.6565 671.96564l0 0c0 -18.560242 15.046082 -33.606262 33.606323 -33.606262l0 0c8.912903 0 17.460815 3.5406494 23.763245 9.843018c6.302368 6.302429 9.843018 14.850342 9.843018 23.763245l0 0c0 18.560242 -15.0460205 33.606323 -33.606262 33.606323l0 0c-18.560242 0 -33.606323 -15.046082 -33.606323 -33.606323z" fill-rule="evenodd"/><path stroke="#cc0000" stroke-width="4.0" stroke-linejoin="round" stroke-linecap="butt" d="m529.6565 671.96564l0 0c0 -18.560242 15.046082 -33.606262 33.606323 -33.606262l0 0c8.912903 0 17.460815 3.5406494 23.763245 9.843018c6.302368 6.302429 9.843018 14.850342 9.843018 23.763245l0 0c0 18.560242 -15.0460205 33.606323 -33.606262 33.606323l0 0c-18.560242 0 -33.606323 -15.046082 -33.606323 -33.606323z" fill-rule="evenodd"/><path fill="#000000" d="m550.7335 678.8763l0 -10.984375l2.328125 0l0 0.875l-1.265625 0l0 9.234375l1.265625 0l0 0.875l-2.328125 0zm6.3964844 -2.390625l0 -2.0625l-3.71875 0l0 -0.96875l3.921875 -5.5625l0.859375 0l0 5.5625l1.15625 0l0 0.96875l-1.15625 0l0 2.0625l-1.0625 0zm0 -3.03125l0 -3.859375l-2.6875 3.859375l2.6875 0zm3.8613281 3.03125l0 -1.203125l1.203125 0l0 1.203125q0 0.65625 -0.234375 1.0625q-0.234375 0.421875 -0.734375 0.640625l-0.296875 -0.453125q0.328125 -0.140625 0.484375 -0.4375q0.15625 -0.28125 0.1875 -0.8125l-0.609375 0zm9.480469 0l0 -2.0625l-3.71875 0l0 -0.96875l3.921875 -5.5625l0.859375 0l0 5.5625l1.15625 0l0 0.96875l-1.15625 0l0 2.0625l-1.0625 0zm0 -3.03125l0 -3.859375l-2.6875 3.859375l2.6875 0zm5.361328 5.421875l-2.328125 0l0 -0.875l1.265625 0l0 -9.234375l-1.265625 0l0 -0.875l2.328125 0l0 10.984375z" fill-rule="nonzero"/><path fill="#000000" fill-opacity="0.0" d="m462.4439 49.644135c-16.803162 0 -33.606293 21.90551 -33.606293 43.81102" fill-rule="evenodd"/><path stroke="#000000" stroke-width="1.0" stroke-linejoin="round" stroke-linecap="butt" d="m462.4439 49.64413c-8.401581 0 -16.803162 5.4763794 -23.10434 13.690945c-3.1506042 4.1072845 -5.7760925 8.8991165 -7.613922 14.033218c-0.9189148 2.5670547 -1.6409302 5.219673 -2.1332092 7.915077c-0.12307739 0.67385864 -0.231781 1.3503723 -0.32562256 2.0289001l-0.020843506 0.15679932" fill-rule="evenodd"/><path fill="#000000" stroke="#000000" stroke-width="1.0" stroke-linecap="butt" d="m427.59808 87.35664l1.3390198 4.6399994l1.9567871 -4.415146z" fill-rule="evenodd"/><path fill="#000000" fill-opacity="0.0" d="m529.6565 49.644135c16.803162 0 33.606323 21.90551 33.606323 43.81102" fill-rule="evenodd"/><path stroke="#000000" stroke-width="1.0" stroke-linejoin="round" stroke-linecap="butt" d="m529.6565 49.64413c8.40155 0 16.803162 5.4763794 23.10431 13.690945c3.1506348 4.1072845 5.776123 8.8991165 7.6139526 14.033218c0.9189453 2.5670547 1.6409302 5.219673 2.1331787 7.915077c0.12310791 0.67385864 0.23181152 1.3503723 0.32562256 2.0289001l0.020874023 0.15679932" fill-rule="evenodd"/><path fill="#000000" stroke="#000000" stroke-width="1.0" stroke-linecap="butt" d="m561.2065 87.5815l1.9567871 4.415146l1.3390503 -4.6399994z" fill-rule="evenodd"/><path fill="#000000" fill-opacity="0.0" d="m428.83762 160.67432c0 8.575485 0.01574707 12.863571 0.03149414 17.150986c0.01574707 4.2873993 0.03149414 8.574112 0.03149414 17.148224" fill-rule="evenodd"/><path stroke="#000000" stroke-width="1.0" stroke-linejoin="round" stroke-linecap="butt" d="m428.8376 160.67432c0 8.575485 0.01574707 12.863571 0.03149414 17.150986c0.007904053 2.143692 0.015777588 4.2872314 0.02166748 6.9665833l0.006652832 4.1816406" fill-rule="evenodd"/><path fill="#000000" stroke="#000000" stroke-width="1.0" stroke-linecap="butt" d="m427.24567 188.97441l1.6541443 4.537216l1.6493225 -4.538971z" fill-rule="evenodd"/><path fill="#000000" fill-opacity="0.0" d="m462.4439 228.58246c16.803131 0 33.606293 24.29921 33.606293 48.59842" fill-rule="evenodd"/><path stroke="#000000" stroke-width="1.0" stroke-linejoin="round" stroke-linecap="butt" d="m462.4439 228.58246c8.40155 0 16.803131 6.0747986 23.10431 15.186996c3.1506042 4.5561066 5.7760925 9.871567 7.6139526 15.566696c0.9189148 2.8475647 1.6408997 5.790039 2.1331787 8.779999c0.12307739 0.74746704 0.23181152 1.4979248 0.32562256 2.2505798c0.023468018 0.18817139 0.046020508 0.37649536 0.067596436 0.5649414l0.02835083 0.2584839" fill-rule="evenodd"/><path fill="#000000" stroke="#000000" stroke-width="1.0" stroke-linecap="butt" d="m494.06772 271.2819l1.9012756 4.439331l1.3970642 -4.6228333z" fill-rule="evenodd"/><path fill="#000000" fill-opacity="0.0" d="m395.2313 228.58246c-28.677155 0 -57.35431 29.212585 -57.35431 58.4252" fill-rule="evenodd"/><path stroke="#000000" stroke-width="1.0" stroke-linejoin="round" stroke-linecap="butt" d="m395.2313 228.58246c-14.338562 0 -28.677155 7.3031464 -39.43109 18.257874c-5.3769836 5.477356 -9.857788 11.867615 -12.994354 18.714325c-1.5682678 3.4233398 -2.8005066 6.9608154 -3.6406555 10.555328c-0.21002197 0.8986206 -0.39556885 1.8008118 -0.5557251 2.7056885c-0.08004761 0.4524231 -0.1538086 0.9055481 -0.22106934 1.3591919c-0.03366089 0.22683716 -0.06567383 0.4537964 -0.096069336 0.6809082l-0.020874023 0.16485596" fill-rule="evenodd"/><path fill="#000000" stroke="#000000" stroke-width="1.0" stroke-linecap="butt" d="m336.6233 280.91205l1.3497925 4.6368713l1.9465332 -4.4196777z" fill-rule="evenodd"/><path fill="#000000" fill-opacity="0.0" d="m462.4439 127.068016c4.929138 0 9.858276 -26.83464 9.858276 -53.66929" fill-rule="evenodd"/><path stroke="#000000" stroke-width="1.0" stroke-linejoin="round" stroke-linecap="butt" d="m462.4439 127.068016c2.464569 0 4.9291077 -6.708664 6.7775574 -16.771652c0.92419434 -5.031494 1.6943665 -10.901573 2.23349 -17.190948c0.26956177 -3.1446838 0.48138428 -6.394188 0.62579346 -9.696114c0.036102295 -0.8254776 0.067993164 -1.6542282 0.09552002 -2.485443c0.013763428 -0.41560364 0.02645874 -0.83182526 0.038024902 -1.248558l0.0069274902 -0.2771225" fill-rule="evenodd"/><path fill="#000000" stroke="#000000" stroke-width="1.0" stroke-linecap="butt" d="m473.87277 79.42046l-1.590332 -4.559967l-1.7128296 4.515396z" fill-rule="evenodd"/><path fill="#000000" fill-opacity="0.0" d="m395.2313 228.58246c-12.5 0 -25.007874 -25.37796 -25.0 -50.755905c0.007873535 -25.37796 12.531494 -50.755913 25.063019 -50.755913" fill-rule="evenodd"/><path stroke="#000000" stroke-width="1.0" stroke-linejoin="round" stroke-linecap="butt" d="m395.2313 228.58246c-12.5 0 -25.007874 -25.37796 -25.0 -50.755905c0.0039367676 -12.68898 3.1368103 -25.37796 7.835144 -34.8947c2.3491516 -4.758362 5.089691 -8.723663 8.026154 -11.499374c0.73410034 -0.6939392 1.4804382 -1.3135071 2.236023 -1.8525391c0.37774658 -0.269516 0.757843 -0.51890564 1.1398621 -0.7473755l0.07675171 -0.044830322" fill-rule="evenodd"/><path fill="#000000" stroke="#000000" stroke-width="1.0" stroke-linecap="butt" d="m390.01794 130.37039l3.8755798 -2.8813782l-4.820984 -0.2839203z" fill-rule="evenodd"/><path fill="#000000" fill-opacity="0.0" d="m529.6565 127.068016c-4.929138 0 -9.858276 -26.83464 -9.858276 -53.66929" fill-rule="evenodd"/><path stroke="#000000" stroke-width="1.0" stroke-linejoin="round" stroke-linecap="butt" d="m529.6565 127.068016c-2.4645386 0 -4.929138 -6.708664 -6.777527 -16.771652c-0.9242554 -5.031494 -1.694397 -10.901573 -2.2335205 -17.190948c-0.2695923 -3.1446838 -0.48138428 -6.394188 -0.62579346 -9.696114c-0.036071777 -0.8254776 -0.067993164 -1.6542282 -0.09552002 -2.485443c-0.013793945 -0.41560364 -0.026428223 -0.83182526 -0.038024902 -1.248558l-0.0068969727 -0.2771225" fill-rule="evenodd"/><path fill="#000000" stroke="#000000" stroke-width="1.0" stroke-linecap="butt" d="m521.53076 79.37589l-1.7128296 -4.515396l-1.590332 4.559967z" fill-rule="evenodd"/><path fill="#000000" fill-opacity="0.0" d="m529.6565 310.78455c66.08124 0 124.00879 -72.96336 132.16241 -135.99913c8.1536255 -63.03575 -33.466797 -116.14389 -71.010315 -135.99911c-37.54358 -19.855236 -71.010376 -6.4575653 -71.010376 -12.915125" fill-rule="evenodd"/><path stroke="#000000" stroke-width="1.0" stroke-linejoin="round" stroke-linecap="butt" d="m529.6565 310.78455c66.08118 0 124.00879 -72.96338 132.16241 -135.99913c8.1536255 -63.03575 -33.466736 -116.14389 -71.010376 -135.99911c-18.771729 -9.927618 -36.524353 -11.542009 -49.583984 -11.481689c-6.529785 0.03015709 -11.886353 0.47899437 -15.610474 0.5166931l-0.14178467 4.272461E-4" fill-rule="evenodd"/><path fill="#000000" stroke="#000000" stroke-width="1.0" stroke-linecap="butt" d="m526.0093 26.259712l-4.8285522 0.086709976l3.7546387 3.0373173z" fill-rule="evenodd"/><path fill="#000000" fill-opacity="0.0" d="m385.38824 334.5478c0 11.208313 4.9212646 16.81427 9.842529 22.416626c4.9212646 5.602356 9.842499 11.201141 9.842499 22.402283" fill-rule="evenodd"/><path stroke="#000000" stroke-width="1.0" stroke-linejoin="round" stroke-linecap="butt" d="m385.38824 334.5478c0 11.208313 4.9212646 16.81424 9.842529 22.416626c2.4606323 2.801178 4.9212646 5.6014404 6.7667236 9.101624c0.9227295 1.7500305 1.6916809 3.6750488 2.22995 5.8626404c0.06729126 0.27346802 0.13095093 0.55096436 0.19088745 0.8327942c0.029937744 0.14093018 0.05899048 0.28292847 0.08703613 0.42599487l0.038085938 0.20266724" fill-rule="evenodd"/><path fill="#000000" stroke="#000000" stroke-width="1.0" stroke-linecap="butt" d="m402.8982 373.53595l2.04599 4.374542l1.2445679 -4.6662292z" fill-rule="evenodd"/><path fill="#000000" fill-opacity="0.0" d="m428.83762 436.75043l0 16.922699l0.06298828 0l0 16.935577" fill-rule="evenodd"/><path stroke="#000000" stroke-width="1.0" stroke-linejoin="round" stroke-linecap="butt" d="m428.8376 436.75046l0 16.922699l0.0630188 0l0 10.935547" fill-rule="evenodd"/><path fill="#000000" stroke="#000000" stroke-width="1.0" stroke-linecap="butt" d="m427.24887 464.60873l1.6517334 4.538086l1.6517334 -4.538086z" fill-rule="evenodd"/><path fill="#000000" fill-opacity="0.0" d="m395.2313 504.20187c-16.803131 0 -33.606293 25.13388 -33.606293 50.26773" fill-rule="evenodd"/><path stroke="#000000" stroke-width="1.0" stroke-linejoin="round" stroke-linecap="butt" d="m395.2313 504.2019c-8.401581 0 -16.803131 6.2834473 -23.10431 15.708679c-3.1506042 4.7125854 -5.7760925 10.210632 -7.6139526 16.10138c-0.9189148 2.9453735 -1.6408997 5.9888916 -2.1331787 9.081543c-0.12307739 0.77319336 -0.23181152 1.5493774 -0.32562256 2.327942c-0.023468018 0.19464111 -0.046020508 0.38934326 -0.067596436 0.58428955l-0.049987793 0.47192383" fill-rule="evenodd"/><path fill="#000000" stroke="#000000" stroke-width="1.0" stroke-linecap="butt" d="m360.28714 548.3919l1.4137878 4.617798l1.8852234 -4.446228z" fill-rule="evenodd"/><path fill="#000000" fill-opacity="0.0" d="m462.4439 504.20187c16.803131 0 33.606293 25.13388 33.606293 50.26773" fill-rule="evenodd"/><path stroke="#000000" stroke-width="1.0" stroke-linejoin="round" stroke-linecap="butt" d="m462.4439 504.2019c8.40155 0 16.803131 6.2834473 23.10431 15.708679c3.1506042 4.7125854 5.7760925 10.210632 7.6139526 16.10138c0.9189148 2.9453735 1.6408997 5.9888916 2.1331787 9.081543c0.12307739 0.77319336 0.23181152 1.5493774 0.32562256 2.327942c0.023468018 0.19464111 0.046020508 0.38934326 0.067596436 0.58428955l0.049987793 0.47192383" fill-rule="evenodd"/><path fill="#000000" stroke="#000000" stroke-width="1.0" stroke-linecap="butt" d="m494.08905 548.5635l1.8852234 4.446228l1.4137878 -4.617798z" fill-rule="evenodd"/><path fill="#000000" fill-opacity="0.0" d="m462.4439 504.20187c12.5 0 24.992126 -25.2677 25.0 -50.53543c0.007873535 -25.26773 -12.468506 -50.53543 -24.937012 -50.53543" fill-rule="evenodd"/><path stroke="#000000" stroke-width="1.0" stroke-linejoin="round" stroke-linecap="butt" d="m462.4439 504.2019c12.5 0 24.992126 -25.26773 25.0 -50.53543c0.0039367676 -12.633881 -3.1131897 -25.26773 -7.7898865 -34.743134c-2.3383179 -4.737671 -5.066559 -8.6857605 -7.989502 -11.449432c-0.7307129 -0.69088745 -1.4735718 -1.3077698 -2.2256165 -1.8444824c-0.37600708 -0.26834106 -0.75427246 -0.5166321 -1.134491 -0.7441406l-0.050720215 -0.02960205" fill-rule="evenodd"/><path fill="#000000" stroke="#000000" stroke-width="1.0" stroke-linecap="butt" d="m468.72845 403.27365l-4.82135 0.2775879l3.8717957 2.8864746z" fill-rule="evenodd"/><path fill="#000000" fill-opacity="0.0" d="m462.4439 588.08374c-16.803162 0 -33.606293 25.133911 -33.606293 50.26776" fill-rule="evenodd"/><path stroke="#000000" stroke-width="1.0" stroke-linejoin="round" stroke-linecap="butt" d="m462.4439 588.0838c-8.401581 0 -16.803162 6.2834473 -23.10434 15.708618c-3.1506042 4.7126465 -5.7760925 10.210632 -7.613922 16.10138c-0.9189148 2.9453735 -1.6409302 5.9889526 -2.1332092 9.081604c-0.12307739 0.7731323 -0.231781 1.5493774 -0.32562256 2.3278809c-0.023468018 0.19464111 -0.046020508 0.3894043 -0.067596436 0.5843506l-0.049987793 0.47192383" fill-rule="evenodd"/><path fill="#000000" stroke="#000000" stroke-width="1.0" stroke-linecap="butt" d="m427.49973 632.2738l1.4138184 4.617798l1.8851929 -4.446228z" fill-rule="evenodd"/><path fill="#000000" fill-opacity="0.0" d="m529.6565 588.08374c16.803162 0 33.606323 25.133911 33.606323 50.26776" fill-rule="evenodd"/><path stroke="#000000" stroke-width="1.0" stroke-linejoin="round" stroke-linecap="butt" d="m529.6565 588.0838c8.40155 0 16.803162 6.2834473 23.10431 15.708618c3.1506348 4.7126465 5.776123 10.210632 7.6139526 16.10138c0.9189453 2.9453735 1.6409302 5.9889526 2.1331787 9.081604c0.12310791 0.7731323 0.23181152 1.5493774 0.32562256 2.3278809c0.023498535 0.19464111 0.046020508 0.3894043 0.06762695 0.5843506l0.049987793 0.47192383" fill-rule="evenodd"/><path fill="#000000" stroke="#000000" stroke-width="1.0" stroke-linecap="butt" d="m561.30164 632.4454l1.8852539 4.446228l1.4137573 -4.617798z" fill-rule="evenodd"/><path fill="#000000" fill-opacity="0.0" d="m529.6565 671.96564c-16.803162 0 -25.204712 0.01574707 -33.606293 0.03149414c-8.401581 0.01574707 -16.803162 0.03149414 -33.606293 0.03149414" fill-rule="evenodd"/><path stroke="#000000" stroke-width="1.0" stroke-linejoin="round" stroke-linecap="butt" d="m529.6565 671.9657c-16.803162 0 -25.204712 0.01574707 -33.606293 0.03149414c-4.2008057 0.007873535 -8.401581 0.01574707 -13.652557 0.021606445c-2.6254883 0.0029907227 -5.51355 0.005432129 -8.79541 0.0071411133l-5.158325 0.0012817383" fill-rule="evenodd"/><path fill="#000000" stroke="#000000" stroke-width="1.0" stroke-linecap="butt" d="m468.44348 670.3755l-4.537689 1.652832l4.538513 1.6506348z" fill-rule="evenodd"/><path fill="#000000" fill-opacity="0.0" d="m452.60086 695.7289c0 8.499084 21.724396 16.990295 43.44879 16.998169c21.724396 0.007873535 43.448822 -8.46759 43.448822 -16.93518" fill-rule="evenodd"/><path stroke="#000000" stroke-width="1.0" stroke-linejoin="round" stroke-linecap="butt" d="m452.60083 695.72894c0 8.499023 21.724426 16.990234 43.448822 16.998108c10.862213 0.00390625 21.724396 -2.112976 29.871063 -5.2893066c4.0733643 -1.5881958 7.4677734 -3.441162 9.843872 -5.4263306c0.29699707 -0.24822998 0.578125 -0.49835205 0.84265137 -0.75042725l0.14086914 -0.13653564" fill-rule="evenodd"/><path fill="#000000" stroke="#000000" stroke-width="1.0" stroke-linecap="butt" d="m538.21606 701.88153l0.6123047 -4.790344l-3.5482178 3.276062z" fill-rule="evenodd"/><path fill="#000000" fill-opacity="0.0" d="m472.28696 564.3205c0 -0.34265137 -21.724396 -0.69317627 -43.448822 -0.68530273c-21.724396 0.007873535 -43.448822 0.3741455 -43.448822 0.74835205" fill-rule="evenodd"/><path stroke="#000000" stroke-width="1.0" stroke-linejoin="round" stroke-linecap="butt" d="m472.28696 564.32056c0 -0.3427124 -21.724426 -0.6932373 -43.448822 -0.68536377c-10.862213 0.00390625 -21.724426 0.097473145 -29.871063 0.23675537c-2.0366516 0.034851074 -3.903595 0.0725708 -5.5584106 0.11242676l-2.0293274 0.053710938" fill-rule="evenodd"/><path fill="#000000" stroke="#000000" stroke-width="1.0" stroke-linecap="butt" d="m391.28427 562.3891l-4.435486 1.9102783l4.6256714 1.3876953z" fill-rule="evenodd"/><path fill="#000000" fill-opacity="0.0" d="m361.625 621.69006c0 66.12482 82.15146 144.15948 164.03656 132.24963c81.88513 -11.909851 163.5039 -113.76428 164.03656 -221.57361c0.5326538 -107.80939 -80.02081 -221.57367 -160.04163 -221.57367" fill-rule="evenodd"/><path stroke="#000000" stroke-width="1.0" stroke-linejoin="round" stroke-linecap="butt" d="m361.625 621.69006c0 66.12482 82.15146 144.15948 164.03656 132.24963c81.88513 -11.909851 163.5039 -113.76428 164.0365 -221.57361c0.26635742 -53.904724 -19.738892 -109.298096 -49.813232 -151.21533c-15.03717 -20.958618 -32.591675 -38.548218 -51.388123 -50.898132c-9.398254 -6.1749573 -19.106995 -11.040039 -28.966858 -14.361328c-4.9299316 -1.6606445 -9.897583 -2.9353638 -14.883179 -3.7949219c-2.4927368 -0.42977905 -4.98999 -0.7557678 -7.4891357 -0.9743042c-0.31243896 -0.027313232 -0.6248169 -0.052978516 -0.9373169 -0.0769043l-0.5675049 -0.04043579" fill-rule="evenodd"/><path fill="#000000" stroke="#000000" stroke-width="1.0" stroke-linecap="butt" d="m535.7112 309.35403l-4.593689 1.4901123l4.4768066 1.8112793z" fill-rule="evenodd"/><path fill="#000000" fill-opacity="0.0" d="m519.8134 287.0213c0 -34.04724 16.803162 -51.07086 33.606323 -68.09448c16.803162 -17.02362 33.606323 -34.04724 33.606323 -68.09448" fill-rule="evenodd"/><path stroke="#000000" stroke-width="1.0" stroke-linejoin="round" stroke-linecap="butt" d="m519.8134 287.0213c0 -34.04724 16.803162 -51.07086 33.606323 -68.09448c8.40155 -8.51181 16.803162 -17.02362 23.10431 -27.663391c3.1506348 -5.3198853 5.776123 -11.171753 7.6139526 -17.821594c0.9189453 -3.324936 1.6409302 -6.84935 2.1331787 -10.606506c0.24615479 -1.8785858 0.4348755 -3.8153534 0.56207275 -5.8144684l0.011352539 -0.19126892" fill-rule="evenodd"/><path fill="#000000" stroke="#000000" stroke-width="1.0" stroke-linecap="butt" d="m588.4956 156.87953l-1.513794 -4.5859528l-1.788147 4.4860687z" fill-rule="evenodd"/><path fill="#000000" fill-opacity="0.0" d="m472.28696 287.0213c0 -3.4778442 -21.724396 -6.963562 -43.448822 -6.9556885c-21.724396 0.007873535 -43.448822 3.5093384 -43.448822 7.0186768" fill-rule="evenodd"/><path stroke="#000000" stroke-width="1.0" stroke-linejoin="round" stroke-linecap="butt" d="m472.28696 287.0213c0 -3.4778442 -21.724426 -6.963562 -43.448822 -6.9556885c-10.862213 0.0039367676 -21.724426 0.8812866 -29.871063 2.196289c-2.0366516 0.32876587 -3.903595 0.6848755 -5.5584106 1.0615234c-0.8273926 0.18835449 -1.6017456 0.38180542 -2.317749 0.5795288l-0.5244446 0.14868164" fill-rule="evenodd"/><path fill="#000000" stroke="#000000" stroke-width="1.0" stroke-linecap="butt" d="m389.73163 282.62643l-3.080902 3.7189636l4.7506104 -0.8685303z" fill-rule="evenodd"/><path fill="#000000" fill-opacity="0.0" d="m395.2313 310.78455c16.623383 0 24.845154 0.01574707 33.246735 0.03149414c8.40155 0.01574707 16.98294 0.03149414 33.96588 0.03149414" fill-rule="evenodd"/><path stroke="#000000" stroke-width="1.0" stroke-linejoin="round" stroke-linecap="butt" d="m395.2313 310.78455c16.623352 0 24.845154 0.01574707 33.246735 0.03149414c4.200775 0.007873535 8.446503 0.01574707 13.764923 0.02166748c2.6592102 0.002960205 5.5865784 0.0054016113 8.9105835 0.0071411133l5.2903748 0.0012512207" fill-rule="evenodd"/><path fill="#000000" stroke="#000000" stroke-width="1.0" stroke-linecap="butt" d="m456.4435 312.49783l4.5384827 -1.6506348l-4.537689 -1.652832z" fill-rule="evenodd"/><path fill="#000000" fill-opacity="0.0" d="m395.2313 588.08374c16.803162 0 25.204742 0.01574707 33.606323 0.03149414c8.40155 0.01574707 16.803131 0.03149414 33.606293 0.03149414" fill-rule="evenodd"/><path stroke="#000000" stroke-width="1.0" stroke-linejoin="round" stroke-linecap="butt" d="m395.2313 588.0838c16.803162 0 25.204742 0.01574707 33.606293 0.03149414c4.2008057 0.007873535 8.401581 0.01574707 13.652557 0.02166748c2.6255188 0.0029296875 5.51355 0.0053710938 8.79541 0.007080078l5.1583557 0.0012817383" fill-rule="evenodd"/><path fill="#000000" stroke="#000000" stroke-width="1.0" stroke-linecap="butt" d="m456.4435 589.79706l4.5384827 -1.6506348l-4.537689 -1.652832z" fill-rule="evenodd"/><path fill="#000000" fill-opacity="0.0" d="m328.0187 588.08374c-34.7482 0 -69.50427 -69.322815 -69.4964 -138.64563c0.007873535 -69.322845 34.779694 -138.64569 69.55939 -138.64569" fill-rule="evenodd"/><path stroke="#000000" stroke-width="1.0" stroke-linejoin="round" stroke-linecap="butt" d="m328.0187 588.0838c-34.7482 0 -69.50427 -69.322876 -69.4964 -138.64569c0.0039367676 -34.661407 8.698853 -69.322815 21.740265 -95.31888c6.520691 -12.998077 14.128021 -23.829773 22.2789 -31.411957c4.0754395 -3.7910767 8.286743 -6.769806 12.566101 -8.800751c2.1396484 -1.0154419 4.2963257 -1.7940063 6.4615173 -2.318634c0.13531494 -0.032806396 0.2706604 -0.06460571 0.4060669 -0.09542847l0.14385986 -0.03164673" fill-rule="evenodd"/><path fill="#000000" stroke="#000000" stroke-width="1.0" stroke-linecap="butt" d="m322.30304 313.10226l4.325836 -2.1469727l-4.6938477 -1.1359253z" fill-rule="evenodd"/><path fill="#000000" fill-opacity="0.0" d="m421.2966 32.682415l25.070862 0l0 33.92126l-25.070862 0z" fill-rule="evenodd"/><path fill="#000000" d="m434.76535 53.202415l-1.046875 0l0 -6.71875q-0.390625 0.359375 -1.015625 0.734375q-0.609375 0.359375 -1.09375 0.53125l0 -1.015625q0.875 -0.421875 1.53125 -1.0q0.671875 -0.59375 0.953125 -1.15625l0.671875 0l0 8.625z" fill-rule="nonzero"/><path fill="#000000" fill-opacity="0.0" d="m467.46457 83.4462l25.070862 0l0 33.921257l-25.070862 0z" fill-rule="evenodd"/><path fill="#000000" d="m480.93332 103.966194l-1.046875 0l0 -6.71875q-0.390625 0.359375 -1.015625 0.734375q-0.609375 0.359375 -1.09375 0.53125l0 -1.015625q0.875 -0.421875 1.53125 -1.0q0.671875 -0.59375 0.953125 -1.15625l0.671875 0l0 8.625z" fill-rule="nonzero"/><path fill="#000000" fill-opacity="0.0" d="m550.72705 44.335957l25.070862 0l0 33.92126l-25.070862 0z" fill-rule="evenodd"/><path fill="#000000" d="m565.7739 63.840332l0 1.015625l-5.6875 0q0 -0.375 0.125 -0.734375q0.21875 -0.578125 0.6875 -1.140625q0.484375 -0.5625 1.390625 -1.296875q1.40625 -1.15625 1.890625 -1.828125q0.5 -0.671875 0.5 -1.265625q0 -0.625 -0.453125 -1.046875q-0.453125 -0.4375 -1.171875 -0.4375q-0.765625 0 -1.21875 0.453125q-0.453125 0.453125 -0.46875 1.265625l-1.078125 -0.109375q0.109375 -1.21875 0.828125 -1.84375q0.734375 -0.640625 1.96875 -0.640625q1.234375 0 1.953125 0.6875q0.71875 0.6875 0.71875 1.703125q0 0.515625 -0.21875 1.015625q-0.203125 0.484375 -0.703125 1.046875q-0.484375 0.546875 -1.609375 1.5q-0.953125 0.796875 -1.234375 1.09375q-0.265625 0.28125 -0.4375 0.5625l4.21875 0z" fill-rule="nonzero"/><path fill="#000000" fill-opacity="0.0" d="m498.56036 100.080055l25.070862 0l0 33.921257l-25.070862 0z" fill-rule="evenodd"/><path fill="#000000" d="m513.60724 119.58443l0 1.015625l-5.6875 0q0 -0.375 0.125 -0.734375q0.21875 -0.578125 0.6875 -1.140625q0.484375 -0.5625 1.390625 -1.296875q1.40625 -1.15625 1.890625 -1.828125q0.5 -0.671875 0.5 -1.265625q0 -0.625 -0.453125 -1.046875q-0.453125 -0.4375 -1.171875 -0.4375q-0.765625 0 -1.21875 0.453125q-0.453125 0.453125 -0.46875 1.265625l-1.078125 -0.109375q0.109375 -1.21875 0.828125 -1.84375q0.734375 -0.640625 1.96875 -0.640625q1.234375 0 1.953125 0.6875q0.71875 0.6875 0.71875 1.703125q0 0.515625 -0.21875 1.015625q-0.203125 0.484375 -0.703125 1.046875q-0.484375 0.546875 -1.609375 1.5q-0.953125 0.796875 -1.234375 1.09375q-0.265625 0.28125 -0.4375 0.5625l4.21875 0z" fill-rule="nonzero"/><path fill="#000000" fill-opacity="0.0" d="m664.08136 151.36745l25.070862 0l0 33.921265l-25.070862 0z" fill-rule="evenodd"/><path fill="#000000" d="m677.5501 171.88745l-1.046875 0l0 -6.71875q-0.390625 0.359375 -1.015625 0.734375q-0.609375 0.359375 -1.09375 0.53125l0 -1.015625q0.875 -0.421875 1.53125 -1.0q0.671875 -0.59375 0.953125 -1.15625l0.671875 0l0 8.625z" fill-rule="nonzero"/><path fill="#000000" fill-opacity="0.0" d="m556.2257 211.62204l25.070862 0l0 33.921265l-25.070862 0z" fill-rule="evenodd"/><path fill="#000000" d="m569.69446 232.14204l-1.046875 0l0 -6.71875q-0.390625 0.359375 -1.015625 0.734375q-0.609375 0.359375 -1.09375 0.53125l0 -1.015625q0.875 -0.421875 1.53125 -1.0q0.671875 -0.59375 0.953125 -1.15625l0.671875 0l0 8.625z" fill-rule="nonzero"/><path fill="#000000" fill-opacity="0.0" d="m428.83728 156.37401l25.070862 0l0 33.921265l-25.070862 0z" fill-rule="evenodd"/><path fill="#000000" d="m442.30603 176.89401l-1.046875 0l0 -6.71875q-0.390625 0.359375 -1.015625 0.734375q-0.609375 0.359375 -1.09375 0.53125l0 -1.015625q0.875 -0.421875 1.53125 -1.0q0.671875 -0.59375 0.953125 -1.15625l0.671875 0l0 8.625z" fill-rule="nonzero"/><path fill="#000000" fill-opacity="0.0" d="m345.1601 156.37534l25.070862 0l0 33.92125l-25.070862 0z" fill-rule="evenodd"/><path fill="#000000" d="m358.62885 176.89532l-1.046875 0l0 -6.71875q-0.390625 0.359375 -1.015625 0.734375q-0.609375 0.359375 -1.09375 0.53125l0 -1.015625q0.875 -0.421875 1.53125 -1.0q0.671875 -0.59375 0.953125 -1.15625l0.671875 0l0 8.625z" fill-rule="nonzero"/><path fill="#000000" fill-opacity="0.0" d="m328.08136 228.58267l25.070862 0l0 33.921265l-25.070862 0z" fill-rule="evenodd"/><path fill="#000000" d="m337.58136 246.83705l1.0625 -0.140625q0.171875 0.890625 0.609375 1.296875q0.4375 0.390625 1.0625 0.390625q0.75 0 1.265625 -0.515625q0.515625 -0.515625 0.515625 -1.28125q0 -0.71875 -0.484375 -1.1875q-0.46875 -0.484375 -1.203125 -0.484375q-0.296875 0 -0.75 0.125l0.125 -0.9375q0.109375 0.015625 0.171875 0.015625q0.671875 0 1.203125 -0.34375q0.546875 -0.359375 0.546875 -1.09375q0 -0.578125 -0.390625 -0.953125q-0.390625 -0.390625 -1.015625 -0.390625q-0.609375 0 -1.03125 0.390625q-0.40625 0.390625 -0.515625 1.15625l-1.0625 -0.1875q0.1875 -1.046875 0.875 -1.625q0.6875 -0.59375 1.703125 -0.59375q0.703125 0 1.296875 0.3125q0.59375 0.296875 0.90625 0.8125q0.3125 0.515625 0.3125 1.109375q0 0.546875 -0.296875 1.015625q-0.296875 0.453125 -0.875 0.71875q0.75 0.171875 1.171875 0.734375q0.421875 0.546875 0.421875 1.390625q0 1.125 -0.828125 1.90625q-0.8125 0.78125 -2.0625 0.78125q-1.125 0 -1.875 -0.671875q-0.75 -0.6875 -0.859375 -1.75z" fill-rule="nonzero"/><path fill="#000000" fill-opacity="0.0" d="m478.59317 211.62204l25.070862 0l0 33.921265l-25.070862 0z" fill-rule="evenodd"/><path fill="#000000" d="m492.06192 232.14204l-1.046875 0l0 -6.71875q-0.390625 0.359375 -1.015625 0.734375q-0.609375 0.359375 -1.09375 0.53125l0 -1.015625q0.875 -0.421875 1.53125 -1.0q0.671875 -0.59375 0.953125 -1.15625l0.671875 0l0 8.625z" fill-rule="nonzero"/><path fill="#000000" fill-opacity="0.0" d="m416.30185 311.3504l25.070862 0l0 33.921265l-25.070862 0z" fill-rule="evenodd"/><path fill="#000000" d="m429.17685 331.8704l0 -2.0625l-3.71875 0l0 -0.96875l3.921875 -5.5625l0.859375 0l0 5.5625l1.15625 0l0 0.96875l-1.15625 0l0 2.0625l-1.0625 0zm0 -3.03125l0 -3.859375l-2.6875 3.859375l2.6875 0z" fill-rule="nonzero"/><path fill="#000000" fill-opacity="0.0" d="m416.30185 276.35828l25.070862 0l0 33.921265l-25.070862 0z" fill-rule="evenodd"/><path fill="#000000" d="m429.17685 296.87827l0 -2.0625l-3.71875 0l0 -0.96875l3.921875 -5.5625l0.859375 0l0 5.5625l1.15625 0l0 0.96875l-1.15625 0l0 2.0625l-1.0625 0zm0 -3.03125l0 -3.859375l-2.6875 3.859375l2.6875 0z" fill-rule="nonzero"/><path fill="#000000" fill-opacity="0.0" d="m233.45145 436.71783l25.070862 0l0 33.921265l-25.070862 0z" fill-rule="evenodd"/><path fill="#000000" d="m248.49832 456.22223l0 1.015625l-5.6875 0q0 -0.375 0.125 -0.734375q0.21875 -0.578125 0.6875 -1.140625q0.484375 -0.5625 1.390625 -1.296875q1.40625 -1.15625 1.890625 -1.828125q0.5 -0.671875 0.5 -1.265625q0 -0.625 -0.453125 -1.046875q-0.453125 -0.4375 -1.171875 -0.4375q-0.765625 0 -1.21875 0.453125q-0.453125 0.453125 -0.46875 1.265625l-1.078125 -0.109375q0.109375 -1.21875 0.828125 -1.84375q0.734375 -0.640625 1.96875 -0.640625q1.234375 0 1.953125 0.6875q0.71875 0.6875 0.71875 1.703125q0 0.515625 -0.21875 1.015625q-0.203125 0.484375 -0.703125 1.046875q-0.484375 0.546875 -1.609375 1.5q-0.953125 0.796875 -1.234375 1.09375q-0.265625 0.28125 -0.4375 0.5625l4.21875 0z" fill-rule="nonzero"/><path fill="#000000" fill-opacity="0.0" d="m370.1601 340.61548l25.070862 0l0 33.921265l-25.070862 0z" fill-rule="evenodd"/><path fill="#000000" d="m383.62885 361.1355l-1.046875 0l0 -6.71875q-0.390625 0.359375 -1.015625 0.734375q-0.609375 0.359375 -1.09375 0.53125l0 -1.015625q0.875 -0.421875 1.53125 -1.0q0.671875 -0.59375 0.953125 -1.15625l0.671875 0l0 8.625z" fill-rule="nonzero"/><path fill="#000000" fill-opacity="0.0" d="m403.8294 437.49344l25.070862 0l0 33.921265l-25.070862 0z" fill-rule="evenodd"/><path fill="#000000" d="m418.87628 456.9978l0 1.015625l-5.6875 0q0 -0.375 0.125 -0.734375q0.21875 -0.578125 0.6875 -1.140625q0.484375 -0.5625 1.390625 -1.296875q1.40625 -1.15625 1.890625 -1.828125q0.5 -0.671875 0.5 -1.265625q0 -0.625 -0.453125 -1.046875q-0.453125 -0.4375 -1.171875 -0.4375q-0.765625 0 -1.21875 0.453125q-0.453125 0.453125 -0.46875 1.265625l-1.078125 -0.109375q0.109375 -1.21875 0.828125 -1.84375q0.734375 -0.640625 1.96875 -0.640625q1.234375 0 1.953125 0.6875q0.71875 0.6875 0.71875 1.703125q0 0.515625 -0.21875 1.015625q-0.203125 0.484375 -0.703125 1.046875q-0.484375 0.546875 -1.609375 1.5q-0.953125 0.796875 -1.234375 1.09375q-0.265625 0.28125 -0.4375 0.5625l4.21875 0z" fill-rule="nonzero"/><path fill="#000000" fill-opacity="0.0" d="m483.51443 432.47375l25.070862 0l0 33.921265l-25.070862 0z" fill-rule="evenodd"/><path fill="#000000" d="m498.5613 451.97812l0 1.015625l-5.6875 0q0 -0.375 0.125 -0.734375q0.21875 -0.578125 0.6875 -1.140625q0.484375 -0.5625 1.390625 -1.296875q1.40625 -1.15625 1.890625 -1.828125q0.5 -0.671875 0.5 -1.265625q0 -0.625 -0.453125 -1.046875q-0.453125 -0.4375 -1.171875 -0.4375q-0.765625 0 -1.21875 0.453125q-0.453125 0.453125 -0.46875 1.265625l-1.078125 -0.109375q0.109375 -1.21875 0.828125 -1.84375q0.734375 -0.640625 1.96875 -0.640625q1.234375 0 1.953125 0.6875q0.71875 0.6875 0.71875 1.703125q0 0.515625 -0.21875 1.015625q-0.203125 0.484375 -0.703125 1.046875q-0.484375 0.546875 -1.609375 1.5q-0.953125 0.796875 -1.234375 1.09375q-0.265625 0.28125 -0.4375 0.5625l4.21875 0z" fill-rule="nonzero"/><path fill="#000000" fill-opacity="0.0" d="m349.12073 497.021l25.070862 0l0 33.921265l-25.070862 0z" fill-rule="evenodd"/><path fill="#000000" d="m362.58948 517.541l-1.046875 0l0 -6.7187805q-0.390625 0.359375 -1.015625 0.734375q-0.609375 0.359375 -1.09375 0.5312805l0 -1.0156555q0.875 -0.421875 1.53125 -1.0q0.671875 -0.59375 0.953125 -1.15625l0.671875 0l0 8.6250305z" fill-rule="nonzero"/><path fill="#000000" fill-opacity="0.0" d="m689.7008 512.3753l25.070862 0l0 33.921265l-25.070862 0z" fill-rule="evenodd"/><path fill="#000000" d="m704.7477 531.8797l0 1.015625l-5.6875 0q0 -0.375 0.125 -0.734375q0.21875 -0.578125 0.6875 -1.140625q0.484375 -0.5625 1.390625 -1.296875q1.40625 -1.15625 1.890625 -1.828125q0.5 -0.671875 0.5 -1.265625q0 -0.625 -0.453125 -1.046875q-0.453125 -0.4375 -1.171875 -0.4375q-0.765625 0 -1.21875 0.453125q-0.453125 0.453125 -0.46875 1.265625l-1.078125 -0.109375q0.109375 -1.21875 0.828125 -1.84375q0.734375 -0.640625 1.96875 -0.640625q1.234375 0 1.953125 0.6875q0.71875 0.6875 0.71875 1.703125q0 0.515625 -0.21875 1.015625q-0.203125 0.484375 -0.703125 1.046875q-0.484375 0.546875 -1.609375 1.5q-0.953125 0.796875 -1.234375 1.09375q-0.265625 0.28125 -0.4375 0.5625l4.21875 0z" fill-rule="nonzero"/><path fill="#000000" fill-opacity="0.0" d="m483.48294 503.09842l25.070862 0l0 33.921295l-25.070862 0z" fill-rule="evenodd"/><path fill="#000000" d="m498.52982 522.6028l0 1.015625l-5.6875 0q0 -0.375 0.125 -0.734375q0.21875 -0.578125 0.6875 -1.140625q0.484375 -0.5625 1.390625 -1.296875q1.40625 -1.15625 1.890625 -1.828125q0.5 -0.671875 0.5 -1.265625q0 -0.625 -0.453125 -1.046875q-0.453125 -0.4375 -1.171875 -0.4375q-0.765625 0 -1.21875 0.453125q-0.453125 0.453125 -0.46875 1.265625l-1.078125 -0.109375q0.109375 -1.21875 0.828125 -1.84375q0.734375 -0.640625 1.96875 -0.640625q1.234375 0 1.953125 0.6875q0.71875 0.6875 0.71875 1.703125q0 0.515625 -0.21875 1.015625q-0.203125 0.484375 -0.703125 1.046875q-0.484375 0.546875 -1.609375 1.5q-0.953125 0.796875 -1.234375 1.09375q-0.265625 0.28125 -0.4375 0.5625l4.21875 0z" fill-rule="nonzero"/><path fill="#000000" fill-opacity="0.0" d="m421.2966 537.9265l25.070862 0l0 33.921265l-25.070862 0z" fill-rule="evenodd"/><path fill="#000000" d="m430.7966 556.1809l1.0625 -0.140625q0.171875 0.890625 0.609375 1.296875q0.4375 0.390625 1.0625 0.390625q0.75 0 1.265625 -0.515625q0.515625 -0.515625 0.515625 -1.28125q0 -0.71875 -0.484375 -1.1875q-0.46875 -0.484375 -1.203125 -0.484375q-0.296875 0 -0.75 0.125l0.125 -0.9375q0.109375 0.015625 0.171875 0.015625q0.671875 0 1.203125 -0.34375q0.546875 -0.359375 0.546875 -1.09375q0 -0.578125 -0.390625 -0.953125q-0.390625 -0.390625 -1.015625 -0.390625q-0.609375 0 -1.03125 0.390625q-0.40625 0.390625 -0.515625 1.15625l-1.0625 -0.1875q0.1875 -1.046875 0.875 -1.625q0.6875 -0.59375 1.703125 -0.59375q0.703125 0 1.296875 0.3125q0.59375 0.296875 0.90625 0.8125q0.3125 0.515625 0.3125 1.109375q0 0.546875 -0.296875 1.015625q-0.296875 0.453125 -0.875 0.71875q0.75 0.171875 1.171875 0.734375q0.421875 0.546875 0.421875 1.390625q0 1.125 -0.828125 1.90625q-0.8125 0.78125 -2.0625 0.78125q-1.125 0 -1.875 -0.671875q-0.75 -0.6875 -0.859375 -1.75z" fill-rule="nonzero"/><path fill="#000000" fill-opacity="0.0" d="m395.23096 584.4094l25.070892 0l0 33.921265l-25.070892 0z" fill-rule="evenodd"/><path fill="#000000" d="m404.73096 602.6638l1.0625 -0.140625q0.171875 0.890625 0.609375 1.296875q0.4375 0.390625 1.0625 0.390625q0.75 0 1.265625 -0.515625q0.515625 -0.515625 0.515625 -1.28125q0 -0.71875 -0.484375 -1.1875q-0.46875 -0.484375 -1.203125 -0.484375q-0.296875 0 -0.75 0.125l0.125 -0.9375q0.109375 0.015625 0.171875 0.015625q0.671875 0 1.203125 -0.34375q0.546875 -0.359375 0.546875 -1.09375q0 -0.578125 -0.390625 -0.953125q-0.390625 -0.390625 -1.015625 -0.390625q-0.609375 0 -1.03125 0.390625q-0.40625 0.390625 -0.515625 1.15625l-1.0625 -0.1875q0.1875 -1.046875 0.875 -1.625q0.6875 -0.59375 1.703125 -0.59375q0.703125 0 1.296875 0.3125q0.59375 0.296875 0.90625 0.8125q0.3125 0.515625 0.3125 1.109375q0 0.546875 -0.296875 1.015625q-0.296875 0.453125 -0.875 0.71875q0.75 0.171875 1.171875 0.734375q0.421875 0.546875 0.421875 1.390625q0 1.125 -0.828125 1.90625q-0.8125 0.78125 -2.0625 0.78125q-1.125 0 -1.875 -0.671875q-0.75 -0.6875 -0.859375 -1.75z" fill-rule="nonzero"/><path fill="#000000" fill-opacity="0.0" d="m433.10498 604.3819l25.070862 0l0 33.921265l-25.070862 0z" fill-rule="evenodd"/><path fill="#000000" d="m448.15186 623.8863l0 1.015625l-5.6875 0q0 -0.375 0.125 -0.734375q0.21875 -0.578125 0.6875 -1.140625q0.484375 -0.5625 1.390625 -1.296875q1.40625 -1.15625 1.890625 -1.828125q0.5 -0.671875 0.5 -1.265625q0 -0.625 -0.453125 -1.046875q-0.453125 -0.4375 -1.171875 -0.4375q-0.765625 0 -1.21875 0.453125q-0.453125 0.453125 -0.46875 1.265625l-1.078125 -0.109375q0.109375 -1.21875 0.828125 -1.84375q0.734375 -0.640625 1.96875 -0.640625q1.234375 0 1.953125 0.6875q0.71875 0.6875 0.71875 1.703125q0 0.515625 -0.21875 1.015625q-0.203125 0.484375 -0.703125 1.046875q-0.484375 0.546875 -1.609375 1.5q-0.953125 0.796875 -1.234375 1.09375q-0.265625 0.28125 -0.4375 0.5625l4.21875 0z" fill-rule="nonzero"/><path fill="#000000" fill-opacity="0.0" d="m556.2257 596.2559l25.070862 0l0 33.921265l-25.070862 0z" fill-rule="evenodd"/><path fill="#000000" d="m571.2726 615.76025l0 1.015625l-5.6875 0q0 -0.375 0.125 -0.734375q0.21875 -0.578125 0.6875 -1.140625q0.484375 -0.5625 1.390625 -1.296875q1.40625 -1.15625 1.890625 -1.828125q0.5 -0.671875 0.5 -1.265625q0 -0.625 -0.453125 -1.046875q-0.453125 -0.4375 -1.171875 -0.4375q-0.765625 0 -1.21875 0.453125q-0.453125 0.453125 -0.46875 1.265625l-1.078125 -0.109375q0.109375 -1.21875 0.828125 -1.84375q0.734375 -0.640625 1.96875 -0.640625q1.234375 0 1.953125 0.6875q0.71875 0.6875 0.71875 1.703125q0 0.515625 -0.21875 1.015625q-0.203125 0.484375 -0.703125 1.046875q-0.484375 0.546875 -1.609375 1.5q-0.953125 0.796875 -1.234375 1.09375q-0.265625 0.28125 -0.4375 0.5625l4.21875 0z" fill-rule="nonzero"/><path fill="#000000" fill-opacity="0.0" d="m483.51443 641.74805l25.070862 0l0 33.921265l-25.070862 0z" fill-rule="evenodd"/><path fill="#000000" d="m496.38943 662.268l0 -2.0625l-3.71875 0l0 -0.96875l3.921875 -5.5625l0.859375 0l0 5.5625l1.15625 0l0 0.96875l-1.15625 0l0 2.0625l-1.0625 0zm0 -3.03125l0 -3.859375l-2.6875 3.859375l2.6875 0z" fill-rule="nonzero"/><path fill="#000000" fill-opacity="0.0" d="m487.44357 705.5722l25.070892 0l0 33.921204l-25.070892 0z" fill-rule="evenodd"/><path fill="#000000" d="m500.31857 726.09216l0 -2.0625l-3.71875 0l0 -0.96875l3.921875 -5.5625l0.859375 0l0 5.5625l1.15625 0l0 0.96875l-1.15625 0l0 2.0625l-1.0625 0zm0 -3.03125l0 -3.859375l-2.6875 3.859375l2.6875 0z" fill-rule="nonzero"/></g></svg>